<mxfile host="Electron" agent="Mozilla/5.0 (X11; Linux x86_64) AppleWebKit/537.36 (KHTML, like Gecko) draw.io/24.7.5 Chrome/126.0.6478.183 Electron/31.3.0 Safari/537.36" version="24.7.5">
  <diagram name="Page-1" id="9_8RS6CzlgpPrbtoncMG">
    <mxGraphModel dx="1434" dy="843" grid="1" gridSize="10" guides="1" tooltips="1" connect="1" arrows="1" fold="1" page="1" pageScale="1" pageWidth="850" pageHeight="1100" math="0" shadow="0">
      <root>
        <mxCell id="0" />
        <mxCell id="1" parent="0" />
        <mxCell id="rRz7DNHcUPPnFrl2Jx9h-54" value="Retrieve Dataset Endpoint" style="shape=table;startSize=30;container=1;collapsible=0;childLayout=tableLayout;strokeColor=default;fontSize=16;" parent="1" vertex="1">
          <mxGeometry x="130" y="110" width="910" height="1131" as="geometry" />
        </mxCell>
        <mxCell id="rRz7DNHcUPPnFrl2Jx9h-55" value="" style="shape=tableRow;horizontal=0;startSize=0;swimlaneHead=0;swimlaneBody=0;strokeColor=inherit;top=0;left=0;bottom=0;right=0;collapsible=0;dropTarget=0;fillColor=none;points=[[0,0.5],[1,0.5]];portConstraint=eastwest;fontSize=16;" parent="rRz7DNHcUPPnFrl2Jx9h-54" vertex="1">
          <mxGeometry y="30" width="910" height="29" as="geometry" />
        </mxCell>
        <mxCell id="rRz7DNHcUPPnFrl2Jx9h-56" value="API" style="shape=partialRectangle;html=1;whiteSpace=wrap;connectable=0;strokeColor=inherit;overflow=hidden;fillColor=none;top=0;left=0;bottom=0;right=0;pointerEvents=1;fontSize=16;" parent="rRz7DNHcUPPnFrl2Jx9h-55" vertex="1">
          <mxGeometry width="120" height="29" as="geometry">
            <mxRectangle width="120" height="29" as="alternateBounds" />
          </mxGeometry>
        </mxCell>
        <mxCell id="rRz7DNHcUPPnFrl2Jx9h-57" value="&lt;b style=&quot;font-size: 12px;&quot;&gt;BigML&lt;/b&gt;" style="shape=partialRectangle;html=1;whiteSpace=wrap;connectable=0;strokeColor=inherit;overflow=hidden;fillColor=none;top=0;left=0;bottom=0;right=0;pointerEvents=1;fontSize=16;" parent="rRz7DNHcUPPnFrl2Jx9h-55" vertex="1">
          <mxGeometry x="120" width="400" height="29" as="geometry">
            <mxRectangle width="400" height="29" as="alternateBounds" />
          </mxGeometry>
        </mxCell>
        <mxCell id="rRz7DNHcUPPnFrl2Jx9h-58" value="&lt;b style=&quot;font-size: 12px;&quot;&gt;G. Vertex AI&lt;/b&gt;" style="shape=partialRectangle;html=1;whiteSpace=wrap;connectable=0;strokeColor=inherit;overflow=hidden;fillColor=none;top=0;left=0;bottom=0;right=0;pointerEvents=1;fontSize=16;" parent="rRz7DNHcUPPnFrl2Jx9h-55" vertex="1">
          <mxGeometry x="520" width="390" height="29" as="geometry">
            <mxRectangle width="390" height="29" as="alternateBounds" />
          </mxGeometry>
        </mxCell>
        <mxCell id="rRz7DNHcUPPnFrl2Jx9h-59" value="" style="shape=tableRow;horizontal=0;startSize=0;swimlaneHead=0;swimlaneBody=0;strokeColor=inherit;top=0;left=0;bottom=0;right=0;collapsible=0;dropTarget=0;fillColor=none;points=[[0,0.5],[1,0.5]];portConstraint=eastwest;fontSize=16;" parent="rRz7DNHcUPPnFrl2Jx9h-54" vertex="1">
          <mxGeometry y="59" width="910" height="161" as="geometry" />
        </mxCell>
        <mxCell id="rRz7DNHcUPPnFrl2Jx9h-60" value="URI" style="shape=partialRectangle;html=1;whiteSpace=wrap;connectable=0;strokeColor=inherit;overflow=hidden;fillColor=none;top=0;left=0;bottom=0;right=0;pointerEvents=1;fontSize=16;" parent="rRz7DNHcUPPnFrl2Jx9h-59" vertex="1">
          <mxGeometry width="120" height="161" as="geometry">
            <mxRectangle width="120" height="161" as="alternateBounds" />
          </mxGeometry>
        </mxCell>
        <mxCell id="rRz7DNHcUPPnFrl2Jx9h-61" value="&lt;div style=&quot;&quot;&gt;&lt;span style=&quot;background-color: initial;&quot;&gt;https://bigml.io/andromeda/dataset/&lt;/span&gt;&lt;/div&gt;&lt;div style=&quot;&quot;&gt;665c9c601c3c406a907458ac?username=RRUIZSALVAT&lt;/div&gt;" style="shape=partialRectangle;html=1;whiteSpace=wrap;connectable=0;strokeColor=inherit;overflow=hidden;fillColor=none;top=0;left=0;bottom=0;right=0;pointerEvents=1;fontSize=16;align=left;" parent="rRz7DNHcUPPnFrl2Jx9h-59" vertex="1">
          <mxGeometry x="120" width="400" height="161" as="geometry">
            <mxRectangle width="400" height="161" as="alternateBounds" />
          </mxGeometry>
        </mxCell>
        <mxCell id="rRz7DNHcUPPnFrl2Jx9h-62" value="&lt;span style=&quot;background-color: initial;&quot;&gt;https://us-central1-&lt;/span&gt;&lt;span style=&quot;background-color: initial;&quot;&gt;aiplatform.googleapis&lt;/span&gt;&lt;span style=&quot;background-color: initial;&quot;&gt;.com/v1/projects/&lt;/span&gt;&lt;div&gt;&lt;span style=&quot;background-color: initial;&quot;&gt;143597657071/&lt;/span&gt;&lt;span style=&quot;background-color: initial;&quot;&gt;locations/uscentral1/datasets/&lt;/span&gt;&lt;/div&gt;&lt;div&gt;&lt;span style=&quot;background-color: initial;&quot;&gt;3200136289223442432&lt;/span&gt;&lt;span style=&quot;background-color: initial;&quot;&gt;/operations&lt;/span&gt;&lt;span style=&quot;background-color: initial;&quot;&gt;/&lt;/span&gt;&lt;/div&gt;&lt;div&gt;&lt;span style=&quot;background-color: initial;&quot;&gt;7072043705930088448&lt;/span&gt;&lt;/div&gt;" style="shape=partialRectangle;html=1;whiteSpace=wrap;connectable=0;strokeColor=inherit;overflow=hidden;fillColor=none;top=0;left=0;bottom=0;right=0;pointerEvents=1;fontSize=16;align=left;" parent="rRz7DNHcUPPnFrl2Jx9h-59" vertex="1">
          <mxGeometry x="520" width="390" height="161" as="geometry">
            <mxRectangle width="390" height="161" as="alternateBounds" />
          </mxGeometry>
        </mxCell>
        <mxCell id="rRz7DNHcUPPnFrl2Jx9h-63" value="" style="shape=tableRow;horizontal=0;startSize=0;swimlaneHead=0;swimlaneBody=0;strokeColor=inherit;top=0;left=0;bottom=0;right=0;collapsible=0;dropTarget=0;fillColor=none;points=[[0,0.5],[1,0.5]];portConstraint=eastwest;fontSize=16;" parent="rRz7DNHcUPPnFrl2Jx9h-54" vertex="1">
          <mxGeometry y="220" width="910" height="30" as="geometry" />
        </mxCell>
        <mxCell id="rRz7DNHcUPPnFrl2Jx9h-64" value="HTTP Verb" style="shape=partialRectangle;html=1;whiteSpace=wrap;connectable=0;strokeColor=inherit;overflow=hidden;fillColor=none;top=0;left=0;bottom=0;right=0;pointerEvents=1;fontSize=16;" parent="rRz7DNHcUPPnFrl2Jx9h-63" vertex="1">
          <mxGeometry width="120" height="30" as="geometry">
            <mxRectangle width="120" height="30" as="alternateBounds" />
          </mxGeometry>
        </mxCell>
        <mxCell id="rRz7DNHcUPPnFrl2Jx9h-65" value="GET" style="shape=partialRectangle;html=1;whiteSpace=wrap;connectable=0;strokeColor=inherit;overflow=hidden;fillColor=none;top=0;left=0;bottom=0;right=0;pointerEvents=1;fontSize=16;" parent="rRz7DNHcUPPnFrl2Jx9h-63" vertex="1">
          <mxGeometry x="120" width="400" height="30" as="geometry">
            <mxRectangle width="400" height="30" as="alternateBounds" />
          </mxGeometry>
        </mxCell>
        <mxCell id="rRz7DNHcUPPnFrl2Jx9h-66" value="GET" style="shape=partialRectangle;html=1;whiteSpace=wrap;connectable=0;strokeColor=inherit;overflow=hidden;fillColor=none;top=0;left=0;bottom=0;right=0;pointerEvents=1;fontSize=16;" parent="rRz7DNHcUPPnFrl2Jx9h-63" vertex="1">
          <mxGeometry x="520" width="390" height="30" as="geometry">
            <mxRectangle width="390" height="30" as="alternateBounds" />
          </mxGeometry>
        </mxCell>
        <mxCell id="rRz7DNHcUPPnFrl2Jx9h-67" value="" style="shape=tableRow;horizontal=0;startSize=0;swimlaneHead=0;swimlaneBody=0;strokeColor=inherit;top=0;left=0;bottom=0;right=0;collapsible=0;dropTarget=0;fillColor=none;points=[[0,0.5],[1,0.5]];portConstraint=eastwest;fontSize=16;" parent="rRz7DNHcUPPnFrl2Jx9h-54" vertex="1">
          <mxGeometry y="250" width="910" height="35" as="geometry" />
        </mxCell>
        <mxCell id="rRz7DNHcUPPnFrl2Jx9h-68" value="Query Params" style="shape=partialRectangle;html=1;whiteSpace=wrap;connectable=0;strokeColor=inherit;overflow=hidden;fillColor=none;top=0;left=0;bottom=0;right=0;pointerEvents=1;fontSize=16;" parent="rRz7DNHcUPPnFrl2Jx9h-67" vertex="1">
          <mxGeometry width="120" height="35" as="geometry">
            <mxRectangle width="120" height="35" as="alternateBounds" />
          </mxGeometry>
        </mxCell>
        <mxCell id="rRz7DNHcUPPnFrl2Jx9h-69" value="Username, API key" style="shape=partialRectangle;html=1;whiteSpace=wrap;connectable=0;strokeColor=inherit;overflow=hidden;fillColor=none;top=0;left=0;bottom=0;right=0;pointerEvents=1;fontSize=16;" parent="rRz7DNHcUPPnFrl2Jx9h-67" vertex="1">
          <mxGeometry x="120" width="400" height="35" as="geometry">
            <mxRectangle width="400" height="35" as="alternateBounds" />
          </mxGeometry>
        </mxCell>
        <mxCell id="rRz7DNHcUPPnFrl2Jx9h-70" value="Access token" style="shape=partialRectangle;html=1;whiteSpace=wrap;connectable=0;strokeColor=inherit;overflow=hidden;fillColor=none;top=0;left=0;bottom=0;right=0;pointerEvents=1;fontSize=16;" parent="rRz7DNHcUPPnFrl2Jx9h-67" vertex="1">
          <mxGeometry x="520" width="390" height="35" as="geometry">
            <mxRectangle width="390" height="35" as="alternateBounds" />
          </mxGeometry>
        </mxCell>
        <mxCell id="rRz7DNHcUPPnFrl2Jx9h-71" value="" style="shape=tableRow;horizontal=0;startSize=0;swimlaneHead=0;swimlaneBody=0;strokeColor=inherit;top=0;left=0;bottom=0;right=0;collapsible=0;dropTarget=0;fillColor=none;points=[[0,0.5],[1,0.5]];portConstraint=eastwest;fontSize=16;" parent="rRz7DNHcUPPnFrl2Jx9h-54" vertex="1">
          <mxGeometry y="285" width="910" height="40" as="geometry" />
        </mxCell>
        <mxCell id="rRz7DNHcUPPnFrl2Jx9h-72" value="Path Params" style="shape=partialRectangle;html=1;whiteSpace=wrap;connectable=0;strokeColor=inherit;overflow=hidden;fillColor=none;top=0;left=0;bottom=0;right=0;pointerEvents=1;fontSize=16;" parent="rRz7DNHcUPPnFrl2Jx9h-71" vertex="1">
          <mxGeometry width="120" height="40" as="geometry">
            <mxRectangle width="120" height="40" as="alternateBounds" />
          </mxGeometry>
        </mxCell>
        <mxCell id="rRz7DNHcUPPnFrl2Jx9h-73" value="API version, dataset ID" style="shape=partialRectangle;html=1;whiteSpace=wrap;connectable=0;strokeColor=inherit;overflow=hidden;fillColor=none;top=0;left=0;bottom=0;right=0;pointerEvents=1;fontSize=16;" parent="rRz7DNHcUPPnFrl2Jx9h-71" vertex="1">
          <mxGeometry x="120" width="400" height="40" as="geometry">
            <mxRectangle width="400" height="40" as="alternateBounds" />
          </mxGeometry>
        </mxCell>
        <mxCell id="rRz7DNHcUPPnFrl2Jx9h-74" value="&lt;div style=&quot;&quot;&gt;&lt;span style=&quot;background-color: initial;&quot;&gt;API Version. Project, dataset, and operation IDs. Location name of the cloud server.&lt;/span&gt;&lt;/div&gt;" style="shape=partialRectangle;html=1;whiteSpace=wrap;connectable=0;strokeColor=inherit;overflow=hidden;fillColor=none;top=0;left=0;bottom=0;right=0;pointerEvents=1;fontSize=16;perimeterSpacing=1;align=center;" parent="rRz7DNHcUPPnFrl2Jx9h-71" vertex="1">
          <mxGeometry x="520" width="390" height="40" as="geometry">
            <mxRectangle width="390" height="40" as="alternateBounds" />
          </mxGeometry>
        </mxCell>
        <mxCell id="rRz7DNHcUPPnFrl2Jx9h-75" value="" style="shape=tableRow;horizontal=0;startSize=0;swimlaneHead=0;swimlaneBody=0;strokeColor=inherit;top=0;left=0;bottom=0;right=0;collapsible=0;dropTarget=0;fillColor=none;points=[[0,0.5],[1,0.5]];portConstraint=eastwest;fontSize=16;" parent="rRz7DNHcUPPnFrl2Jx9h-54" vertex="1">
          <mxGeometry y="325" width="910" height="42" as="geometry" />
        </mxCell>
        <mxCell id="rRz7DNHcUPPnFrl2Jx9h-76" value="API Version Format" style="shape=partialRectangle;html=1;whiteSpace=wrap;connectable=0;strokeColor=inherit;overflow=hidden;fillColor=none;top=0;left=0;bottom=0;right=0;pointerEvents=1;fontSize=16;" parent="rRz7DNHcUPPnFrl2Jx9h-75" vertex="1">
          <mxGeometry width="120" height="42" as="geometry">
            <mxRectangle width="120" height="42" as="alternateBounds" />
          </mxGeometry>
        </mxCell>
        <mxCell id="rRz7DNHcUPPnFrl2Jx9h-77" value="String-based" style="shape=partialRectangle;html=1;whiteSpace=wrap;connectable=0;strokeColor=inherit;overflow=hidden;fillColor=none;top=0;left=0;bottom=0;right=0;pointerEvents=1;fontSize=16;" parent="rRz7DNHcUPPnFrl2Jx9h-75" vertex="1">
          <mxGeometry x="120" width="400" height="42" as="geometry">
            <mxRectangle width="400" height="42" as="alternateBounds" />
          </mxGeometry>
        </mxCell>
        <mxCell id="rRz7DNHcUPPnFrl2Jx9h-78" value="v{version_number}" style="shape=partialRectangle;html=1;whiteSpace=wrap;connectable=0;strokeColor=inherit;overflow=hidden;fillColor=none;top=0;left=0;bottom=0;right=0;pointerEvents=1;fontSize=16;" parent="rRz7DNHcUPPnFrl2Jx9h-75" vertex="1">
          <mxGeometry x="520" width="390" height="42" as="geometry">
            <mxRectangle width="390" height="42" as="alternateBounds" />
          </mxGeometry>
        </mxCell>
        <mxCell id="rRz7DNHcUPPnFrl2Jx9h-79" value="" style="shape=tableRow;horizontal=0;startSize=0;swimlaneHead=0;swimlaneBody=0;strokeColor=inherit;top=0;left=0;bottom=0;right=0;collapsible=0;dropTarget=0;fillColor=none;points=[[0,0.5],[1,0.5]];portConstraint=eastwest;fontSize=16;" parent="rRz7DNHcUPPnFrl2Jx9h-54" vertex="1">
          <mxGeometry y="367" width="910" height="43" as="geometry" />
        </mxCell>
        <mxCell id="rRz7DNHcUPPnFrl2Jx9h-80" value="API Version Required" style="shape=partialRectangle;html=1;whiteSpace=wrap;connectable=0;strokeColor=inherit;overflow=hidden;fillColor=none;top=0;left=0;bottom=0;right=0;pointerEvents=1;fontSize=16;" parent="rRz7DNHcUPPnFrl2Jx9h-79" vertex="1">
          <mxGeometry width="120" height="43" as="geometry">
            <mxRectangle width="120" height="43" as="alternateBounds" />
          </mxGeometry>
        </mxCell>
        <mxCell id="rRz7DNHcUPPnFrl2Jx9h-81" value="No" style="shape=partialRectangle;html=1;whiteSpace=wrap;connectable=0;strokeColor=inherit;overflow=hidden;fillColor=none;top=0;left=0;bottom=0;right=0;pointerEvents=1;fontSize=16;" parent="rRz7DNHcUPPnFrl2Jx9h-79" vertex="1">
          <mxGeometry x="120" width="400" height="43" as="geometry">
            <mxRectangle width="400" height="43" as="alternateBounds" />
          </mxGeometry>
        </mxCell>
        <mxCell id="rRz7DNHcUPPnFrl2Jx9h-82" value="Yes" style="shape=partialRectangle;html=1;whiteSpace=wrap;connectable=0;strokeColor=inherit;overflow=hidden;fillColor=none;top=0;left=0;bottom=0;right=0;pointerEvents=1;fontSize=16;" parent="rRz7DNHcUPPnFrl2Jx9h-79" vertex="1">
          <mxGeometry x="520" width="390" height="43" as="geometry">
            <mxRectangle width="390" height="43" as="alternateBounds" />
          </mxGeometry>
        </mxCell>
        <mxCell id="rRz7DNHcUPPnFrl2Jx9h-83" value="" style="shape=tableRow;horizontal=0;startSize=0;swimlaneHead=0;swimlaneBody=0;strokeColor=inherit;top=0;left=0;bottom=0;right=0;collapsible=0;dropTarget=0;fillColor=none;points=[[0,0.5],[1,0.5]];portConstraint=eastwest;fontSize=16;" parent="rRz7DNHcUPPnFrl2Jx9h-54" vertex="1">
          <mxGeometry y="410" width="910" height="39" as="geometry" />
        </mxCell>
        <mxCell id="rRz7DNHcUPPnFrl2Jx9h-84" value="Response Status Code" style="shape=partialRectangle;html=1;whiteSpace=wrap;connectable=0;strokeColor=inherit;overflow=hidden;fillColor=none;top=0;left=0;bottom=0;right=0;pointerEvents=1;fontSize=16;" parent="rRz7DNHcUPPnFrl2Jx9h-83" vertex="1">
          <mxGeometry width="120" height="39" as="geometry">
            <mxRectangle width="120" height="39" as="alternateBounds" />
          </mxGeometry>
        </mxCell>
        <mxCell id="rRz7DNHcUPPnFrl2Jx9h-85" value="200" style="shape=partialRectangle;html=1;whiteSpace=wrap;connectable=0;strokeColor=inherit;overflow=hidden;fillColor=none;top=0;left=0;bottom=0;right=0;pointerEvents=1;fontSize=16;" parent="rRz7DNHcUPPnFrl2Jx9h-83" vertex="1">
          <mxGeometry x="120" width="400" height="39" as="geometry">
            <mxRectangle width="400" height="39" as="alternateBounds" />
          </mxGeometry>
        </mxCell>
        <mxCell id="rRz7DNHcUPPnFrl2Jx9h-86" value="200" style="shape=partialRectangle;html=1;whiteSpace=wrap;connectable=0;strokeColor=inherit;overflow=hidden;fillColor=none;top=0;left=0;bottom=0;right=0;pointerEvents=1;fontSize=16;" parent="rRz7DNHcUPPnFrl2Jx9h-83" vertex="1">
          <mxGeometry x="520" width="390" height="39" as="geometry">
            <mxRectangle width="390" height="39" as="alternateBounds" />
          </mxGeometry>
        </mxCell>
        <mxCell id="rRz7DNHcUPPnFrl2Jx9h-87" value="" style="shape=tableRow;horizontal=0;startSize=0;swimlaneHead=0;swimlaneBody=0;strokeColor=inherit;top=0;left=0;bottom=0;right=0;collapsible=0;dropTarget=0;fillColor=none;points=[[0,0.5],[1,0.5]];portConstraint=eastwest;fontSize=16;" parent="rRz7DNHcUPPnFrl2Jx9h-54" vertex="1">
          <mxGeometry y="449" width="910" height="283" as="geometry" />
        </mxCell>
        <mxCell id="rRz7DNHcUPPnFrl2Jx9h-88" value="Response Headers" style="shape=partialRectangle;html=1;whiteSpace=wrap;connectable=0;strokeColor=inherit;overflow=hidden;fillColor=none;top=0;left=0;bottom=0;right=0;pointerEvents=1;fontSize=16;" parent="rRz7DNHcUPPnFrl2Jx9h-87" vertex="1">
          <mxGeometry width="120" height="283" as="geometry">
            <mxRectangle width="120" height="283" as="alternateBounds" />
          </mxGeometry>
        </mxCell>
        <mxCell id="rRz7DNHcUPPnFrl2Jx9h-89" value="" style="shape=partialRectangle;html=1;whiteSpace=wrap;connectable=0;strokeColor=inherit;overflow=hidden;fillColor=none;top=0;left=0;bottom=0;right=0;pointerEvents=1;fontSize=16;" parent="rRz7DNHcUPPnFrl2Jx9h-87" vertex="1">
          <mxGeometry x="120" width="400" height="283" as="geometry">
            <mxRectangle width="400" height="283" as="alternateBounds" />
          </mxGeometry>
        </mxCell>
        <mxCell id="rRz7DNHcUPPnFrl2Jx9h-90" value="" style="shape=partialRectangle;html=1;whiteSpace=wrap;connectable=0;strokeColor=inherit;overflow=hidden;fillColor=none;top=0;left=0;bottom=0;right=0;pointerEvents=1;fontSize=16;" parent="rRz7DNHcUPPnFrl2Jx9h-87" vertex="1">
          <mxGeometry x="520" width="390" height="283" as="geometry">
            <mxRectangle width="390" height="283" as="alternateBounds" />
          </mxGeometry>
        </mxCell>
        <mxCell id="rRz7DNHcUPPnFrl2Jx9h-91" value="" style="shape=tableRow;horizontal=0;startSize=0;swimlaneHead=0;swimlaneBody=0;strokeColor=inherit;top=0;left=0;bottom=0;right=0;collapsible=0;dropTarget=0;fillColor=none;points=[[0,0.5],[1,0.5]];portConstraint=eastwest;fontSize=16;" parent="rRz7DNHcUPPnFrl2Jx9h-54" vertex="1">
          <mxGeometry y="732" width="910" height="399" as="geometry" />
        </mxCell>
        <mxCell id="rRz7DNHcUPPnFrl2Jx9h-92" value="Response Body" style="shape=partialRectangle;html=1;whiteSpace=wrap;connectable=0;strokeColor=inherit;overflow=hidden;fillColor=none;top=0;left=0;bottom=0;right=0;pointerEvents=1;fontSize=16;" parent="rRz7DNHcUPPnFrl2Jx9h-91" vertex="1">
          <mxGeometry width="120" height="399" as="geometry">
            <mxRectangle width="120" height="399" as="alternateBounds" />
          </mxGeometry>
        </mxCell>
        <mxCell id="rRz7DNHcUPPnFrl2Jx9h-93" value="&lt;div style=&quot;text-align: justify; font-size: 10px;&quot;&gt;&lt;font style=&quot;font-size: 10px;&quot;&gt;{&lt;/font&gt;&lt;/div&gt;&lt;div style=&quot;text-align: justify; font-size: 10px;&quot;&gt;&lt;font style=&quot;font-size: 10px;&quot;&gt;&amp;nbsp; &amp;nbsp; &quot;all_fields&quot;: true,&lt;/font&gt;&lt;/div&gt;&lt;div style=&quot;text-align: justify; font-size: 10px;&quot;&gt;&lt;font style=&quot;font-size: 10px;&quot;&gt;&amp;nbsp; &amp;nbsp; &quot;category&quot;: 0,&lt;/font&gt;&lt;/div&gt;&lt;div style=&quot;text-align: justify; font-size: 10px;&quot;&gt;&lt;font style=&quot;font-size: 10px;&quot;&gt;&amp;nbsp; &amp;nbsp; &quot;cluster&quot;: null,&lt;/font&gt;&lt;/div&gt;&lt;div style=&quot;text-align: justify; font-size: 10px;&quot;&gt;&lt;font style=&quot;font-size: 10px;&quot;&gt;&amp;nbsp; &amp;nbsp; &quot;cluster_status&quot;: false,&lt;/font&gt;&lt;/div&gt;&lt;div style=&quot;text-align: justify; font-size: 10px;&quot;&gt;&lt;font style=&quot;font-size: 10px;&quot;&gt;&amp;nbsp; &amp;nbsp; &quot;code&quot;: 200,&lt;/font&gt;&lt;/div&gt;&lt;div style=&quot;text-align: justify; font-size: 10px;&quot;&gt;&lt;font style=&quot;font-size: 10px;&quot;&gt;&amp;nbsp; &amp;nbsp; ...&lt;/font&gt;&lt;/div&gt;&lt;div style=&quot;text-align: justify; font-size: 10px;&quot;&gt;&lt;font style=&quot;font-size: 10px;&quot;&gt;&amp;nbsp; &amp;nbsp;&lt;span style=&quot;white-space:pre&quot;&gt;&#x9;&lt;/span&gt;&lt;/font&gt;&lt;/div&gt;&lt;div style=&quot;text-align: justify; font-size: 10px;&quot;&gt;&lt;font style=&quot;font-size: 10px;&quot;&gt;&amp;nbsp; &amp;nbsp; },&lt;/font&gt;&lt;/div&gt;&lt;div style=&quot;text-align: justify; font-size: 10px;&quot;&gt;&lt;font style=&quot;font-size: 10px;&quot;&gt;&amp;nbsp; &amp;nbsp; &quot;fields&quot;: {&lt;/font&gt;&lt;/div&gt;&lt;div style=&quot;text-align: justify; font-size: 10px;&quot;&gt;&lt;font style=&quot;font-size: 10px;&quot;&gt;&lt;font style=&quot;font-size: 10px;&quot;&gt;&amp;nbsp; &amp;nbsp; &amp;nbsp; &amp;nbsp; &quot;000&lt;/font&gt;&lt;font style=&quot;font-size: 10px;&quot;&gt;000&quot;: {&lt;/font&gt;&lt;/font&gt;&lt;/div&gt;&lt;div style=&quot;text-align: justify; font-size: 10px;&quot;&gt;&lt;font style=&quot;font-size: 10px;&quot;&gt;&amp;nbsp; &amp;nbsp; &amp;nbsp; &amp;nbsp; &amp;nbsp; &amp;nbsp; &quot;column_number&quot;: 0,&lt;/font&gt;&lt;/div&gt;&lt;div style=&quot;text-align: justify; font-size: 10px;&quot;&gt;&lt;font style=&quot;font-size: 10px;&quot;&gt;&amp;nbsp; &amp;nbsp; &amp;nbsp; &amp;nbsp; &amp;nbsp; &amp;nbsp; &quot;datatype&quot;: &quot;double&quot;,&lt;/font&gt;&lt;/div&gt;&lt;div style=&quot;text-align: justify; font-size: 10px;&quot;&gt;&lt;font style=&quot;font-size: 10px;&quot;&gt;&amp;nbsp; &amp;nbsp; &amp;nbsp; &amp;nbsp; &amp;nbsp; &amp;nbsp; &quot;name&quot;: &quot;sepal length&quot;,&lt;/font&gt;&lt;/div&gt;&lt;div style=&quot;text-align: justify; font-size: 10px;&quot;&gt;&lt;font style=&quot;font-size: 10px;&quot;&gt;&amp;nbsp; &amp;nbsp; &amp;nbsp; &amp;nbsp; &amp;nbsp; &amp;nbsp; &quot;optype&quot;: &quot;numeric&quot;,&lt;/font&gt;&lt;/div&gt;&lt;div style=&quot;text-align: justify; font-size: 10px;&quot;&gt;&lt;font style=&quot;font-size: 10px;&quot;&gt;&amp;nbsp; &amp;nbsp; &amp;nbsp; &amp;nbsp; &amp;nbsp; &amp;nbsp; &quot;order&quot;: 0,&lt;/font&gt;&lt;/div&gt;&lt;div style=&quot;text-align: justify; font-size: 10px;&quot;&gt;&lt;font style=&quot;font-size: 10px;&quot;&gt;&amp;nbsp; &amp;nbsp; &amp;nbsp; &amp;nbsp; &amp;nbsp; &amp;nbsp; &quot;preferred&quot;: true,&lt;/font&gt;&lt;/div&gt;&lt;div style=&quot;text-align: justify; font-size: 10px;&quot;&gt;&lt;font style=&quot;font-size: 10px;&quot;&gt;&amp;nbsp; &amp;nbsp; &amp;nbsp; &amp;nbsp; &amp;nbsp; &amp;nbsp; &quot;summary&quot;: {&lt;/font&gt;&lt;/div&gt;&lt;div style=&quot;text-align: justify; font-size: 10px;&quot;&gt;&lt;font style=&quot;font-size: 10px;&quot;&gt;&amp;nbsp; &amp;nbsp; &amp;nbsp; &amp;nbsp; &amp;nbsp; &amp;nbsp; &amp;nbsp; &amp;nbsp; &quot;bins&quot;: [&lt;/font&gt;&lt;/div&gt;&lt;div style=&quot;text-align: justify; font-size: 10px;&quot;&gt;&lt;font style=&quot;font-size: 10px;&quot;&gt;&amp;nbsp; &amp;nbsp; &amp;nbsp; &amp;nbsp; &amp;nbsp; &amp;nbsp; &amp;nbsp; &amp;nbsp; &amp;nbsp; &amp;nbsp; [&lt;/font&gt;&lt;/div&gt;&lt;div style=&quot;text-align: justify; font-size: 10px;&quot;&gt;&lt;font style=&quot;font-size: 10px;&quot;&gt;&amp;nbsp; &amp;nbsp; &amp;nbsp; &amp;nbsp; &amp;nbsp; &amp;nbsp; &amp;nbsp; &amp;nbsp; &amp;nbsp; &amp;nbsp; &amp;nbsp; &amp;nbsp; 4.3,&lt;/font&gt;&lt;/div&gt;&lt;div style=&quot;text-align: justify; font-size: 10px;&quot;&gt;&lt;font style=&quot;font-size: 10px;&quot;&gt;&amp;nbsp; &amp;nbsp; &amp;nbsp; &amp;nbsp; &amp;nbsp; &amp;nbsp; &amp;nbsp; &amp;nbsp; &amp;nbsp; &amp;nbsp; &amp;nbsp; &amp;nbsp; 1&lt;/font&gt;&lt;/div&gt;&lt;div style=&quot;text-align: justify; font-size: 10px;&quot;&gt;&lt;font style=&quot;font-size: 10px;&quot;&gt;&amp;nbsp; &amp;nbsp; &amp;nbsp; &amp;nbsp; &amp;nbsp; &amp;nbsp; &amp;nbsp; &amp;nbsp; &amp;nbsp; &amp;nbsp; ],&lt;/font&gt;&lt;/div&gt;&lt;div style=&quot;text-align: justify; font-size: 10px;&quot;&gt;&lt;font style=&quot;font-size: 10px;&quot;&gt;&amp;nbsp; &amp;nbsp; &amp;nbsp; &amp;nbsp; &amp;nbsp; &amp;nbsp; &amp;nbsp; &amp;nbsp; &amp;nbsp; &amp;nbsp; [&lt;/font&gt;&lt;/div&gt;&lt;div style=&quot;text-align: justify; font-size: 10px;&quot;&gt;&lt;font style=&quot;font-size: 10px;&quot;&gt;&amp;nbsp; &amp;nbsp; &amp;nbsp; &amp;nbsp; &amp;nbsp; &amp;nbsp; &amp;nbsp; &amp;nbsp; &amp;nbsp; &amp;nbsp; &amp;nbsp; &amp;nbsp; 4.425,&lt;/font&gt;&lt;/div&gt;&lt;div style=&quot;text-align: justify; font-size: 10px;&quot;&gt;&lt;font style=&quot;font-size: 10px;&quot;&gt;&amp;nbsp; &amp;nbsp; &amp;nbsp; &amp;nbsp; &amp;nbsp; &amp;nbsp; &amp;nbsp; &amp;nbsp; &amp;nbsp; &amp;nbsp; &amp;nbsp; &amp;nbsp; 4&lt;/font&gt;&lt;/div&gt;&lt;div style=&quot;text-align: justify; font-size: 10px;&quot;&gt;&lt;font style=&quot;font-size: 10px;&quot;&gt;&amp;nbsp; &amp;nbsp; &amp;nbsp; &amp;nbsp; &amp;nbsp; &amp;nbsp; &amp;nbsp; &amp;nbsp; &amp;nbsp; &amp;nbsp; ],&lt;/font&gt;&lt;/div&gt;&lt;div style=&quot;text-align: justify; font-size: 10px;&quot;&gt;&lt;span style=&quot;white-space: normal;&quot;&gt;&lt;font style=&quot;font-size: 10px;&quot;&gt;&lt;span style=&quot;white-space:pre&quot;&gt;&#x9;&#x9;&lt;/span&gt;&amp;nbsp; &amp;nbsp; ...&lt;/font&gt;&lt;/span&gt;&lt;/div&gt;&lt;div style=&quot;text-align: justify; font-size: 10px;&quot;&gt;&lt;font style=&quot;font-size: 10px;&quot;&gt;&amp;nbsp; &amp;nbsp; &amp;nbsp; &amp;nbsp; &amp;nbsp; &amp;nbsp; &amp;nbsp; &amp;nbsp;&amp;nbsp;&lt;/font&gt;&lt;/div&gt;&lt;div style=&quot;text-align: justify; font-size: 10px;&quot;&gt;&lt;font style=&quot;font-size: 10px;&quot;&gt;&amp;nbsp; &amp;nbsp; &quot;number_of_anomalies&quot;: 0,&lt;/font&gt;&lt;/div&gt;&lt;div style=&quot;text-align: justify; font-size: 10px;&quot;&gt;&lt;font style=&quot;font-size: 10px;&quot;&gt;&amp;nbsp; &amp;nbsp; &quot;number_of_anomalyscores&quot;: 0,&lt;/font&gt;&lt;/div&gt;&lt;div style=&quot;text-align: justify; font-size: 10px;&quot;&gt;&lt;font style=&quot;font-size: 10px;&quot;&gt;&amp;nbsp; &amp;nbsp; &quot;number_of_associations&quot;: 0,&lt;/font&gt;&lt;/div&gt;&lt;div style=&quot;text-align: justify; font-size: 10px;&quot;&gt;&lt;font style=&quot;font-size: 10px;&quot;&gt;&amp;nbsp; &amp;nbsp; ...&lt;/font&gt;&lt;/div&gt;" style="shape=partialRectangle;html=1;whiteSpace=wrap;connectable=0;strokeColor=inherit;overflow=hidden;fillColor=none;top=0;left=0;bottom=0;right=0;pointerEvents=1;fontSize=16;" parent="rRz7DNHcUPPnFrl2Jx9h-91" vertex="1">
          <mxGeometry x="120" width="400" height="399" as="geometry">
            <mxRectangle width="400" height="399" as="alternateBounds" />
          </mxGeometry>
        </mxCell>
        <mxCell id="rRz7DNHcUPPnFrl2Jx9h-94" value="&lt;div style=&quot;text-align: justify; font-size: 10px;&quot;&gt;&lt;font style=&quot;font-size: 10px;&quot;&gt;{&lt;/font&gt;&lt;/div&gt;&lt;div style=&quot;text-align: justify; font-size: 10px;&quot;&gt;&lt;font style=&quot;font-size: 10px;&quot;&gt;&amp;nbsp; &amp;nbsp; &quot;name&quot;: &quot;projects/143597657071/locations/ ...&quot;,&lt;/font&gt;&lt;/div&gt;&lt;div style=&quot;text-align: justify; font-size: 10px;&quot;&gt;&lt;font style=&quot;font-size: 10px;&quot;&gt;&amp;nbsp; &amp;nbsp; &quot;metadata&quot;: {&lt;/font&gt;&lt;/div&gt;&lt;div style=&quot;text-align: justify; font-size: 10px;&quot;&gt;&lt;font style=&quot;font-size: 10px;&quot;&gt;&amp;nbsp; &amp;nbsp; &amp;nbsp; &amp;nbsp; &quot;@type&quot;: &quot;type.googleapis.com/ ...&quot;,&lt;/font&gt;&lt;/div&gt;&lt;div style=&quot;text-align: justify; font-size: 10px;&quot;&gt;&lt;font style=&quot;font-size: 10px;&quot;&gt;&amp;nbsp; &amp;nbsp; &amp;nbsp; &amp;nbsp; &quot;genericMetadata&quot;: {&lt;/font&gt;&lt;/div&gt;&lt;div style=&quot;text-align: justify; font-size: 10px;&quot;&gt;&lt;font style=&quot;font-size: 10px;&quot;&gt;&amp;nbsp; &amp;nbsp; &amp;nbsp; &amp;nbsp; &amp;nbsp; &amp;nbsp; &quot;createTime&quot;: &quot;2024-06-01T11:05:05.279364Z&quot;,&lt;/font&gt;&lt;/div&gt;&lt;div style=&quot;text-align: justify; font-size: 10px;&quot;&gt;&lt;font style=&quot;font-size: 10px;&quot;&gt;&amp;nbsp; &amp;nbsp; &amp;nbsp; &amp;nbsp; &amp;nbsp; &amp;nbsp; &quot;updateTime&quot;: &quot;2024-06-01T11:05:16.217984Z&quot;&lt;/font&gt;&lt;/div&gt;&lt;div style=&quot;text-align: justify; font-size: 10px;&quot;&gt;&lt;font style=&quot;font-size: 10px;&quot;&gt;&amp;nbsp; &amp;nbsp; &amp;nbsp; &amp;nbsp; }&lt;/font&gt;&lt;/div&gt;&lt;div style=&quot;text-align: justify; font-size: 10px;&quot;&gt;&lt;font style=&quot;font-size: 10px;&quot;&gt;&amp;nbsp; &amp;nbsp; },&lt;/font&gt;&lt;/div&gt;&lt;div style=&quot;text-align: justify; font-size: 10px;&quot;&gt;&lt;font style=&quot;font-size: 10px;&quot;&gt;&amp;nbsp; &amp;nbsp; &quot;done&quot;: true,&lt;/font&gt;&lt;/div&gt;&lt;div style=&quot;text-align: justify; font-size: 10px;&quot;&gt;&lt;font style=&quot;font-size: 10px;&quot;&gt;&amp;nbsp; &amp;nbsp; &quot;response&quot;: {&lt;/font&gt;&lt;/div&gt;&lt;div style=&quot;text-align: justify; font-size: 10px;&quot;&gt;&lt;font style=&quot;font-size: 10px;&quot;&gt;&amp;nbsp; &amp;nbsp; &amp;nbsp; &amp;nbsp; &quot;@type&quot;: &quot;type.googleapis.com/ ...&quot;,&lt;/font&gt;&lt;/div&gt;&lt;div style=&quot;text-align: justify; font-size: 10px;&quot;&gt;&lt;font style=&quot;font-size: 10px;&quot;&gt;&amp;nbsp; &amp;nbsp; &amp;nbsp; &amp;nbsp; &quot;name&quot;: &quot;projects/143597657071/locations/ ...&quot;,&lt;/font&gt;&lt;/div&gt;&lt;div style=&quot;text-align: justify; font-size: 10px;&quot;&gt;&lt;font style=&quot;font-size: 10px;&quot;&gt;&amp;nbsp; &amp;nbsp; &amp;nbsp; &amp;nbsp; &quot;displayName&quot;: &quot;test_dataset&quot;,&lt;/font&gt;&lt;/div&gt;&lt;div style=&quot;text-align: justify; font-size: 10px;&quot;&gt;&lt;font style=&quot;font-size: 10px;&quot;&gt;&amp;nbsp; &amp;nbsp; &amp;nbsp; &amp;nbsp; &quot;metadataSchemaUri&quot;: &quot;gs://google-cloud-aiplatform/ ...&quot;,&lt;/font&gt;&lt;/div&gt;&lt;div style=&quot;text-align: justify; font-size: 10px;&quot;&gt;&lt;font style=&quot;font-size: 10px;&quot;&gt;&amp;nbsp; &amp;nbsp; &amp;nbsp; &amp;nbsp; &quot;labels&quot;: {&lt;/font&gt;&lt;/div&gt;&lt;div style=&quot;text-align: justify; font-size: 10px;&quot;&gt;&lt;font style=&quot;font-size: 10px;&quot;&gt;&amp;nbsp; &amp;nbsp; &amp;nbsp; &amp;nbsp; &amp;nbsp; &amp;nbsp; &quot;aiplatform.googleapis.com/dataset_metadata_schema&quot;: &quot;IMAGE&quot;&lt;/font&gt;&lt;/div&gt;&lt;div style=&quot;text-align: justify; font-size: 10px;&quot;&gt;&lt;font style=&quot;font-size: 10px;&quot;&gt;&amp;nbsp; &amp;nbsp; &amp;nbsp; &amp;nbsp; },&lt;/font&gt;&lt;/div&gt;&lt;div style=&quot;text-align: justify; font-size: 10px;&quot;&gt;&lt;font style=&quot;font-size: 10px;&quot;&gt;&amp;nbsp; &amp;nbsp; &amp;nbsp; &amp;nbsp; &quot;metadata&quot;: {&lt;/font&gt;&lt;/div&gt;&lt;div style=&quot;text-align: justify; font-size: 10px;&quot;&gt;&lt;font style=&quot;font-size: 10px;&quot;&gt;&amp;nbsp; &amp;nbsp; &amp;nbsp; &amp;nbsp; &amp;nbsp; &amp;nbsp; &quot;dataItemSchemaUri&quot;: &quot;gs://google-cloud-aiplatform/ ...&quot;&lt;/font&gt;&lt;/div&gt;&lt;div style=&quot;text-align: justify; font-size: 10px;&quot;&gt;&lt;font style=&quot;font-size: 10px;&quot;&gt;&amp;nbsp; &amp;nbsp; &amp;nbsp; &amp;nbsp; },&lt;/font&gt;&lt;/div&gt;&lt;div style=&quot;text-align: justify; font-size: 10px;&quot;&gt;&lt;font style=&quot;font-size: 10px;&quot;&gt;&amp;nbsp; &amp;nbsp; &amp;nbsp; &amp;nbsp; &quot;description&quot;: &quot;test dataset&quot;&lt;/font&gt;&lt;/div&gt;&lt;div style=&quot;text-align: justify; font-size: 10px;&quot;&gt;&lt;font style=&quot;font-size: 10px;&quot;&gt;&amp;nbsp; &amp;nbsp; }&lt;/font&gt;&lt;/div&gt;&lt;div style=&quot;text-align: justify; font-size: 10px;&quot;&gt;&lt;font style=&quot;font-size: 10px;&quot;&gt;}&lt;/font&gt;&lt;/div&gt;" style="shape=partialRectangle;html=1;whiteSpace=wrap;connectable=0;strokeColor=inherit;overflow=hidden;fillColor=none;top=0;left=0;bottom=0;right=0;pointerEvents=1;fontSize=16;" parent="rRz7DNHcUPPnFrl2Jx9h-91" vertex="1">
          <mxGeometry x="520" width="390" height="399" as="geometry">
            <mxRectangle width="390" height="399" as="alternateBounds" />
          </mxGeometry>
        </mxCell>
        <mxCell id="rRz7DNHcUPPnFrl2Jx9h-95" value="" style="shape=image;verticalLabelPosition=bottom;labelBackgroundColor=default;verticalAlign=top;aspect=fixed;imageAspect=0;image=data:image/png,iVBORw0KGgoAAAANSUhEUgAAAgAAAAFkCAYAAABW9YMrAAAABHNCSVQICAgIfAhkiAAAABl0RVh0U29mdHdhcmUAZ25vbWUtc2NyZWVuc2hvdO8Dvz4AAAAqdEVYdENyZWF0aW9uIFRpbWUAdnIgMDIgYXVnIDIwMjQgMTQ6NDU6MzYgQ0VTVPis2d4AACAASURBVHic7N1vaBNZ/z/8tzf5wgR6wQSyMIHul06o4AQFJ7hggj7olC40pQsmuGCCwm50f6zpLmjrcq/t+sBv9Lpxoxf3busFbuOCSyqsJMJKI6w0PuhFuuCSLCjJgtLoV2FyY2EGLGSggc/9YKZt2qZ/XHXtbs8LAs38OXPOzJkzn8yc6dlGRASG2cL+93//F//93//9trPBNGDHZPNhx2TzedVj8n+9xrwwDMMwDPMXwQIAhmEYhtmCWADAMAzDMFsQCwAYhmEYZgtiAQDDMAzDbEErA4BnWZw70gmP6ILrXRdcLjf8wSFkHhlvIXsM8xbUpzCwfRu22e2w2+2w/8MOx7te9HyeRHHWWubxCDodPUjOrJ9c5ogd2/7Li3O/rZxXPOPFtv9yoe/O/LIOuD7PvbaiMAzDrGZZAFDByJEIUi0xjJdVqE9VqA8nMCBkEDl0EcX628kkw/z5OISvaajVaqi9qEG9MwDXnT5E/1U2Z7dFkX6YQsS5sbTENh2pa1NYEkYbU0jd0CG22l9/9hmGYdaxNACoV1B+yEHuCkDkrGktIoKXcijd6odsMyfpv1xEZL8HHskDj+RH5J856ABQL2JIduPoP8+hR3Kj5//5fxF6x4OBXxq2MZNEzzteDP0GwKgg80UPvJKV1vt9GPvdbCKN6yE43h/CxY+9cG/vQ5YFH8xbxO0II7ifh/q0Yk54nERoewSpGQD1CjInO+F+1w2P3Imj3yYxILtw9M7i+kJXAPzNJHKzi9OMu0lk3lWg8H9qURiGYQAsDwBsfgQPOpA92YO+r8eQ/bUCvQ6AEyAKVkQwk0Hs4AhwfBylcgmlyThcP0YQva4DNg52m4rxSQ7xe9MY/7//DyLdGrKZqYVNVG9mkG+PILIbKH4dQnRKxshUCaVyAeMHKug/FDfvNHAcjHtZVHqzmH44jIDtz9spDLOc/iCJ1KQDPb3+lfNuDCF2S0Ti3jRKxTSiahLJRwDXsIxdDCK0fRzJW/r8Wsj+kIN8MAjhTykBwzDMUsseAXBQLhWQ/yYA7n4KQwe9cDnc8H84gORvZsNl3E0j2xJE30HRXMWpIPqhiNzN7MLtTU9vBHKLmV7gUA+MW2lM1QGgivGbeXjDQUj1IrKZMvwfD8DHm8uKH8WgVLNIP7AaT96PYC9rHpm3wUDmYxcc7zjgcNjhkAdQ9vWjv2Plz/XCZA7oCiMoAAAP3xd9UJYHrDYRkcN+5H9IowoA1TSS93yIHHC9+aIwDMM00eQtAA5Sbz8S18ZRqGjQ7qfQ15rHQHcUY1VAn6nCeJxERHLDvd389FypgJvVoFrr887FRpLrCCNQzyL9C4DHaYwV/QgfFAFoUHUDudPehXTcu/qQgw79ubUu74Ljze8DhmmCQ/CqCu25Bk2rgbQC4sIYlI5zKC59kA9dN+BwNtTUFgEufuVzfaE3AqWcROoRULk+hnJXFAF2+59hmLdkaQBQLSJzY8r8hWLh2nwInx9AwCgiXwZ4pwBuRwzp8jSmH1qfigo1G4M4v05jmpyCyAEgm8mhfDODUkcUIQEAXHA5eQQulRbTeTgNVZ3GcNcbLTPDvLwWEYHjQXh+TyP7qHEGB66Fg6Fri5Nmq1D12so0+ACivVWkr2cw9qOK4BFl6bnCMAzzJ1oaABgFJI8HEf1nDpX5zkpGFblvk8i1+ODfBXAdIQRmMhi5ZYUJ9SoypyMYuFXFanzhILg7ScQzFfQcCoAHAJuEwAci8t+PLLxapf86gr6PR5b9wmKYTcCoInclgwLvhdy2dJbX54V2J4OcDgA6pr5NIt+00yoH5UgYxrUBJBFBdO8bzzXDMMyqlgYAbVGkbschTQ2gU3SYzz9FP4amJMRvJRF2AnAGMXI9itolxbp1r2Ck6kdk/xrP6ndHEOIyGKsGEO5a/M0jn0pjZHcOUdl8BOA9lgV/IACZ/Sxi3joDY0cc5v8BsNthd8kY+FVC4mYCgZalSwqHEkj4Cji6yw2vL4KUEESPsMqrfXsiiDg1iOEwpFW2W/22E9v+a9vix77sTRqGYZjXYBsbDpjZ6l77MKdGFkfFAfA3S0iwX/l/CBt6dvNhx2TzYcMBM8zb9ssQPO/2YMT6b5nVmynkbH4oO99yvhiGYdbAAgCGeVV7BzB8nEOyS4RbdMN/yUD02spHBQzDMJsJ+/c6DPPKeChfplH48m3ng2EYZuPYHQCGYRiG2YK2PXnyhHUCZBiGYZgthr0FwGx5rHczw6yPnSebD3sLgGEYhmGYl8YCAIZhGIbZglgAwDAMwzBbEAsAGIZhGGYLYgEAwzAMw2xBSwOA+hQGtm/DtvkBUP7hgEvyI3QyianVB/tboXwzidxLLM8wm86zLM4d6YRHdMH1rgsulxv+4BAyj978UJXGgySOKh643nHBtd2PyLdT0BdmVpA52QOPywGHwwG3L4KL/9HXSg65k25s27YN27bZ0fnv131iGih+dxSdkgsOhwMuqRNHvytiYS/pU7h4xA+3ywWXy4PO40mUjQ2uu7BYEed8dtgDSaxVUv3XJI7KDtiVi6gsm1e9PYSQ7IbrHQdccgjn7qy2H9bKk4FM2L7YPlofzxdTq2RorbLrmPr2KPzbzePo2tWJvh/KK8s+r17F1Ld96HnPDcc/zLbZLXfi6NdZVBpGnswcsWPbf3lx7reVSRTPeLHtv1zouwNU/uWHfds2q14s+9h7kGTt99ZAjeby1N/OUfjHmjWhRtr9cUoclolvD1PqKW1AieJ7ZRosbmRZhnn7njx5smzKNA138CR9mqbp+VPhxTSlP5WI2xOnwtwbzEwtT/07BAp8U6IaEdUqKQq3ixT9SSMiosJXMvF7+2lCJSLSqHBeIb49RhO1tRIlMs9LjpTL6uvN7s8xEgWFElNm/rRcP8ktMsXvm/lLHxZJPJwy9+OLEg33CiSdyptlW3PdhS1Q/ksfSTtE4rpHSVslH1omSvLeKMU/8xHXkaDpxpnlBCmtCsWt7ag/xkjpTjQ9jmvnSaXRbp4CV1fLxZIcrVl27ccwCe1hGi2bB07N9pPc4ltW9nkqpT+SiN8ZpuGfp0mbI6KaRtO5YYru5kk8Nr6wX9KHeRLbRZJOmNtZLFie+neIJLaJFPt5WfLZKPGtMZpYp16vPE+Yt+1Vj8k6AcC8aRrtNSuaOUej/IUw+XaIJLaLJO5UqP/HaSJSafSwRLyNI2GHTOEr00RUo8LVGCk7JZJ2SiTtDtDgT9PEMJvFipNoboJirQKFM8vOg5pK06o1rZwgHx+g1MK1oEapgzz5zpeI5goU3yNS9JtR6j8YIGWfROLuICXurXuVJvo5RmL70sa4dFYm4VCaalSj6Z9TlC42XIAemvkYfb5ewg0BwJwZZESzi3Onv1GIty6wtR/DxHcM0uj5KAW7FZLbJfJ9lqZmoUPt/jilsqXFi81cnvp38BT+iYi0FAWdyy7oucXyrbnufPqT/STvHaTxy8GF/DWj3S/QdI1IvRIgflkAkD8lkfjZBDXf+9OU6ODM47ZeeahEib38ynox7+coCXyY0nPrl10rjlNqsmGPzuWpv52n6E/LEyWiqX6SWnyUKDcruEpqw05JH+bJ92mMfG1RGn+xOL2WjZLYFaXobhYA/J286jHZYB8AEaGDCrS7ORTrAP4TR/SCjsitaUw/nEb+tIDU8SFkZgVEr8YR4CVErxeQOibCuDuAyOkKgtcLKN0vofCdH7lPjmLk0Ru9scEwf5zNj+BBB7Ine9D39Riyv1ag1wFwAkSB28D6HAAV43cMRMfGMTFZQKqrjPiFzJq3sAGg+qgMTZTgaRilQ9whwnhYRgUcxK4wgrv5hXmV21lUdirwO/9IQZvjbIBxL4vyngTS2QkUJvvhuB7HcJPbytzOAMLdEub3ivHbOHK6AuU9AI8rqNQlSO0NK2yXIM5UUJlZZ10AmM1h6EQegW+H4F9nYCV+pwyx6aGpovRAhchXMPSBH57tbnj2Nz42cSF4No34QXH98tR1qDpQ/j4C/3YXXO964D9ybvFxpxxDcmwAftv6Zed3BxDeJ5jT6zqKPwwjixACvpUlKN/No7I7hOCOZgUXIPBLJ9nFIELbx5G8NV9GHdkfcpAPBiGsuReZrWbDnQB5wQFO16EBwL4ECpU0YlblFjoUeOtmxV4ufzMLrTuG6E7zlOL2xBCVC8jcZg+ZmM2Kg3KpgPw3AXD3Uxg66IXL4Yb/wwEkf1vvEr7IeyACyWamJ0kioKrm+bMGbbYGtDjQeC3jOAcwq5lBSIPKjaMIfcNh6N8xSBvO1cZwrQpCHdaVxemB5FRRVddex3iQRORwBtKlBKICAEODwdnBNQ45xnHgoEGfXWdd6MidHkD+gxEM7dlA0LUqDVXNQP52Ef5vcig9LCEdNpA4FENmBgA4iPsCUNpXbmNFnmw8vL0RBHoHkLmvQr2fRrSeROjIiNnnwCkj0C2bF9kNlr142gO73QH/2SqClxMINgnk9OdV4B0XHAtTqkh+6Db7przrgkvswcjjhhVsIiKH/cj/kEYVAKppJO/5EDng+qM7kfmb2nAAoD9ToTsFuABALyJ1JoJOnxf+/X74D1xE3gBQX76WAX1GhX4zCs92N9zb3XBv9+JckUNNX6c1YZi3ioPU24/EtXEUKhq0+yn0teYx0B3F2IZiVw58S8NFxbaxi5ijxQ7Maks6gxmzGtDiAL9wMakid6YTPRc4DN0eR2znq1wgV8EtC0LWGTe0crMPyoExSJdySB0SF9MwajAa2wXDgAEH+Ja119VvD2Dg9wiSX8p4tdJx4OyAHIwh2MYB4CAdiyFkyyF77yXLAwnhC8OIH/NB4ADwEqKnoxCnssgt//GzwbLL50uo1WooXVVQ/MSPgbsruwHy7wiAqmKxxRQQuVJA8V4RxbtD8Ora0u0AEHojUMpJpB4BletjKHdFEVh2p4BhNhYA1CtI/ZCH2N0DyQZMnY1g4IEfw3cKyE/mkb8Rg7dpA8GBd7rAH0ph+uH04kdVkf9Kfq0FYZjXplpE5sYUGq/zXJsP4fMDCBhF5MtYGEi7ttDwGqgZr/6GgLBDguNhGaWGpMr3y+AkCeZlqIrM8QD6HgSRujuMYPsqCaGK3HdJZB9bX+vmh+MWbm4vCdiN2drqPdDXUfk+gp6zBvpujyPe3XCTuV2CxJVR/r1hO/eLqDgleJxrrWsgd2McankEPZL5w8H7RRb65BC8u/qQfamMuiC189Cfr7xzs1pQs2p5jCqK/ymi2nixrdcAGwf78rTWKXvl7hjGfrHyZOMgdvQj6lORvV1ckR+pS4H4IIXUr4sF53gegiBAcDqaB0h8ANHeKtLXMxj7UUXwiPKKgRTzd7RuAKA/ymHk4x4MqSHEv/CBA6DpGrhWCWILgHoV2csZlOoGzPaPgx06dM2srP4DAThujyA5//rUTA7nPu7DGOsDwGxWRgHJ40FE/5lDZf52rVFF7tskci0++HcBcLrgQgXl+Xr9KIXMGr8ol6hXkPthrPmrtb4IwnwaF/9tvnpm/J5E/DoQOhwAB6DybQQDv0eQHotBXvO5eA3l6wPoOzOGyqyB6mQS6UcS/DIP2AS4XAZKj6yX5YwiMtmVF56NMH4dQuisgf6bowgvv43eoiDSqyN5IYmKAUAv4uK/xsEficBnW2tdDsGrKtSniz8aChcC4PfHUbg/jMBLXck4KEciwI04Lv6qAzBQ/n4EWfQg8B4AGKj8J4ucdRzXLI9RwMihACJfT5mPY2bLSJ4fg9oRgMIDmCkie7toBo7rlf2XYcSODSHz2NrugxRSU4C0q8nDnD0DSHxkYORQBOdulaEbAOo6Kr+MYejIEHKtXkgrHh1wUI6EYVwbQBIRRPe+zD5jtowlXQLn8tTfDgLHEWd9+DaZAp8NW68dmWrFYQrvFkncKZOvK0yJXIFGDwgk7IxS6qlK6WMS8U6RfF/lafEtAJHEHSKJ7T4Kn59YtTcvw/zZmvWk1e6NUn+vTKKTJ97JEy+I5DvQT6PFxVdk8xeCJLVLpHQHKfjZMCUOiySfLRFRieJ7+CVv02jXgsTvs3qn19IUbBGpP9c8P7VyimIdIglOnoR2H0WvFKxe6WZPftgWz0+O44hrkah/sklCD810eI4jvq0xHSLt50FSdkgkdwQoeKifRs8Hie8aNnv6Z8LE72543XEuT4M7l741MC9/QlyZH44n34WStaECDR/2mftRkEg5kabpuQ2u23g8rq31FoBGowd4a30spukMU7pmHqvS1Rgp7QLxToHEveGF1/yWvwWwXp60qWGK7hOJ56068VGC8vNvYDS+BbBO2WlumtJfBklus+pXm9kurv6Spkb5K/0U3CsS38IR18KTuCdA0fNpKjX09k8f5km5NP8OhPnWgvKN9X2uQIPsLYC/lVc9Jmw4YGbLexvDnBbPRJALp9DfrGc3w2xCbDjgzYcNB8wwfzlVaFIUEXbxZxjmLVqnby/DMK+fAOUQeyObYZi3i90BYBiGYZgtiAUADMMwDLMFbXvy5AnrBMgwDMMwWwx7C4DZ8ljv5s2HHZPNhx2TzYe9BcAwDMMwzEtjAQDDMAzDbEEsAGAYhmGYLYgFAAzDMAyzBbEAgGEYhmG2oKYBQOX2ORx93wOXww673QHXrk4c/Tq3dBjMP2pmCskb5deQEFC+mUSu6djsOsaCdmzbtq3px/7eObyeHDDMS6gXMbTLgcitZX+/AuO3MYz9ag0r+3gEnY4eJJePTf+HVJH8wI2jtwzkjrvgOTn1OhJlGGYTWREAVL4PwX8kDRxMIv+0htqLCvLfBFG7FoL/eBYrR9V+OcbkMIZuFP/w2OOLyshcGFklAOARztRARCAi5E9J4A6mULO+1+4Nosmgmwzz57HJGJqsINn9askUr8WRnNLML21RpB+mEFkxNOwfoOeQve9DYD8H5UIZ+bO+15AowzCbydIAYDaLc2dy8J7PYvSYD2ILABsPsSOG1M0UBrtd1oI6iv8+is5dbnh2eeDe1Ym+76yL+rMRdDpCOPfDECIf9MAvu+EJDCE3A+A/Q1A+z6B6Zwh+3xBydQDVHM596IVH8sAjeeD/eARFK8rIfe6G92QSF4+H0PO+H57tXhz9vgygiuSREBK/lpE85EXku8pLFdq40wf3u0eRnV02TTyKrF7E0C4XIv9zEUcDnej0eeDxRZD8zQpZjAoyX/TAa+XX834fxn5/9XCG2Vyqt4cQes8N93Y3XKIXoTM5zMea2U9c8HxyDkPhHnQqXnikTvRdN+ug/kMIjv0DuHgyhM73/fBKHvSczmJFnFovIr5fRPS29f1ZFkMfeOEWXeb2/md+ezqmvo7AL5l5ce/qxMANc1vlf/Ug8n0Z+Qs98B7PQH+cRGh7BCnrDkD17jlEfB64JQ88khc9JzPm2PT1Is6958bRb5MY+LAHnfs9cMshXPx1sR4bd8dRlBUoPJD7QoL/jHkHQP/lopnmdjfcohv+IyOY0tfZHtY6lxmGeWuWDA482U9iS5BSzQfdXlDLxkhsDdJoxfp+P0GKU6L+yRqROkoBjiffWWvs8bkSJfZxC2NSl877iD+YssYln6bhLp6kz8bNcb7nVEofFkn8dIJqRDTxmUhce5hST63t/BQlYX7c6rk0hZ0yDRbXH/M4f0oibmGbRDSXp/6dPAWvzRe0RuPHRJJO5Kk2V6DBnRzxXQkqzZnzCmd9C2O5F87KxO8bpLxmzpu+HCBh9+Di2OnMX86KMbVfjFNUECg8Zo3O/nCYFF6k/pz5deJTgTghuFgvf46R5AxSSiWqjQWJs0kUy1p1S01RuFWkaLZmjse+k6fwT7T0b5qm4S6BfF9Z54yapmi7QOEfNaLJfpKcARp+aCU3FibBGab0CyIijUa7G8Z7rwyTwgdo9Lm53aAgUfQnqwwv8jS4d35c+xLF93Ak9A4v1PH8KYn4gynzPLTOh8BldaG80om8mc8OnpTL8+PLq5Q+FaT+jLrO9tY5lzdyTJi3jh2TzedVj8nSOwCaCq3FAb5l7aAhfzuLWlcUkTbzO7cziqivgtzPVkRvkxA6JIOz/pa281DVJg8PnmWRmZIQPR4ADwA2AcFPgsDtDPJ1ADaA3x9BsNXajiRBnFVRnV2Z1Eux+RANi8j9kDJ/Zc3mkLnNIxj2mXkG4D8YgWQDAA5ytwLXgzymZorIZsrwfzwAH2/OEz+KQalmkX7winliNo+WAEYfVpCcH7GvXYHSrqHybLEOc10N9bIjCIXLI1e0ZrYFEOnizb+FIHp8GvKTa/zafZZFZkpE6Ih1zghBDBfLSB7ggX0JFCppxNqt5DoUeOsVVNZ5zm9MjiPHBxDttsrQ4kP0QwnF24t3MrwHFuu4JImAqkIDgHoe2UkRStfyEQsdcAgcKrfHkPmlAh0CghfSSBwQ1t/emzqXGYb5w5YOB+xwwTFbhqoDWPU5ogF9RoW91bFwsQR48E4Oum49i7TZwXENq9gA1JvcJtd1aPUiEt1ujMznpF5DzVBQnQUEAPYWDtySlZrfbs8edyN6swYAcB3OoHBh7WeW0qEovBdSSP4eQ+x+CuOtIeT2AKgDAAfe2dD48Q7wdR3arAZVN5A77YX7/OLsGoDQ8zU3x/ylVJH7Lo6LmTy0OgfYDFQfGZAblnA4XQ310g6uRYc6a9ZNjneAXzizOPAtgKZrABzNN6fr0OAAzy9O4lqsL3oRqbNxjE1VULNxQF1H2eChrNMhV5+pwuC9DfkAHLwD0HSo83W8peHMsjX8/WsOOV5Bun15qjzCV3LAvy4i+Vknoo85eA/EEL8Qg7ju9jZ+LjMM8+dYGgDsVqDwIxj7oYzoiWXd5H5PYuCyHdFLYfBOF2ozGgzAOqF1qDMALzoAvMTzeCcPB+dH9O4EYm0rZ+deoiCBCwWUzxgwwC02nmtpCyHcMYSRsRzE33PwhOMNHQMN6DM6gPlGWINu4+HgXXA5eQROlpA+xDVPl/nLM24NIXJJQ/xuHtF2zuyx/55/yZsj2oy6WP/rGnSdh4PngBnA0DXo1h0sQIeuG3DsXOXiDwA8Dwc06DNYCLyNZ2WonIjq+QgGHkSRv5OG1AKzj42UWrcMvFMAp6sN+QC0GQ14h4fLtuaqKN7JgutINu8o2yIh/NUowl8BmJnCxSNBRM5IKO1fe3vaujlmGObPtvQRQEsAg+cDqJwJIfKvLMozBmDoKN++iNCBAeQ4AS4b4O8NwH4nidRjczXjQRJjUyIC3fLKLSzD2awGEgCEAIK+EpKXc9bbBQbK3w8g8s/cBt424GCHDl2zfkW08OAFAYLAr/sIwyQgdDgA9Yc+DE16ET4oLpmbv5FE2TDzNPVjFup7Cny8hMAHIvLfj6Bo3brUfx1B38cjKLIfM38bxowKgxfhaeUAGKhcTyL7DNBnGzvJpRbqv347gxz8UOar/7MsUretG+2P00hNuaDsX+O9k9YAgr4yUlesel/NYqBLwcAdA5qugWuVzA659SqylzMo1Q0Y81mxGdD0lZWP6+iBomeRnM+HPoXkj2X4ewNYfmN/qQpyPxtQAk3OZSOHIaUH536xzk6nBKnN/orbYxjmbVnxGqB4OI2JH6Ow3x6AItqxzSGi50we4hc55C4o4AFwXQmkTzsw1uuBZ5cH3sM5yN+kMLRn/Q2KHSH47w9BliIYeyYidjWF0OMB+Le74d7uQei6gZ4Dfqz7G97mReAAh9SHnoUeyi+L744ihDK0/RGElrRSHJT9HC5+4Id3u4jIpBeJS1GIAORTaYzsziEqm72yvcey4A8EILMbAn8b/IEhDIhZBCUPvPt7cM6IYuSkjNLZAAZumxc/V5cX1dOd8O5yQ/qigsA3CYStX+/cTgXiZAz+9zxw778IHBtFvGutCiIidiUJ5VEfvC4XXO8NoXIwiZFDPJTPh6AU++DZ5YU/0I9yVwLxbhXDh45i7BkPpTcA/ZIf7g8uLv3fFs4wkmMR1M4r8OzywOOLodydQupTcbVMmJ5lka0qCDQ7lzkF0c8k5D/1mm8BbPcjPhPF6Gnlj2+PYZi3ZmsPB1wv49z+HlROlzDaazXQ9SKGZAWV8xpSvW83e8yf42WH1Mwdd6GPy6B0aWU/E+N6CK5v/MhP9f9t/tfEWuV9U9jQs5sPOyabz6sek3WeBv6dGSh/N4QkohjvZj/fmdfp7/Q8SEe1agA72TnCMH83W3MsAH0MEdEF5SqHwe/7rVehGIZZqoyR9yXE7nkRDf5d7mcwDDNvaz8CYBiwW5ubETsmmw87JpvPqx6TrXkHgGEYhmG2uG1PnjxhdwAYhmEYZothjwCYLY/d2mSY9bHzZPNhjwAYhmEYhnlpLABgGIZhmC2IBQAMwzAMswWxAIBhGIZhtiAWADAMwzDMFrQ0AKhPYWD7Nmzb1uRj78GYrmMsaG8+f9s22N87t3RAEob5i9L/cxERnxsOhwMOlwc9JzOo1OfnVpH7nxC8ogsulwuewAAyj+fnGSh+dxSdkgsOhwMuqRNHvys2+efAOnKfe2B3RJCpL06t3BhAzy4zXbccwrk71cWZs0UkP+mEx+WAw+VG5/H5ESvXy9N65QH0X5M4KjtgVy6uGNDbeJTBwPseuN5xwCH6Efl2amG0zrXSrf67E/b/ssNuX/w49i8OWmQ8SOKo4oHrHRdc25emi0cZDHzgNbf5jhv+8Dnkqo2ZqiB7pgduuwtH7zRMn0ki5Fi6Tbt9G7Y5IsjOl7eaw8UPPbD/I4Sx2YZ1bx2F6x8r17UHkma+ZstIHrf2/zsuuPcfxcgvTcYtfTSCznfs8P9zoaTIhO3YZl+atucLaxCz387Ba9+2dLuOEJIzG9hPG80TwzRDjeby1N/OUfjHGm1E/pRE3MEUbWxphtmcnjx5snTC8xSFBZGCV0pm3X6apugOnpTLKhERqVcCJOyO0bhKRKRR/qyPhH0JKhFR7ecYiYJCiSmNiIi0XD/JcyAm9AAAIABJREFULTLF7y/dhJaNkbxDIpEPU3rOmng/Tj7BR4OT5rpqtp9kIUijT83tjB8TSfooRdM1InpRoMQBH8V+1NbN03rl0TJRkvdGKf6Zj7iOBE03ZrSWp8HdIgUvm+vWyqMU3hem0Yfrp1s6L5Pw0XjznV7LU/8OgQLfWOlWUhRuFyn6k0Y0V6L4Hp58X06QOkdEL0o03CuQcDhNGhHRXIESHRIFvhykYJtA0Z/XOro1Kpz3kfTpuLnuw1EK7lYodjZKUkuQUi/WWneahnslCl5TiahGEyckEroTVNAW9zHf3k/5uYZV5kqU6JJIaufJd75kTVRptJunwFWt+WZy/STuWJbORvbTRvP0mqw4T5i37lWPyesNAF4UaPSYQlKbSGKbSOK+KI3en59bo9LVKPnaBRJ3yqR8NkrDHwkkf1l4pQIwzKtaGQAUKH1tYsmFcPwjnsQTeSJSabiLJ+WKujjzRZrCTvMiX7s/TqlsafGcmMtT/w6ewj81pj9O0d0KJTJx8jkXA4DCVzIJh9INAXXDtp6nKOhUaPhpsxKsnae1y0Ok3S/QdM0MIvhlAUAtGyVhT5xKzS4o66SbPyEt/L3CzzES22M00ZBu6axV/rlpmhgbp1LDxVm9EiB+33zepqlQ1Kz2ap0A4H6CfDuilH4+n1CBCk+J6H6cZH7tAEC9GiCxd9TaZo1K2RRNPGxYoBwnHx+g0YbreumCQvKxNKU+EhoCgBIl9vIUzqzSrv4UJn5vnErN5q21nzaYp9eFBQCbz6sek9faB6D8bQx99xWkytOYrhQwuiuPgS9SqALA4yT6Thbgv1LG9P0CUl1FJG/qW3o8QmaTcsoIHlawMJK9nkN2ygGlQwLqJZQfOiC1C4vLcyLE1gpKDw1wOwMId0uYHzvP+G0cOV2B8t78wlVkTg6g8vEwYrsaR9gzUHlUgUtaXBcQILU7ULlfAu4XUHSKMK4fRafshnu717zdbmDdPK1ZHgD8ThniKoP9VX4rACKQ+7wTXskN965O9M0/0lgnXU3XULuXQI/sNh9LvL94e7r6qAxNlOBpOP/FHSKMh2VUbCKUQwFILdaeeZzD8PUypMD8tkTIu/nmGV6iiuTpEThOxhF0zu9SGXLrBlbVMxg6ryF6Pmptk4PUHYbSbs2fLSNzOY3q/iAUKyvGb+cQHZOQuBAA39iu1XWoOlD+PgL/dhdc73rgP7L4SEPXDRgzOQy974H7XRfccg8GfijDWG8/bSBPDLOWJgGAgbEjjmXPwexwfJxdNzHpVA7anUHIHADw8HfJwNMK1DpgTOVQaAsgst+smUJvPyI7X29hGOa106dw7sOjyHcPI9HLAzBgzHLg7A3L2Dg4OMCYXfqk33iQRORwBtKlBKLWtbl6vR9DMzGMftp4oQcAA9oswLUsnWpv4VCbNYBZFdrjceRtMaTvTWN6MgFpMorQ18WXytPK8qxT/Oc69Ls5qAdTKJSnUfhOQfl0CAN310/X5Qsh9H4I8TvTUJ+WkexSET8YQ2YG0GZrQItjyT7gOAcwq0Gff1avjyHk2Ab79hCybYNInpDXzW8j424CFytBDB0W1l94mfK/E8jtH0JsRRtVwUXFjm3/8CJWVJD4xgoQjCLin6bhvxSHwi+Lpmw8vL0RBHoHkLmvQr2fRrSeROjIiNnfotWPaK+CyKU8pp9WkL8gI3+yBwN3jY3tp9XyxDDraBIAcAhf01Cr1ZZ8tKuBdRMzHmUQ/6QT/vf88O/3QzmTg1E3R0fXdR1wuBoiYxfEd9kY48zmZTxIItIRRb4rhdylAMzLGgeuxYBRa1iwbkAzll68Kzf7oBwYg3Qph9Qhqzl+NobYBQP9l2MQV9z54uBoWXnBrs1qsPMcwNnBtSiIfCqb55CgYOATLyp3c6hsME/Ny7M2juOA98IY6DAvovzefsS6NOTuLHb3XS1d+dgwhr8KQ3YCsPHwnehHyJZFesqAo8UOzGpLOkcasxrQ4lhsI/gw0hqhpuYwYBuBEhxZ0UFxdTqy36XAh6PwvWwzY+QwclVH8ONm+0hEf64GqlWQCasY6IggUzUwdTaG3P4RxDua7VUJ4QvDiB/zQeAA8BKip6MQp7LIzQB8Rz+GLw0iuJMHwEHoGsJAl4bsreLG9lPTPL1kmZkt6TU+Aijj4kcx5NriyN7LIz+ZR+6MfyFy5Vp44IUOYyFqVaFWV/aNZpjNwPjtIkIHknCdzWH8lG/xQmDzQNquofx7Y+/8MsrPJHgks7ZXvo+g56yBvtvjiHcv/vqs3k4hXy3iXJcb7u1uuLviKOoZxCQ/hv7DQZJEVMrlhsa+guLvBiTJA2yX4Knr0Bp7rdcBgNtQnlYtzzpESQKnVaEum87Z1tlPMFD5dQrlmWX5rXOw2zgIOyQ4HpZRamgCyvfL4CQJ4kwRme+zC28TcE4Z4c9DcE2aF8wNmc0hfdeFnl5pgys0mMogCwWBvY0Tq5i6PobcM+srJ8B3LIoAssj+kkf6ZgWVGxF4tpvHNnqjiuKlHnjCY6gaVRT/U0S14a0L1GuAjYPdBuiPpjD1qLHnvgGjDnAc1t5Pa+Xp3ssXm9mClvQIeJVOgFZnp8BVqyPS8zzFe0Xi2qwOLOU4+XgfxYtm2trP/eTjOZK/Yp0AmbdrRUeaFxMU2yFZPa1XUq8FSdgZo/GnRDSn0sQpmYSuYZomotq9QZLbgjRa2cCGHyaWdAKkcoIUwUeDObOH9/SPUZJaw5R6TkSk0mivQPKnaZqeI6LnE9S/hyffhdK6eVqvPAvlatIJkJ6nKdwmUviq2bFRuxcnRZCof7K2TroqjfbyJB4cNTvzzWmUP6+Q0BalcY2stwsEClwqLLxdEGyTKPZzjUhLU7hVoMCFAmlzi+Xhdw5SYUmP+zU6AU72kyhEaXy1pmyNToCl8z7ie0dpaanMnvziIas888eHVyjxcGUa48caOgFq4xRtFUg5nzfL86JEowdFEg6MkkpEpQs+4ndGKV0xM6v+3E8+p0T9U7W199NL5ulVsU6Am88beAsABFuzD0/Rn5auvPwtgOmxKPnaBJJ2+0g5OEjjxTRF23kSDwxTaa5G+UtBklsFkvb4KHAiRYlDPAsAmLduxUmUCRMPEMdxSz78gfmLgkYT54Mkt/LEOwWSDwyaF14iyp8QCTZu2bqLF+ollgcARDSd6afAToF4J0/injAlJhsuQ+oExQ/KJDh54lslCpyygoF18rR2eTQaPcBb07CYd2eY0taJrU0NU3ivSLyTJ6FdoZgVDKy7n9QJih+SSXSaeZK6YjRaXLwi18opinWIJDh5Etp9FL1SWGhLtKlhinZIZlnn151/o2iyn6QWc1sACNZ25bOLbUntxyBxywMGsi6282Wdz3uLSLHc4jITnwokHGvy+qI6QfFDPhIFnnieJ2F3gAYz0yuXo2UBwHx59onE8zzxgki+jxKUn38zYW6a0qcC5rGz0u3/cXphX6y1n14mT6+KBQCbz6sek7c4HLCOsaCIYV8B+VOsywrz9rBhThlmfew82Xz+OsMBz2ZxVHQjcsN8Tmn8nkJqygW/j138GYZhGObP9ue9hd8SQPybMKKn/XB9Adg5AcqZFIb2/Wk5YBiGYRjG8qf+Gx6hN47x3vifuUmGYRiGYZpgowEyDMMwzBa07cmTJ2+pEyDDMAzDMG/LW3wLgGE2B9a7efNhx2TzYcdk8/nrvAXAMAzDMMymwQIAhmEYhtmCWADAMAzDMFsQCwAYhmEYZgtiAQDDMAzDbEFNA4DK7XM4+r4HLocddrsDrl2dOPp1bulwln/EzQgc8jkUXzWdBm8srwAwM4XkjfL6yzXzeASdjh4kNzp8KfOXZVwPweE7hz9YUxaUbyaRY+O4MwzzJ1kRAFS+D8F/JA0cTCL/tIbaiwry3wRRuxaC/3gWerNU3pI3nVdjchhDN4oN47MzzErcgSQqt/vxB0aeb1BG5sIICwAYhvnTLA0AZrM4dyYH7/ksRo/5ILYAsPEQO2JI3UxhsNtlLahj6usI/JIb7u1uuHd1YuBGZSEZ/e45RN5zwy264NrVg4Gbi/Ng05D/OgSv5IbjHTc6T2Yw3+bpv1xEZL8HHskDj+RH5J+51S/iG82rUcbY553wbPfAI7nh2R/Bxf9YqT4bQacjhHM/DCHyQQ/8shuewBByMwD+MwTl8wyqd4bg9w0h99ha9l8heEQ/hn5ZJ23mr+vRRfgdPRj6tg8973fCL3vg/fAipqxDmzvuhvfzixjY74Y7PIb/72YUYvdFlGfGEHrHg4FfGtKaSaLnHS+GfgMwW0Tyk054RDfcohvu/UeRfGAAqCJ5JITEr2UkD3kR+a4CGBVkvuiBV7LOh/f7MPY7C0UZhnmNlgwOPNlPYkuQUlqTgYOXLSc5AzT80PyqjoVJcIYp/YKInqco3CpR7Gdr5PTJfpJ5hYYrRJQJE9ciUXh+PPGHCVJ4mQaLRPQ8TeFWkcJj1ljWzyeof7dAwbFVMrPBvBa+konvSlDJGkB7+lqYxLYojWtEpI5SgOPJd9YaX3uuRIl9HCnfmHkonfcRfzBlzlNHSWnhyffVBGkbSbsyTAofoNHnxGxyK8bUrgyTwnEkf5W36sU0DXfxJH1pjjc/8ZlIfHuYRq36XxsLEr83TiWqUfqwQNKp/EJS6pUA8XsTVCKzPnF741SoERFpNPGpRHz3KKlERHNpCjutc4GICmdl4vcNUl4jIqrR9OUACbtXjm//d8XGnt982DHZfF71mCy9A6Cp0Foc4FvWiRr2JVCopBFrN78KHQq89QoqM4BxdxxZPohoBw8A4PclkK+MI9ZmLssJAfQdlsABQJsfsqCiqgLG3TSyLUH0HbSGB3YqiH4oIncz2/wW/EbyWi8ie6sM/6EoJM6cJB6MQDHGkb1nLWOTEDokm/mxSZC281DV5r/iOYjo+VABv9G0mb8um4TQhz6rXogI9HpRmcyhAphDaL0XQqR9+UocAod6YNxKY6oOAFWM38zDGw5CAiCdykG7MwiZAwAe/i4ZeFqBury/Sr2IbKYM/8cD8PFmuuJHMSjVLNIP3mCZGYbZUpaOBuhwwTFbhqoDcK6xll5E6mwcY1MV1GwcUNdRNngodUCfqcJo8YJrSJnjucUvLQ40fFtYTp+pwnicRUTKLM6s18BJGtT6FJK+IJLPAMCOnisljG4orxpUnYPLyTeU2AGe16HqVlhhs4NrzJANQH2VW602B/iFpDaQNvPXZXNBaKhXjhYOmNWgWxdrB88vqcfzuI4wAvU+pH9JwNeaxljRj/BVM6g1HmUQP5tE7mEN4ADoFRj1aJMAV4OqG8id9sJ9fnFqDUDo+WsrIcMwW9zSAGC3AoUfwdgPZURPLOvS9HsSA5ftiF4KQz8bwcCDKPJ30pBaYD5Ll1IAAN4pgJtRzYbSBgAGqo8qgCBBWCMjvFMAtyOG9L045CaDFA/dLqOvbgDgwDk5wNhAXi9IcPEG8jM6AOtCXdeg6y44nM2a75fheINpM29dXUNVB+YrraZrgMMF3gZowOoDaXMKIgeAaCaH6LsZlDpiCAkAUMbFj2LIdWSRHfOBB2DcCMF1plkiLricPAInS0gfYnWJYZg3Y+kjgJYABs8HUDkTQuRfWZRnDMDQUb59EaEDA8hxAlw2szHkWiWz4129iuzlDEp1A4YBcB09UGYzGL5pdu3T/xNHwNeH9Dqvw3EdIQRmMhi5ZXUJrFeROR3BgPWdc/IQBAGCwIO3bTCvnIxAr4T89STK1s+syvUkxlsCCL63/s7hbICha807ItpeLW1mk6sXMX5tyjz2RhljmTKkfX6IG1jVFw6Cu5NEPFNBz6GA9chIh6YDju2i+X1mChd/KMIwdNQAABzs0KFrBmCTEPhARP77ERRnzTT1X0fQ9/EIiuzmEsMwr8mK1wDFw2lM/BiF/fYAFNGObQ4RPWfyEL/IIXfBfP6tfD4EpdgHzy4v/IF+lLsSiHerGD50FGNGGCNjURgX/HC5XJCOTUG5PLrQB2BVziBGrkdRu6SYbxZsVzBS9SOyf/X7BhvJq3w6hZEdWYRks6d+zw8OxK8noKzXzwGA2BGC//4QZCmCMXXl/FdJm9nkOD8UVwoRnxceqQdp1xBGTsobW3d3BCEug7FqAOEu6xe8zYfYmRC0szI8sh+dx8chn00gYkvh6IcjKMOLwAEOqQ898J+ZgnwqjZHdOURl800b77Es+AMBq/8AwzDMq2PDATNb3oohNR+PoFPOIvxwHNG1+sIwbwwbenbzYcdk82HDATMMwzAM89JYAMAwDMMwW9BqfZkZZutqi2FCi73tXDAMw7xR7A4AwzAMw2xB2548ecI6ATIMwzDMFsPeAmC2PNa7mWGYvyL2FgDDMAzDMC+NBQAMwzAMswWxAIBhGIZhtiAWADAMwzDMFsQCAIZhGIbZgpoGAJXb53D0fQ9cDjvsdgdcuzpx9OscqvVX3NrNCBzyORRfNZ0GbyyvADAzheSN8h9b9/EIOh09SK4zCiLDbAaVGwPo2eWCy+WCWw7h3J3q287Sa5E76Yb789zbzsYf9ypt0F+A8dsYxn5tOt7qn6dexNAuByK3lv3dRPW7HjjeH8FGzo7yzSRym/w0WhEAVL4PwX8kDRxMIv+0htqLCvLfBFG7FoL/eLb50LhvyZvOqzE5jKEbRbARWJm/tQfnEPk8D/nfZaiqivx5EekjMSSfve2MMX/3Nqh4LY7klPa2s7HIJmNosoJk96smVEbmwsimDwBAjV6MU7SVp8AVlVZ4OE6jmQJpRESkUf5CmHw7RBLbRRJ3KtT/4/TColouTuE9IoltAgk7A9SfseZlwsTv6afh80GSd4jEO0VSTqRpfmvaVILC+ySSdkgk7fBR+PyEtb0mNprXWolSnykktUsk7RBJ2hemxKSV6tNhUvggxa8NUrg3QL7dIkndgzTxnIgmB8nXyhF4keS9gzRRsZa9FCSpzUeDU+ukXRkmhQ/Q6PPVCsBsFk+ePFk6Yb5eXOmnYLdCcrtIypfjlB9b/O47Mb5Qb9XsIAX3mOeC0CZT8KsJc96LPPXvFih4dX7JaRruEkj+Kk+1Zhl5UaDRYwpJbSKJbSKJ+6I0en9+yRqVrkbJ1y6QuFMm5bNRGv5IIPnLgjV7mtKnAiTvsM6frhilyk23skLhK5mEQ+mGPKk03MWT0uzcWmbiM5HkE6OU+DRIgS4fSe0yRa+WrLkaFS5HSdkpkrRTInGnQrErheZlt8pYuBw125VWgaSO2GL519k3q603cUIk8dgwDX/kI6lNIL61MX81KlyNkbJTImmnRNLuAA3+NL0iV01z+mOY+I5BGj0fteqERL7PFtsyNRen8F6JxB0SSTtkCpxI0/RqBZ+bpvSJAMnt8+2p1WYub4PmiKgyToO9stnmtEskH4zT+FMrT2NB4rsGKfGRTGJ7jMbniEidoPhB2WpTJfJ9NEyFVRvVBi9zDpQT5OMDlFpIt0apgzz5zpv7WZtKmPui3Tx2vsPDlNeISpcCJPIgrlUi+dP0yrZ+rkCDu0WKno9TYIdIgW+m1zxmha9k4ntHl6STPyURfzBF2lrXrLkCDe7kKfzTsr+JqHYvYV7Ldsjk643R8JcK8V3D1vm9Wp1UafSwRLyNI2GHTOEra+f7Vaxou17S0gBgsp/ElmDDgVzFZD9JzgANPzS/qmNhEpxhSr8goucpCrdKFPvZChUm+0nmFRquEFEmTFyLROGrJbMReJgghZdpsEhEz9MUbhUpPGbtlOcTZuM5tkpmNpjXwlcy8V0JKlkn3/S1MIltURrXiEgdpQDHk++s1SjNlSixjyPlGzMPpfM+4g+mzHnqKCktPPm+WgxK1kybBQB/GStOIqteKJeseno/TjLHLdaTyjApLQolKmQGooJA4TGr6X84TAovUn/O/Fq7N0i+9iClnhJNXwmQuC9OhVUuBKXzPuL2zs/XaOJTifjuUbOxqQyTwsvUnzNrn/pTjGSeI/krMwAonJWJ3zdIeTPqpenLARJ2D1JhzmoEnfzKz944FeZqlD7Ek3y2tCQvE5+KJH42se6+m/hMJK49TKn5i9BPURJaYzQxR1TLxkhsDdJoxZp3P0GKU6L+yeY7oPZzjMS2+bRqVDivEL87ToW5tffNWutNnBCJawtS4p61364FF/OXi5EkBGjYChZq9+LkE5SFdm1NmTBxLTL1W+0cqaMUcFptmZqioCBR9CerTrzI0+BennwXSs3T+jlGwo4YTbyw9sO9BIUPDS+Ue6ENomlKdPAkn8ov/BAb/1QivtfaD5kwcbxMsUxjwMmT9Nm4ufycSunDIomfTqwRhNFieTZ6DqwZAEzTcAdPyuX5i61K6VNB6s+oRKTRaDe/0N6uVKL4Ho6E7gQV5vfNWsesHCefM0Cj88Wfy1P/DoGiP9XWvmatFgDMFSi+myflgrUPtAnq38MRZwUAa56vc2kKz9eH9fL9Cl41AFj6CEBTobU4wLesc9tgXwKFShqxdvOr0KHAW6+gMgMYd8eR5YOIdvAAAH5fAvnKOGJt5rKcEEDfYQkcALT5IQsqqipg3E0j2xJE30HRXNCpIPqhiNzNbPPbXxvJa72I7K0y/IeikDhzkngwAsUYR/aetYxNQuiQbObHJkHazkNVmz884CCi50MF/EbTZv66bBICvVY9bZcgciKUbquetIoQeRVqFUBLAKMPK0geEsz12hUo7Roqz8w6xO2JY+RjHfFPQjh6wUDsu0HIXPNNSqdy0O7Mz+fh75KBpxWodcCYyqHQFkBkv3leCb39iOy0VqwXkc2U4f94AD4eADiIH8WgVLNIPwB8F0rQnmsrP1ODkG0GtFmAa1maKXsLh9rsBm482wB+fwTBVvMrJ0kQZ1VUZ4H87SxqXVFE2qx5O6OI+irI/dz8mXb+Vha1rvm0OMinxlGZHIRsW3vfrLUeAHD7o4jtsfabz7+Yv5tZaN0xRHdy1rGKISoXkLm9sfu2XKuCkNXOwemB5LTasslx5PgAot1WnWjxIfqhhOLtXPNnx+/wcM3kkbmeQ7lqgNvTj9RYbCH/C55lkb0nIfKJD1brisCRAFyTWeRmYdZN3o9gr7CwfGZKQvR4wFzeJiD4SRC4nUF+I32kNnoOrMkBh8ChcnsMmV8q0CEgeCGNxAFhAxkweXojkK12fs1jtiOM0I78wvEzJtPI1EMId3FrXrNW9SyP3CMJgQPWPuAVRIPSwuy16uRyr1rX3pSlVczhgmO2DFUH4FxjLb2I1Nk4xqYqqNk4oK6jbPBQ6oA+U4XR4gXXkDLHNzQuLQ40NjXzy+kzVRiPs4hImcWZ9Ro4SYNan0LSF7SeSdrRc6WE0Q3lVYOqc3A5+YYSO8DzOlTdatxsdnCNGbIBqK/S8Nkc4BeS2kDazF9XY72wARw42BfqCddQh6vIfRfHxUweWp0DbAaqjwzIDUnJx6KQLkWQ60ojvcOa+PtFdHYlUKoDsPkRv5dGRM8gfjaJ3MOa2ZrrFRj1KAwAuq4DDhf4hfPKBfHd+VxoUHUDudNeuM8vbrcGIPR8vYJycLQAxrKLfW1Wg51fJVJZxt7CYemSBgAD+owKe2vj+c6Dd3LQda1J+VNwzKhwNC5v4xYCfOPRavvG3M5q6wGAg189f/rtKDyT9sVZsxwEnwpgAxcobo22jPc2HCvAwTsATYdqTGF4/7K2rDeO7I8uJL47h9CZArRWBdHTCcQPiEu3p+vQ0NgGAXC6wNeL0KzfLBzvgqNx+XoRiW43RubzUq+hZiiozgJoTKeZDZ8Da+ERvpID/nURyc86EX3MwXsghviFmBWsLsoedyN6swYAcB3OoHCBB8CBX2hj1ztmMiJhL+I3xlH9KILSjQy4AykoHNa8Zq2qyf528IvHfPU6udxrqGtvyNIAYLcChR/B2A9lRE9IS5f8PYmBy3ZEL4Whn41g4EEU+TtpSC0Ano2gU0oBAHinAG5GhV6fT91A9VEFEKQ1i8k7BXA7Ykjfi6+MfAEM3S6jr24A4MA5OcDYQF4vSHDxBvIzOhZqe12DrrvgcG6s+q7O8QbTZv4qjFtDiFzSEL+bR7SdM3sRv+fH4m9cHbkzcVQODCIwOYShOwqGu3igPYZ0MQKjDvOC5Szj4oEYch1ZZMfMX3jGjRBcZ8xUuBYeeKFbywOACrVqAO0A4ILLySNwsoT0oZV1b+oLDwLfqysz3z6A3OQgJElEpVyGAeuXDioo/m5AOuR5hT3Dgf//2bvfEKeuxPH/byELNzALNzBCAgreoNAbFJp8K2xC54EZpmCCBRMUTFCwsUKdUfg4s4WPpj7oju4Pd6bLz066sPUqtCRCJRFWJgMV44MpyYL9Tgotk4IysVRIoAO50IFccOB8HySjGeevVau7c14QmOTee+455/45555z7pxuF83ZBq2rtpUXtVlQNccy6Vcodruo1TvWnzep3rdwvNEgdXSlvGntZ/ntVrvjtLZTD11m5rPgc6RzKbXbiWJ23gOhMdtoPekr/qX3MsC5p5+RPf2MYFG9MUT0vQG03eMEFgWs4qCBOcuTh57ZGqbNiWu5wrxbxaEESNy5/bgF9qVop7H5uDC1aFodxWCXTuyjy8Q+AmZLjB6JED+nM3PJtyiY0MUpKucsLJTW+d6+ip6c0WsfM+f+GIGPc4zfd1GaUInf8ANQWqXMWpGqtPK74yGz1j6focLoiufk017eufa8FncBdIU4eyFE9VyU+N/zVGYtsEwqE6NE9w9RUJy4bNAwGyhbdLQuYL5O/rMc0/MWlgXKnjDBuRxjN1pNG+Y3w4T8A2TXeB1O2RMlNJsjdbPdJDJfJ3cmzlD7u9Kt4nQ6cTrVVs16PXFVvIT26RSvGVTa52P1msF4V4jI7rUzR7GBZTaWf5vA9nxhS/8drNkalqrh2aIAFtVrBvmHYLafqM2bQwyUQox8MkzqkyCFU0PkZ2kXes7WOd2tosxPQocIAAAgAElEQVSbNExw7NBa1cnZEqNflrEskyag7vah3x8n90M73Fsp0uV2JGw6oXc1ildTlOdaP5nfphh4L0XZWqsLAPQDcXx3Rhi+Y7bScP08xr0Q8f1OwKIykSH33bO/UxPYF8J+yyD9oJ1XPxhkShqhvd6l6W+v77iVwvix9YRe+XsU36ExqtbqebPidms0cwf2h3BMpDDuty/g2QLn3xsgc7+dh9/lyExUnnkEvrInTNDMYyw075oljK8qBPaFcLL0Xla9Gqf3eKYdXwVtl4bDZrUqNJ33oC0hIv4K6Sul1vf5OvkreRp9YQLLdYU6Q0T80xifFdr3MIvK1SHif21/r5fIfFmg+ozpW6LbhYsqlYV8vJ8mt9ANahVIBsOc/3f7/OnW0bd1PAXbLBoLLaZdKupCvqzQtbvWMcMZJd5TIfexQWFLnNibrZ9XK7NWtCWIf1uF7MJbGPU86Vy7ar/G9QoKdkzMhrW+eL8qyw0MmMmPiESfLpxdCBRVaG9FxOCVqceD35rlMRF7UxPaTq/w98XESGFKXN7vFM6dCZH+uTUCNvKWJpxOp3C+0THaMhd7PDhHCCHEo6I4u9MpEvnW18Zk6y2A1mhRXQTXMWJ1rbg+Hqn/Rnuk/p6EuHy3PQSmdlmE1KAY+/lJeOPvO4X+52Lry90REXSqwvlGTKSnlq67athyEOB/jGUHAXYe60dZEVO9Yvj7he+3Rf8WXQyWhBCNohjepwvnNl143w6KxD+nRPGCXzidXjGY/kLEtutisLAw5Ko1aEs7/GS0eKeZTEL4tzmF/qZfBA+cFePlrEhsV4W2f0xMP2qK4icR4d3iFPpbfhH6n7QYOaQ+HgT4+C2AhZHkzzjKeCY3KEI7nULtVoX2VsfbLKImxvoU4b2w/AC22//z1GDBe50DwprttwCejHwezEyvMgCtIaYutd50cDqdrVHV5eY68mbl7daM35V+EdypCe0NTWjbF795NPWRVygLg7qetta9rP0WgL6z9RZA5KNxUXu0XEBCiEZRjB32t0aTt0eo9y8MlO68B/0snrwFsDCq/9BI662l5eIkxJO3ANrnxaK3Q77uF86umMguF69nuQZEUxQvRoS+XRfBvREROTkmRg5rjweWzuQGRejNdtq268J/YFjcbmfqzD8jQlNVoe0bEUvPsGkx/JYqYl91njGrHzMhhGjkYsJpU0TwsydHbtUyq7ryWwCNyWER2elsXd99/eLyhYhQ94yJGbHWOVkT2fd1oXZrwv9RcV3x/i2edxCgnA5Y2vD+M6cDNslENMb8UxT/rK29+nOwJgZI1JOkj766vspXYjbDsXMKY59F1tnf/Z+mSupICt+VEfzLdLtKrz85HbAkbQRzeY5pbuLX2yOcf0yTLrkI+F9u4Q9Qmw8wsG+DFf6A9VAhdDz0X1r4A2Ydx4F+WfhvYLIFQNrw/lNaAOo3kyTOZJiaA7viJHgqxcgH3jUHc0uS9N/pee9dsgIgbXj/KRUASZKkTrILQJIkSZKkZ7bpp59+ki0AkiRJkrTByC4AacOTXQCvH3lMXj/ymLx+ZBeAJEmSJEnPTFYAJEmSJGkDkhUASZIkSdqAZAVAkiRJkjYgWQGQJEmSpA1oxQpA9dNeXJvdhK/Wf8/4PD+zjPFhlMAOB3a7HftmN4GDQ2R+w2xmS9UpXM3/5tmzCidceE6X1ljLJHPQjcMVYPTHxUusa1Ec/vNUnvr75bGoTpzn2Ds+3A47drsD165e4n/JUV1tFq0HKXodYYw1ZoBkvkxyl4P4zRcZ5xelwmgwTmbuVcdDkiTp5Vi+AjBfxviiycAnEWpfpp9/usjfy1yJZF+Q8z/6SN6o0mg2aZSzDG0vM9gXZfSH5wy/Ps7ox/k1pxl9Lg/SGPcipE7ZSV9Zq7LwclU/jxI4Mo5yKMXtn5s0f61R/jyB4+sEgXdTVFbKh20JsvfSxLtXWL7A5iU5WcXY+6Jj/jwsSn8fIPl5kRoW1ZujDJ3J/OdcA5IkSeu0bAXAumOQc8SJHUoQbaYxvl283LxznvhuN27NhWtXmKEb7dujVSFzqheP5sa11U3gSIrSwoN3vcD5gz48ugeP7iHwXopy57KID7fmxq258QQHMH5oz+199Ri9u9y4d7hx7/AR/UuBldokqv8YZHQuQTpzltDO1hzjyhYvkQtZcpdieLtaj631O+eJ+z24dQ8e3Uf49JMn2sIpN77TBqMnooTfCeDZ4ePY1QrM5RnoS1Kopzm2O8zod1A44cZ3apShHjfuWAZzjbDXo3zFoBGJEzscwXXTIL+eJ9CFfN/hwaO78fTEGf3GhPkSyV1uBu4srFdgYOsm3KcLCz+QP+7G95fy0jDNHMlzUwQu5Rg76m/No21TcP4pxtj1FIHvkySvtQ7gknx4YBDdESc9C8xXyZ3uxb3Vjcfby7FPDYa8Lo7dAubLDPdoJCZaf5/f7W4tPximt8eD2xtl9NtnnY39eSl498cJmHlyk3nGSyqhWBDX7xwLSZKkl27pDMENkT6kiUimNVPxzKWg0D8YfzKH9y9pEduii/6vW8sbk4PCqwbFWLU1f7Zz75iYbgohHs2Iy/udQjt5WzTFjBjrU4V+crw1//Gjmsge1oT2wW3RFO3tDmXbcyM3xfSVfhH5+LZoNtIi0u0Xw+25vcUvt8XwoYS4fG+5mY1r4vJeRej/W1x9AuRaWkScukj8qz1X9K9FcfZPqvBfbM1GffukJpTt7bm3hRDNfyWEc0u/uP1ICDE5KLSFv9vrqttjT+KzVtgfOIX+P6vEr3lb9L/RykshGiJ9QBORL57MGN3MRIT6p2Ex/dTfUx95hdo30sp3IcTMFzGhbUuI8UYrjo/njC+dFd63g8Lf3q41h/nCnN5P+TohnN0xkf112YiK7GFVqIdb58WSfKiOiaAaEpd/EaKRiQnn9oTI1lppKv6vX6hdTtH/tXhq7u1pMfyWIpz7xsT0o9Y+in/WhXog/dxzZq9lyZzaj2bE5QNBMXhlRET6zorisnkgvUzPO8+59OLJY/L6ed5jsrQF4EEa426QxL7WHGPaoQT6hEGu3Z9r3Rknr0ZI7GktV98eoVgdp39LhfzNKoFDcXQFsGkkMlWmLwZRHubJlXQSJ0KtmctsTiLHIzCRozgP6mYH1vdZjJtl6nMK+tExsh8FURQnLrVKIZOj9KMJ3UHOZi6T2L5cVaZBvQHq5tWnLbUmxymoIRJ72+t1+Ukc1ClPtFsWbKD2xIlsaS1WdB1trkZ9uSdxG7A7Snz7OsNeg3nDIK/HiG4DUIkcDVJeqwtmvkz+ZoXAoUQr3wHtQJygNU7+LgT6/NT+XaQOVCYLON7tJ0iRwkPgQZGCFST05jL5NNvAVF24lp0LVcHV7cAya1jL5EOnqckC9MWIOFtp8n84QHCV6Ud9++PottY+dF2DWo3Gaul/GeZBOzxC8uggI3/2obzMLh9JkqRXZEkFoHzFoPgwS1xz4NjswKH3k6/nMa61iiFzto7V5UDpuIkrqgLUqJngUDsmJ1UUFAUwTRrzZUb2LjTlu3EfTtO0GtTnQDuZJX9aY+rTBN6tLjyhITI/WKAEGZkwCM1lGdyn4dACxP/aKkzNL+O4XK7WJzhKBRdOB9R/Xr2oNWfrWKoLtSP+DtUBDZNa+0Zv71KemgN85WZoh6o+Xnc9YQPw4yi9W9tx3xrFqANUSV/NUbs1hL65lfeuI1lqkwaZ71ZLUYOaqeDq7sh3mwNVNWmYFkpPmEClSNGsU5y08PeECO6uUiyZ1O8UqPuDBBTIn3A/zk/fhyWUbhfqbI3askm3qM02ULpdj9PemQ+d65mmhaPb8eSnLicu1b5CWhTUro5QbK9oJnZFI7ivNc2u1hfBK+fblSTpv9DiCoBVwLgGg6UGjV86Pv9KUP0iQ2Ue1G4nymwN83GBZlG/X6E+58ClWtRmO0bbm1UqD0zoVnEoAZJ3Zpi51/5Ua9RqaWIqgIr/6DDpr6eo1cqMvVmk/+goFUDZHmLwsyzFew2qNxNwJc7gdQv1QIpKuUy5XKaS60dHJdjnpXbTIL9kwL9J4S8DnL9jtuJvdsYfGrMN2KziWuXJdEUd26w77O39ZNtxL5cN4k7guwxGNcH4L4vzvvhnSF8prFYFWZrv8w1M04WjWwE1SHBXicKdAoV7PgJvKgR6vJQnCxQmK3j3BlGA0MWpdn5WKJzzw+4gQSWPcX2ZCtVsjuwthdDewJNCf9m8U1C6FCyz4xl+rk7NbK6YGkmSJOn3sagCYN4wyKpR4jsXr6T0RAiZaYxJC2VPmOBcjrEbrYLB/GaYkH+ArOkltE+neCVFeQ6wqhjHewlfnMJyhoj4pzE+K9AqpiwqV4eI/7WAiUnuRID4PyqtQk5x4tFbT5bW/x0l/M4Q+XYZpG7zoamtwYEoKqrTidPpRFVbxZD2/iiDapZEZIjMt3WsebAelsicDhH/Zw3nVrUVfzOPMdEO1CxhfFUhsC/E6p0HgA0Uq4G5Qmm87rBtCmp3K+7ObhUFi8IVA3NvhMBTD73eSBTlxnKVmoWw2vl+zaDSjlf1msF4V4jIbgAnoT0axU8NSrtaT/uKP4A2mcIo6YTaXTl0LeSnitoFqBGGPw4w9WGIgaslqnOt41b/NsPQ/kEKu4cZ3r/2o7HP76NxK0fBBDApfWpQlE3qkiRJr1xHBaBK+moeLRJp98F2UAJE9lmkr+Yxu2OkMgmsiwFcLhf6+yWCn12mfxt4z6RJ7SoQ1124tF5Stn7SF4IoaPRfSRN9MERghxv3Dg/Raxbh/QFUVEInEjhuRPFore6B4D8Vkp/24/0/cQZ7qiR72t0G3gTlPcbKBU+Xn+FbBYbfqjJ2SMdh34RjdwLDDGNMpltjB7pjGJk4zQtBPLs8ePz9VPamSX+grZ1bO0OEtuVJ7PAwcHOZWsBvDdvMY1yHyMHg0mb0NyNEnSs8ibd5z6RJvZEn6m29BRD+0sHwtRGCXa3lWp8fJotoPf7WGAxngAAFiluDBFep9WjvZyleidK4liDgsrPJ7sB71MAMGRS/SqCto8XEeWiEEf8Ux3a58fnjpJ0Rws6VugAkSZKk34ucDlj6fVl5jmlDqDemGfnTq45Mi5zm9PUjj8nrRx6T14+cDlh6vf07iWdrmNT99v9guJGmYAsQ3LnGdpIkSdJLJSsA0sv1pyHGTigYfRpuzU3gE4vEFyOEul51xCRJkja23zLuXZKegUrwf7NM/e+rjockSZLUSbYASJIkSdIGtOmnn36SgwAlSZIkaYORbwFIG54c3SxJa5PXyetHvgUgSZIkSdIzkxUASZIkSdqAZAVAkiRJkjYgWQGQJEmSpA1IVgAkSZIkaQNasQJQ/bQX12Y34asrT0LzWjLLGB9GCexwYLfbsW92Ezg4ROa7labTexZ1ClfzVH/j1oUTLjynS2usZZI56MbhCjD64+Il1rUoDv95Kk/9/VLMlxjasYlN2gCFJfMeVUkF7Wz6Y5TcyvMUPzFbwri+ENMK53c7iF9fz4Zrq38exvFOihd6li6k3W5vnUN2O3aHC9+7Q+Tud8bbojpxnmPv+HA77NjtDly7eon/JUd10WoVcmeiBHQXrq0uXC4Xnp4459uzRlb/HsC+aROblvvYwxhrJM76MUfySC+ere1z3uUhcHAIo+Ocr38eXnEfng9L8G0Szx9WiMMmO/EbK++//nkY+x82Pckrux2H3suxv5dYiEH1bwHsyx2nH0cJ/LGX1EOTTMS+wv43Yd+9+rmeO2Jn0x/a+/+jHYfmofdIcvF1/8N5fPYVwu8ZbV3XP5zH98deUg+X2cnCebHCccqY60jDmmGsdqQl6cVavgIwX8b4osnAJxFqX6Z/c4H3u5srkewLcv5HH8kbVRrNJo1ylqHtZQb7ooz+8Jzh18cZ/ThP9WVOZ/sgjXEvQuqUnfSVtSoLL5uGZstjTDx1V/ohQ/pnF+uYPxEAa3KM5PUyL6bI/70oxL5o0Gw2W59qgSFnnviBYcrt41/9PErgyDjKoRS3f27S/LVG+fMEjq8TBN5NUWmvV74QJXFHZ/hWldrPNWq1CukjYByJk3oA2v8UaQqBEAKRT6Bu6ef2o/b35jiJVWZstL4bJdzTT2lLP+m7NZrNJo27aYbeKJPsiy6uRL45zNRCuB2f6Yt+eGuY6YVljTShLi9nywvrNEnvXyO7dg5T/LWdV80Glc+DVC9GSFxbb4mmEss1H8ep+Gcd5UD6cb40755FX3V7BecH4639/9qkVkrTr1dI9gUZ6Dx/bUHGfl6aB83JwXWezwqxr5pLthfNcWLqetOwWhjrzC5JegGWrQBYdwxyjjixQwmizTTGt4uXm3fOE9/txq25cO0KM3SjXUWwKmRO9eLR3Li2ugkcSVFauPbqBc4f9OHRPXh0D4H3UpQ7l0V8uDU3bs2NJziA8YMFWFSuHqN3V3s64B0+on8prPi0V/3HIKNzCdKZs4R2qiiAssVL5EKW3KUY3q72hDR3zhP3e3DrHjy6j/DpJ09shVNufKcNRk9ECb8TwLPDx7GrFZjLM9CXpFBPc2x3mNHvoHDCje/UKEM9btyxDOYaYa9H+YpBIxIndjiC66ZBfm4dGy3k+47WdMCenjij35gwXyK5y83AnYX1Cgxs3YT7dGHhB/LH3fj+Ul4hYJXgXp3Cl/lFeV7OZLH2BBdPB7zS8f0mSfBUjvqtJAF/kkK7ULQepBl4x4d7qwPXriipbxcyyaT8j9Yx9+zy4N7Vy8DnTyoP1rejrXNP9xF4d4BsR+aa/x5t5f2O1nm06Px7XqpO7EyCwP0ChfuAmSN5borApRxjR/1oXYBNwfmnGGPXUwS+T5K8ZgIWlR+rOPxhglsWJntW8b5vULybJrHteSJVJ31umOo+g+yFCF5nK3xli5fIx+OU72bpf+N5wv+tFJxvn2VwHxQmiq8iAihOL5H/zTJ+WsH4cORxpU2SpCeWqQCY5K7m0Y/G0Ww6sZiD3JX8k6e32Qz9R9I4LkwxU61R+YdO4b1jpB5A+UKcwfsRspUZatXbJOaGiZ8rYFEldSRK2jlMsTLN9PcFhuZHiZ4pYAHlz4YYU5JMVWeYqU6TPQz5G0UsM0fyw2mCX04zc2+GmdIIvkqG8fvLJaVO4U4ZbX8U/5KJZlT8hxIEtylQz9AfS2M/U2CmMs303RTeUoL4p08aGCs3C7jOZBn/usjUJz7Gz6UoKCHG/hHH1R3n8t1xBt8EbFCdmEK/OsNMJoa6jrBXZRUwrjtIHPbCljjxXQWMG2uXYOULcfp/DJH9fprpygzjxyF1eIj8nJ/gHijeaRfw3xUobgviLJVazanzZYolhWCfd6UI4dwbJ3DXIPugI443FOIHOp/HVjm+bw9jnPCi9g1TLA0TtLXCLUxUiWSmmPm5iuEvk7yYwwSsiSTRCw1iN2eY/n6a6WshKmfiJL+xYL7M6PvD1A+OM12ZovhFhOqtYvvcrJI+M0z9yHjrXLlXZMhZIHvnBXYOzEMTWjNo3M1TmA8S37fM47kzQrwPCreKWCgED0Tgapzw6RSZW2XqcwAKzm1OlKVbr59VpFBSCB4IsvTBUcG5TX2+8J+LBfOgvOLZRvRDUQIP2pU2SZIWWVoBeJDGuBsksa91S9EOJdAnDHKzrcXWnXHyaoTEntZy9e0RitVx+rdUyN+sEjgUR1cAm0YiU2X6YhDlYZ5cSSdxItS6UdmcRI5HYCJHcR7UzQ6s77MYN8vU5xT0o2NkPwqiKE5capVCJkfpRxO6g5zNXCaxfbmkNKg3QN28SnspYE2OU1BDJPa21+vykzioU55otyzYQO2JE9nSWqzoOtpcrX3TfooN2B0lvn2dYa/BvGGQ12NEtwGoRI4GKa/VBTNfJn+zQuBQopXvgHYgTtAaJ38XAn1+av8uUgcqkwUc7/YTpEjhIfCgSMEKEnpzlfA3h0jsrZK+1qrEWBMGeS1BZEdH0bLG8V1O4PAQwe5WOgN+HWo1GkBxIk+zL0F8W2s9ZWeChL9K4esKPCxSuK8T2q+3CjY1SCKyUBFx4HAqVCcy5P5dxcRJ5GKWkf2rnw/rZlbIXDCovBkltA2s2Qam6sK1bAmr4Op2YJk1LMB5IM3UrWEC8wWMD0Nomx24e+Ikr1eer1tkroFpOXBu7ojEN0l8W9tjDba68Dxu7QF+SBL4o31RX73dsXSsyfOzqN8ZZXTCTnh/4EUH/my6XaiY1Bbq0fMFhnY8lQd2B+Gr620qssgccTy1vR3He/lniNSLCEOSnt+SCkD5ikHxYZa45sCx2YFD7ydfz2NcaxVD5mwdq8uxqGavqApQo2aCQ+14FlEUFAUwTRrzZUb2LjTlu3EfTtO0GtTnQDuZJX9aY+rTBN6tLjyhITI/WKAEGZkwCM1lGdyn4dACxP/aKkzNL+O4XK0BVa7gKBVcOB1Q/3n1otacrWOpLtSO+DtUBzRMau3Cyt6lPPXktPJt2qE+ecpaT9gA/DhKb3swmGtrtD3Iq0r6ao7arSH0za28dx3JUps0yHy3Wooa1EwFV3dHvtscqKpJw7RQesIEKkWKZp3ipIW/J0Rwd5ViyaR+p0DdHySgQP6E+3F++j7sHHugEjwSwcwYlCyT3LUS3sPRxf2laxzfpRTUro4cti38bWHO1rB3OzryX0XtVjDNRms/OOg8xRzqwroqsX8WGN5dxTjZi+by0Hv8eboAnrpJ7wgzMhcnfW0Q3QZKtwt1tkZt2VPDojbbQOl2PU6H+laMs5ey3C7XaNamuHzETv54mIGJ56gCdLlQlRr1zkj8KUmhXKZ8t0z6gIPGXMeyRf307U+jyOCL6CborFz80YH3RAH94yxj+zoO1kILyiIveWTIwxo1VFzd7e+2ICP3nsqDZoPxo+vtfH9qbEj707gSeoZIvYgwJOn5La4AWAWMazBYatD4pePzrwTVLzJU5kHtdqLM1jAfF2gW9fsV6nMOXKpFbbbjjmtWqTwwoVvFoQRI3plpN8/OMFOtUaul24NeVPxHh0l/PUWtVmbszSL9R0epAMr2EIOfZSnea1C9mYArcQavW6gHUlTKZcrlMpVcPzoqwT4vtZsG+SU3fZPCXwY4f8dsxd/sjD80ZhuwWcX1W5orO7ZZd9jb+8m2414uG8SdwHcZjGqC8V8W533xz5C+UlitCrI03+cbmKYLR7cCapDgrhKFOwUK93wE3lQI9HgpTxYoTFbw7g2iAKGLU+38rFA451+0B+VPceJKnvSNNOnyk9ahx9Y8vuuloHa7aM42OtJrUptttRKhKjhoYHYktda5bpdO7KPLjN+doVExCD1sdUH9Nk/dpH+ZYeqrs4TaLUPsDhJU8hjXl6lwzubI3lII7Q2gWHVK1/NPxrsAqBrB94fp99eY+vY5htgqAcJ7YPzL3JMWJpuC2u3E6XTi+D3b/zsrF782qVVuM/a+93EFyOF0ofxcXTIexqpMU+3S0LqXhPgCWJQzacpvhAkt22ooSRvbogqAecMgq0aJ71y8ktITIWSmMSYtlD1hgnM5xm60bjnmN8OE/ANkTS+hfTrFKynKc4BVxTjeS/jiFJYzRMQ/jfFZof1akEXl6hDxvxYwMcmdCBD/R7s5VHHi0VtPTtb/HSX8zhD59t1N3eZDU1uDA1FUVGfrRqeqrduM9v4og2qWRGSIzLd1rHmwHpbInA4R/2cN51a1FX8zj9F+BQuzhPFVhcC+EGs2FttAsRqYK5TG6w674ybt7FZRsChcMTD3Rgg8ddP2RqIoN5ar1CyE1c73awaVdryq1wzGu0JEdgM4Ce3RKH5qUNrVetpX/AG0yRRGSSfU7sqhayE/VdSnx1DYvMRiLvLnRqnuixF8evmqx7fVD2yZDdbzMB7YF8J+yyD9oPXd+sEgU9II7fXCliD+bRWyC28U1POkc+3xFVaBZDDM+X+399Kto2+zr2OPv5EaYfjjAFMfhhi4WqI6B2BR/zbD0P5BCruHGd6vgq1G4ZM40RMpSg8fD2WkOjGGcddF4E9rjD2fr1L4MkNp2YYtldjHw/gm+4mcMCg9aIVv1SvkPz1G/+cNPLvW+67G6szvcmQmfnuXhbovQRSD5JkclVkAi/o3KRJn8rjeTxBcq7Kyaj4sZc1WyP81TvQf0H9xcI03CCRpY+qoAFRJX82jRSLoTz8JKwEi+yzSV/OY3TFSmQTWxQAulwv9/RLBzy7Tvw28Z9KkdhWI6y5cWi8pWz/pC0EUNPqvpIk+GCKww417h4foNYvw/gAqKqETCRw3oni0VvNx8J8KyU/78f6fOIM9VZI97WZlb4LyHqN1Y11Ol5/hWwWG36oydkjHYd+EY3cCwwxjTKZbYwe6YxiZOM0LQTy7PHj8/VT2pkl/sI4b5c4QoW15Ejs8DNxc5lb4W8M28xjXIXIwuHTQ1psRos4VnjTbvGfSpN7IE/W23gIIf+lg+NrI44Ja6/PDZBGtx9/qo3cGCFCguDVIcJ1d5NqhGLqpEoktE8dVjy9oe6IEvk/i1eNklnu/uoPSN0L2jIPMPg+eXR58hwt4L6VJvgXYvAz9YwhXJoSmefAdyaMfDKHMQ1MJkjipU/zA1+6GCDA8m+DymeD6EvgbaO9nKV6J0riWIOCys8nuwHvUwAwZFL9KtN6SsHk5eyNLf1ee/h5Xq1tts0b4QpXgP28z0rdGyTdfJnUiSXalcaRv9JOdNAjPZUj0uLDb7bi8UYYnVeI3ytw+2VH0fZdsvQf/h8Ufe8/omv9PopobJvFpcV2VuGWpIcYmDIL1EaK77Nj/6MJ7Mo/9eJb8x/61ByuulQ9Y1P8Rftxl49oVZbiscXaiwMiejtDnCwxoS/Ng0x/DGLMrr2OPZB5XbjMx+9Lt/+Dg2M31ZsaLCEOSnp+cDlja8F73aU7L5+IUYukX01f/W81mOHZOYeyzyCt7s+C1yIcN7HW/TjYiOR2wJP1Xq9PQE8RfcdyQDlkAACAASURBVKFnPVQIHQ+9wtcKX498kKT/JrIFQNrw5JONJK1NXievH9kCIEmSJEnSM5MVAEmSJEnagDb99NNPsgtAkiRJkjYYOQZA2vBk36YkrU1eJ68fOQZAkiRJkqRnJisAkiRJkrQByQqAJEmSJG1AsgIgSZIkSRuQrABIkiRJ0gbUUQGoY7zrwLNoLvgFJpmYC/fx/MuevVuSXivVT3txbXYTvrrOaeheosoNg8Iq0cgdsbNp06ZlPg6OTfx+8eSH8/gcUXIW8CBFr6Njoh1Jkl4bHRUAJ9GjIRrXDPJzT631MEt6wkHslf4vcEn6nc2XMb5oMvBJhNqXaaqvNDIVchdTq1YAQMF58jZCiKc+DS7v/b3i+ZRtCbL30sS7X9H+JUla0aIuAHXvAPGuLMaNxZN+Vr40KO5MkHgL6hNJortb0/O6NB/RcwXqAPNlkl43x/56nrDuJvz//f9EN3sY+ndHQGaG6GYPyW9ffsIk6XlZdwxyjjixQwmizTTGU+eteec88d1u3JoL164wQzfaVQSrQuZULx7NjWurm8CRFKWFS6pe4PxBHx7dg0f3EHgvRbm9zPwyiqNniNHTUXrfCeDTPYTP5KlTxzgSZeTbCsYhH/HPf2NV5GGKXkeU818mib8bJuB14wklKSw8na8W7wd5ku/68Ozw4NnhwXfwPPmFqZ1nC5x/14Nb8+DriZK8VXuyzwcG0R1x0rNr79/6NkV8txvXDg+Bd4fI/C2KI5h6xRUvSfovJp4yfcEv1L4xMbPww6MpcXanKiJf1IT4dVwknE4Ry9Ray+6NiaCqicGCEEJMi+G3FOHcOyKmfhVCiKYYP+oU2vvjotkOqvFFRKhvDYvpp3cqSa/QTz/9tMyvDZE+pIlIpiGEEGLmUlDoHzw5l8UvaRHboov+r1vLG5ODwqsGxVhViKmPvMK5d0xMN4UQj2bE5f1OoZ28LZpiRoz1qUI/OS4aQgjxqCayhzWhfXBbNIUQzUxEKDZd9OdbYYpaWsS2aCKRbwrxKCti3V5xtrxyOrKHVeE8eXvlFWqXRUhRhf/jqVY6Hk2LkbcVEbzUutpXi/fIHlV4/1wU7dSK8Q90oe67LGqiKW6f1IRz/2Ux86idpvd1oXRFRLYphKiOiaAaEpd/WWP/j6bE2TdV4b/QWta8d1nE3lCE0jcmaqsePen3svx1Ir1Kz3tMlgwC1A8nCJQNMj+0vlt3DDJzURL7ndAV4vK9KsYhZ2vh9iDB7Q2qD5+0GHj2xfF2ASgED8fhZpq8CVAne72ALxZDf+nVGkl6Tg/SGHeDJPapAGiHEugTBrmFp9U74+TVCIk9reXq2yMUq+P0b6mQv1klcCiOrgA2jUSmyvTFIMrDPLmSTuJECBXA5iRyPAITOYrz7f1uCxHva4WJM0LY36A4WVlnpC3q/whjt9sXf/QhSgvh23Sih7ytrjybjr5DpVYzYX71eOfv6sSP+2mnltCREK7JPAWzQuFOjcD+KJqtnaYjIVwrRXGl/T8sUrrvI364tUzZnmBov7bOdEuS9FvYlvyyJUpib5LklRKDn+jkr2ZRDuUIdQHUKXw+zGiuSGNeAZtF/b6F9/HGCmq3+uRbT5yYM4hxvU5kb5bc3QCxz+RFLb3+ylcMig+rTGnZx79ZcxbmtSqxkxrmbB2ry4fScQUpqgLzNWomOFS1Y4HSKvBMk8Z8mZG9blIL2803aVpB6nMLYThQH4epoHZBw2wsiV/+hJvEjSYArsM5pi76AQXnB1lql4IrJ8xmR+kcyGMD5i2gsXq8cdC5iG4X6nyZhtnAnFMWb6c6UG0rNNyvtH/TpGFTcXQE49rqQpHdhZL00iytAKASOh4necigcMKPcUsjUfIDYN1MEv+kwfCdIontSqvff3eAzueTRYMEbV4SMR3f9SyFuRxTPQnSW15mciTpBbAKGNdgsNRg+M2On28N4DmTofLBWbRuJ8psDXOe9lVkUb9fhW4HLtWiOGtC+3kZs0rFdKB3qziUAIk7t+nftsxuActsdIRpYpoWjp0OYPG4nNDFKSrnLCwUlC51aWDPbJV4qyoOGpizwMJgvtkaps2JS3VQ67KomB3b/dLOl2fRpaDMmzTmgK7WT7VaTb51JEkv0bL/B0D5U4L4lnFGTxtM9SSIb2/9bs3WsFQNzxYFsKheM8g/BHNu5ctUO5QgcHeUgc+mCR6K8CJuVZL0Mpk3DLJqlPjOxb8rPRFCZhpj0kLZEyY4l2PsRmtYvvnNMCH/AFnTS2ifTvFKivIcYFUxjvcSvjiF5QwR8U9jfFZoF+cWlatDxP9aeFK8P8yTnmgP9X+QJV1yEezRAQU7Jmajfa11qahOJ06nitr1AhJtWyXeW0JE/BXSV0qteM7XyV/J0+gLE1B1An6V4vUs1Xlgvkrmap7a6ntbaluAwJYp8gsDKR9kSN2Qw/8k6WVa/h8B2XQS7/koTlQJH43T7vFH3Z9kSMsT0T34esKctxKkTnuZ/jjE0MSvy+9hS5R4X4PKfJTEXvkSofS6q5K+mkeLRNCfbh9TAkT2WaSv5jG7Y6QyCayLAVwuF/r7JYKfXaZ/G3jPpEntKhDXXbi0XlK2ftIXgiho9F9JE30wRGCHG/cOD9FrFuH9gccVY2VnEG2yn8BuD+6eUXj/MsN9Cth8hPYrpA96CJxb7n91AFjUP+1l0x82PfWxr/D/PRZbNd7/TBP6sZ+A7sGzK8jwXIL0ZzGcKIQ+NohbowS2uvH4B5juiRGwgfUsrQA2P8lL/XApgHuXj94PpwkeDMjXjiXpJfodpgO2KJ32kbAZTF/0v9xdSdJv8LpMc2pdi+K6FKBYGpQDZYHq3wP47iSo/ishWw5fA6/LdSI98dpPB2x9O0ryhsbgCVn4S9LaNmqvd51MxIXvdLs7ZK6M8VUFvScgC39JekmWGQT4olRJvdtL8nsn8U9yJLa9vD1JkvSfzknkwijFUwPoWy3sNgVtbwrjpGwLkaSX5XfoApCk15ts2pSktcnr5PXz2ncBSJIkSZL0+tn0008/yRYASZIkSdpgZBeAtOHJps3Xjzwmrx95TF4/sgtAkiRJkqRnJisAkiRJkrQByQqAJEmSJG1AsgIgSZIkSRuQrABIkiRJ0ga0bAWgOnGeY+94cDns2O0OXLt6Ofa3AvVnneJzObMljOuVtddbh8oNg0J9hYXzJYZ2bGLTpmU+9jAZc4XtXoYfzuNzRMlZwIMUvY4wxuzvuH/p9yGPrSRJ/0GWVACqV6MEjmThgEHx5ybNX6sUL0VofhElcCLP85ab1uQYyevlF/AfzyvkLqZWrgAAoBD7qokQYvGnOU7sVf2D8W0JsvfSxLvXXlX6DyOPrSRJ/0EWVwDm8pw/V8B3Ic/l9/1oXYBNRdvTT/pGmrN7Xe0VTcr/OEbvLjeeXR7cu3oZ+LxdqD9M0euIcv7LJPF3wwS8bjyhJIVZ4JskwVM56reSBPxJCvNAvcD5gz48ugeP7iHwXopyu5ZROOXGd9pg9ESU8DsBPDt8HLtaAeoYR6KMfFvBOOQj/vlvnDd8tbgCWBUyp3rxaG5cW90EjqQoteNWv3OeuN+DW/fg0X2ET+eoLtRqZgucf9eDW/Pg64mSvNUxO/oDg+iOOOlZsK7HcQSTGH89RjTUi2+Hh8CpHAt1GuvbFPHdblw7PATeHSLztyiOYAo5S/rLZlG5eozADldratpTBqn3XPjOlAGTzBE3bq392erAvslO9Jq16Nhyf5SAI0zy0wHC7/QS8HrwHRx9fP5IkiS9cqLT5KDQuiIi3RCraub7hbYlIi5X29+/HxHBbl0MTjaFqF0WIUUV/o+nRFMIIR5Ni5G3FRG8NCOEEGL6gl+oB9KtZWJGjPWpQj85LhpCCPGoJrKHNaF9cFs0hRC3T2pC2R4T6Z/b+/lXQji39Ivbj4QQj7Ii1u0VZ8srRPJRUQxuV0Tsq+bKCVkjrlMfeYVz75iYbgohHs2Iy/udQjt5WzRraRFx6iLxr1ornF+L4uyfVOG/OC2EaIrbJzXh3H9ZzDxqp+l9XShdEZFtCiGqYyKohsTlX4QQuZhQurxi8OvGk/gspOnRlDj7pir8F1pxa967LGJvKELpGxO11Q+P9Ix++umnxT9Ux0RQ9YrBQuu41P7VL7yqIrwfTT21ZVNMXQwK55uDovirWHxsq2MiqCjC+1GxfW61z/X/fToMaTlLjon0yslj8vp53mOyuAWgUaPR5UDtWr3SUJzI0+xLEN/W+q7sTJDwVyl83e7bt+lED3lR2n/rO1RqtWUefR7myZV0EidCrSk/bU4ixyMwkaM4D9hA7YkT2dLej66jzdWoz623emOROeLAbrcv+jjeyz9ZZaW4zlfI36wSOBRHVwCbRiJTZfpiECbHKaghEnudrTC6/CQO6pQnCtTnKxTu1Ajsj6LZ2mk6EsK1NHKtNG0JEt3T7o/o9qB316jXgIdFSvd9xA+34qZsTzC0X1tvwqXnYJUKTG0LEe9pHRfnvkHiO5dZ75skiU9g6Mth/MtdMzad6EF/+9zSCO3zUZ0syBYcSZJeC4unA3a4cMxVqJnAiv2YFuZsDfsWR+vGBoCK2q1gmo12qHYUpWMTGzC/TK+/adKYLzOy101qISbzTZpWkPocOAF7l4KyaKPlRw/kT7hJ3GgC4DqcY+oCgELsiwbpA8qy26we1wY1Exxqx2ABpRWX+mwdS/WhduSeQ3VAw6Q238CcUxZvpzpQbSvc9hXHovQpC2GaJg2biqMjGNdWF8q3KydFejFM0wSHq+P4utC2PnUO1XMMHE2jXSgyuHOF88vmwtlxHTm6FJhrYLYrt5IkSa/S4haAN4ME1QKZL5cZpf+jwdCpDJV5BbXbRXO20VEUm9RmQd3seLa9d6s4lADJOzPM3Gt/qjVqtfQzD9ILXZyiUi5TLlconPM/28bLcuBSLWqzHS0XZpXKAxO124li1lo38rbGbAM2q7hsDtQui4bZsd0vi9ddly4FZd6k0dHaUavVXsDgSWktSpcKv5pYj49ZjVq9I+fnqxjH+ynuMTCOrtIqM9+g3nEaNMzGUxULSZKkV2dxBaArxNkLIarnosT/nqcya4FlUpkYJbp/iILixGWDwL4Q9lsG6QetzawfDDIljdBe75o7VGxgmY3W2wTOEBH/NMZnhfbbBRaVq0PE/1pYx9sGCnZMzEb7xtylojqdOJ3qml0Y62LzEtqnU7ySojwHWFWM472EL07BnjBBM48x0R6uZ5YwvqoQ2BfCadMJ+FWK17NU54H5KpmreWqr7Ws52wIEtkyRv9FuOXiQIXVDNh7/HtTdPvT74+R+aJ1b5q0U6fLCUovy3+Ika3GMT9pdVyuZLzP+Ral1LlsVMrkK+tsBZEeOJEmvgyWvAWqHs9z+KoF9YoigZmeTQyN8roj2YYHCxSAqoPSNkD3jILPPg2eXB9/hAt5LaZJvrb1DbU+UwPdJvHqczEON/itpog+GCOxw497hIXrNIrw/sPqNFcDmI7RfIX3QQ+BcaYWVLDIxO5v+sOmpj4NjN9eOq/dMmtSuAnHdhUvrJWXrJ30hiNIdw8jEaV4I4tnlwePvp7I3TfoDDVAIfWwQt0YJbHXj8Q8w3RMjYKPjiXIdbH6Sl/rhUqA1Ev3DaYIHA6zSmSG9KG8MMnrORXafhmd3gPiEj+jeds7PF0ldKmE+SBPf9eRtgPDfl2k1UwIEXWnifh8ePUzWlSR1eu1KsiRJ0u9BTgf8H6T69wC+Owmq/0qsXUGS1m3tKTVNMhGNMf8UxT+v8/n9QYpeb57YvXES8v8CPDM59ezrRx6T14+cDvi/Vp1MxIXvdLs7ZK6M8VUFvWcdrSPS85nLc0xzE7/e6uKxfkyTLrkI+GXjvSRJ/z3kcKTXlpPIhVGKpwbQt1rYbQra3hTGSf1VR+y/X1eI4UsxEmcCuD4Eu+IkeC5N8u1XHTFJkqQXR3YBSBuebNp8/chj8vqRx+T1I7sAJEmSJEl6Zpt++ukn2QIgSZIkSRuM7AKQNjzZtPn6kcfk9SOPyetHdgFIkiRJkvTMZAVAkiRJkjYgWQGQJEmSpA1IVgAkSZIkaQOSFQBJkiRJ2oAWVwDuG4S3ujl2c/FcfNWrUVw7jpGrLxeEifGuHd+58tIlV8PYvecpPzUJTvXTXlyb3YSvLhvgEtaPOZKxXjwuB3a7HYfmI3wqRWl2XZv/bqzvMmS+befdgxS9jjDG7FN/P22+THKXg/g6JieSfi91Uu/YCfytPfviD+fx2TexadPSj71nlPXM0Vj/PIx9me03bdqE58PlJ7Oqfx7G8U6K9V0lkiRJz2ZxBWB7AuMTP4VT/WQetn+7n2LgTIX4P0eIOF/AHufLGF80GfgkQu3L9Jo3T+uHUcI9/ZS2JEiXazSbDao3hwk8HCXUl6Q09wLi9IKUvxjGKDVaX7YlyN5LE5cTwfx3sAUZ+1kgxOJPc3Jw/dP7vjnM1KOlYUxf9L/MmEuSJC1rSReA80CKy/vLDJ4wqFoVRo8P0ziRZnjPi5mCxrpjkHPEiR1KEG2mMb5dbe066XPDTO9Nkb0Yw+tUAAV1Z4izmSzGqScT49TvnCfu9+DWPXh0H+HTOaoWMF/m/G438b+lGIiECexy43l3lMI3BgORML1eN553zlNqP7jnj7vwHD9PMhamN+jDo/cycG2hmmJS+lucgO7GvcONe1cvQ9dbyyp/DxO/WqF4MYzvRA7zgUF0R5x0x1N/9foAvV43LpcLT+TJPhcnucD5gz48ugeP7iHwXorycutJ/3Wsb0eJ73bj1n0E3h0gW7WeLJyvkjvdi3urG4+3l2OfGgx5XRy71Vps/nuUeI+nfd4EiP+1PYmUJEnSCpYZA6ASvJBmoJEkuifKiC2J8b/eFzQPvUnuah79aBzNphOLOchdyWOttLpVpDCpED4UWjoDnuIlcjSE3gXUM/TH0tjPFJipTDN9N4W3lCD+aQVsClCjcFdh8KtxincvE6wkiV+w6M+Mc/tulsgvI4y0uz0UG1RvTuG5OM7twhRTl3QKp4bI1IFvhklcNInfnGHm3gzFM07SJ5Lk5kD/nzRn/SqBD8eZ+iyyNL5Wgfy9EOm7M9Tu5Yn/MkLi4tPdJlVSR6KkncMUK9NMf19gaH6U6JnCynkkvQYqnO9x4djsWPJxnyqsL4j5MqPvD1M/OM50ZYriFxGqt4qPj7t5PUn/TY2RuzNMl7MkagbGfVrX5WyO/gMpODHOdGWa6clhXF/FSVyTVQBJkla2/CBAxUss5qHy7yqe/SH0FzVn4IM0xt0giX2t4lE7lECfMMit1Jc/18C0HDg3r179sCbHKaghEnvbfRRdfhIHdcoThcf9p759UTQboHjQNQXP3hC6Ath0PBrU6o3H4Sl9cSJb2n/viRBUihTKwNsjTFWz9G9vLXPuCeKbr1Jdz1gEm070vRBOG9DlJRbRqf67sLgL5GGeXEkncaJd4bE5iRyPwESO4vyyoUq/l/kCQzvs2O2dHwfhqyagc3ayRuOXxpLPzKXgkzB+SBL441NhOAKM/gg8LFK4rxPar7cKdTVIIvJk5sepyQL0xdrdcCr+DwcItq9L606WfFeEgQPtzojuIImDGoUbq1SuJUna8JYv2n9MMXCxSf+lfgoXBkj1jT8u9Mwv4+gftp9q9CEKhcSae1govstXDIoPq0xp2ceLrTkL81qV2EmN/Ak3iRtNAFyHc0x97EBValRrFqzSBmHO1rFUH2pHahyqAxomtXkABVVZvL2i2FfMBUe3q2NvdpQuk9qcBWaF9MfDZEpVmjYF5k0qlkpwPYWzzYWzYzxAK34NzM5tTZPGfJmRvW5SC3Gab9K0gtTnYGmzgvS7sQUZqdymf8tzhLFzmOLds3iXu+q+M2ngQO04xg7V0T4PLUzTwrHd8WRhlxOX2jqHzdk61oM8cT33ZPl8E0VvUIP1j1GQJGlDWXorssqcPzqMdarAyEmN8i9BQsdHCX49iG4D9UCKSp+FBSiKiopCzalSfVDFYnFXQeX7KoorgssGWAWMazBYajD8Zsfubg3gOZOh8sFZQhenqJyzsFBQulRQ6oR7YPBqmvq+BM6n4jl6Oo324QihbieKWWsVpu0UNWYbsFlt7fsZNWZrPK5yzDcwTRWHqlD6OM7QDwmKt7KtroeHKXr19PoCnW9gmrCQiIbZAIdrUaWFbhWHEiBx5zb925493tKrUuF8T5CRH5c+bzsOZRe3AqxEVXDQPkfaFcXabKP9BK+gdClY5pNWKubq1MwmLkDtdqK80U/27vDylQtJkqRlPNUFYFI4E2fMMczlkzqg4D2XYuDRCPGPS62bkaKiOp04nU5UtVXcB95LoN1MMnC1TN0CrDrlawP0fwnxD6KogHnDIKtGie9cvEelJ0LITGNMWtC1ELaK2gXgJPZxEs/kEKHjBoUHJsxb1L/LkYxEGfnRheYEZU+YoJnHmGg3+JsljK8qBPaF+C0vLlh30qQftIOayFEgQNDbKrSVLTpaFzBfJ/9Zjul5C2vhvm+zaJgrNLrOl8lmSq2BWVaFzM0K+tuBxU9nzhAR/zTGZwsDuCwqV4fkgK7X3jq7AFazJYh/W4Xs9XLrOqvnSecqjxf7/D4at3IUTACT0qfG424hZU+U0GyO1M32+T9fJ3cmztBN+QKhJEkrW1QBqF/v59h1ndF/Jlr95QA2L2c/H8LxeYLkneWLIeVPw+S/SsC1OF6XHbvLS/zzBtEr44ztVYEq6at5tEhk6XgCJUBkn0X6an75Qm7nIOOTBiHLYMDvYpPdgX5ghOpbIxT+NYhXAbpjGJk4zQtBPLs8ePz9VPamSX/w2xo/XX0+6md68e1yo39YJXRphFg3BE8lCZYH8OzyEQgNUukbYXhvjbFDx8g8VAnuC2F+EsD97iiVRSFaNJUg4a1p4n4fHj1MtjtJ6rT3qT1r/D/23j+0ieyL/34L/cCEpwsTngoTqNAJFZyg4BQFEyw8TelCU7rQhApNWMGNCpq64KYKa7P7h9/UD/hJ/YDb7Ae0UVASQUmElaSgNP7hkiy4NPvgkiwojbJCAvZhAgoZsHCeP2bSpm3a+mu1u70vCDSZe+/cuffce88990yP70oUrqcjsG03w7zdAtcNFX0DNmb9/9TMpzEsbsGWfy37fLbK/3doxG8B7f8JLCvD0DmOQpOMkf+NwBRzQBQt6DiYgnTAAW4eqAIQhkIIWWdweJcZHVYPooITfYJ+jNXiRPiGF9ULdu3tlO12hMs2eDo/xHu7DAbjnwoLB7yM9HEThrkE8hfYu9mbhb9lmFM1hcPiCPjbeYT2ferKfHj+ln3yD4f1ycaDhQNmMDYDvwRg2daH8BPtiKl8O4p0kw32nevkYzAYjFVgCgCD8Xdg3wgmjnOI9Igwi2bYLqjwXgvB0fypK8ZgMP6uMJ/hZdh/LCH/qSvBYKyAh/3bOGa+/dT1YDAY/xSYBYDBYDAYjE3IlmfPnjEnQAaDwWAwNhnsLQDGpod5N288WJ9sPFifbDzYWwAMBoPBYDDeGqYAMBgMBoOxCWEKAIPBYDAYmxCmADAYDAaDsQlhCgCDwWAwGJuQpQrAkwj6tplx+M7SsDzFqy6Yth9GolFwMTWHsU4TOs7o0QJr/D6OblMHRu7rv6oFJM64YJNMMG0zwWQywdLpwdhUXaHPUxg72A2LWEtjhs0ZQOLJKhH2AJQv98Hwry0wGAwLH6PUjcP/zb5zBD31txhiv75//L3C7QjS+uOpN1wwWseWBQlibFxUFG6MwGYywHIm96krA0CTdePnYbx3jL+nYXQbVwliNJ9DYJcRnjvvd4v0cRMs32TfrxAGg/GXslQBaPcicsGK9Nc+xJ7rvz0JY/hMAZ5LITgbBRfjZIxeDcJ03YuRe/qiqeYwdiSE6tcRBLu0kMG5cy5470sI3iui9GcJpVIB0YNA5KAH4acAUET4oAfRZh+ShZKW5vE0RoQEPEPjyM2v8RQ7g8i8rKJaraJaVVC4bEfxvBPeG++2iOeuBRHJKusnXJMCEufDCwoANxBBccoP6T1LZXwMVKRP2+C5bYRN5j51ZRgMBuMvYcURgDAYxuRADv7jERTVAsaPBqEcjyLYtUZA2nYvIhdkpI77kCiryJ71YsIYQOSUDG36VFH4owijtQ/21tqEykM+EkHmYRTeNgDzRRQec5B7HBBrSZpFOC+kkb/jh/zG/7SYg7B/FP5+ID2V0XY0shmH/z2GPsmMvh+KACrI/e8wuneZYdllgXlXN4Yva3HYC//tg+dqAZnzfeg4nkAFQOWXcXg6LbBIFlgkGzz/Ti9aF56nEPiiA2bRBJPYAdf/SaOMMiIHXQj9WkBkqAOey0Wot70Qe/UwwWoBsa+7YdlugUUyw9LpwfjPeonPw+g2ujB2PQDPF32wyWZYHAGk3zTkLOODIB6IInNzFLaWBhfvDcP0mQeJBkqpessDoz2A8BkP+j7vgHm7DcO3skj9Hw/6PrfBsr0Dh68XF9KX74/BY7XALFlgkTrQ900CxZrR7NdxePaaYZY6YPtiGPFivSVMRe7qMLp3WbQQ2HIfAneKeBuKt4bRLZs1a5xzDNlG+vJTTb4t2y2wbLeg48AYUrXNAVTk/ncYNskM8zYTLPZhRH5vYK1Tcxj/3Azb6fQ7W+UYDMZfADWiOkPB/QLJ+yQSeiYo/7phqmUoNH1CImGPlaQ2J0X/XHq1dNNNIi+S4+QERe/OUOnlipvS9EmJ+DY7+c5HKflwlpQ3uG/pkoO43UGaWZK2SslDAgmHkkSUp+AejoTeEM3o96ymfCS2OmmyqH9/FCJ7i0T+B1UiUmiylyf7xVnt4os4uVtFcsdq36fJv1sgZ0wholma6BHI+t0MVYmISnHytgvkvqkQvY6Tu0Wm0Zx+j5iT+H1ByhPRzHcy8T0hyle1a7PX3CS2eSmpEFFpkhwcT9azepmv8xTa3QJ8MwAAIABJREFUzy3Wh/HBefbs2arX4l/yJH07s/THF3maTs1QqVGGhJu4ZplGH2idW/rRTlyzRL6UQkRESsxJ/M5RTV5LUXIKEnl/0kt6maHRfTxZz+eJXs9QcDdP9vN5TQ6UafLv4YjrmaASEVXTPpIEB0080u5TfRgkq2CnicdEVJokp8AT37L8I5A7phAVJ8jOcSSfTFLpNRG9nKHgfv05X8/Q6E6e3D8REc1SqIsn+VSG9NpT8phEfP+kVoe7PhLb3PpYr9LMOTvx+licPiaQdDJD9HqWJgclko8lG7fXO/QJ49PA+mTj8b590tgJkJPhdltQ+KUIy4AD0hvtvnnYv/LA9FsWSqcHjtalV4XBKGbuBWGbTyNy2gFxqxHmTg8Ctwq67wAH+4UZZC46wD2KIjDYAZPRDNuBEUR+e5t9g4ry/XGMTxnQN2Bb+NXS74GsR07LTKVQ7fHC06Y/7k4vvNYi0ndXntCr9+NINTsxPChqP7TY4T0gIn07BfV5ComsCNdB3dIhODGRKyAysIa1ZD6H1J0CbENeSLqlQxz0wK4mkXqop2mS4BrSy2ySIG3nUSqxvdOGoUWCvVdGoxMxAOBa7ejbp3WusEOCibfD2aPJBL9dgmmujBIA9UESad4Bb69eUrMV3gMSclNplJ9nkH4iwTEgaXLA2+F1Lh4gZW6noPT64N2p3Yfb44NXnkFiqgwIXsRLCpQXyz8lRId02WyS4PrKAaEJQLMMt1NC8Zc0ltgQnqeQeijBc9QKvfZwHHTA9CCF9CsgcyeFao8HzlYA4CCfSqL4YLTOWldC4rgL41wA8YuOVduLwWB8GhorAH+EMXy+Ct9FH5Rzwwg/WbxUue6ByaQ58Zns44tObWoOY8ciMH0fQl92BL5bK12V+D1ujF6MYzpXQrU0g8mDBqSO9mF4qmY25CD1+xG6lsRMUYHyKIrh1gxGer2Ilde49+8B2D7TnQA/M0I+noZ0No6Jfn6hXL6l9reKylwJhhYjFk93efAtHCqVlef+lbky1KcReCQzzNu1T9+lIrhXCkqVChQYwdet91wzD25NhUlBqcLB1FKXqckInq9Aqejt0GQAV3/03ARgfnVHSMYGg6uXLQAcB0Pt7yYsXKvMlaHyJvB18mLkjYBSQen/WylbRt64cKRWmSuhctsLy/aaXHZgLMehWim9WR2bTBDqjje0+yqo1B9rNJBvtJjAz2uyWpkr1dUJQBMHvi48cfG6D95bRXCtIkws7iiDseFYOSzVHMYOBaF+nUbohIjcCzscR8dhv+uH1ATwg2EUelSoADiO13cGFaRPexAxjSLznRfcviJsX/kQ2RvXzvfVMrJ3ZsD1OCDXJhNehP1IEL7bIsK/FgFZReKBCtugdWGnwLVZ4T43guTVEWQKgLvBvcuA5gT4cHRNPwGu7i++xYTqnKKVo9e/NAfwonFFPr5FALfDh/jD4Mryn4dhhILKHAB9MlWfF1DiRIirGgGMMPEqMnMVQG89zCuoVEwwtjCHs80E3yKAq5S0RVeXLWVOAbbyMP3fqiZbFSzIVkmX2ZoM80OTmP3RvrLgcgQueQTpFT4KHBwXC4haocscUBtsSkUBjEuVEfD8CvnGXAmVJgEmXqtDqVw3juYrKD5RYdyhFcp3BpE5D4x0eTFszWCyfw3LGIPB+OgsswBUkD7jwYQxiMkTEgAO8vdhDL8OwXNWf82P48ELAgRBAM9rC1b5lg+H78gI/eiFAIDvCWFisIjA0TAK8wCaSkhf8MB1PIzs89pOVkVxagKRhybY9omAOoPIcSe8/06j+KqWpIz0DxGkm62w7Wp873fB1u+A4V4E0af6bX6PIJYV4eiVtR+a1IXdONflgmMugfAd3aIxX0bijAcjd8pAqwNOawHRS7pzUzmFkR47Ru5pU6IBFVSUZTv3JhmOfgmZGxEU9EvFGxEkmx1w7n3nR2J8TOYKSE/l3vt1PK6rD/ZKCpHaq7CVLCI3C7D1OyC02mFtKyB+S3NORTmFaGLxiMo24IBxKoxI7RXZuTTGvhpG7Ane7AhgPod4TH9VVi0gdqcAab8NYn0Fa/J9RU83X0bqSgpKTx9szdo4Mt4LI/KHCkBF4b8udAxNoKgrHsY2C8R2L8IXbUgf9yLy9D0bjMFgfFjqHQJKN90ktq504KNCiOyCRP60stKL4PEEOYRFJ6cFqhka3VPnzFaaptARB8ltiw5J0n43jSZmSfeFI+XhJPn7ZRJrTkuCSNYBP03mqrQajZ0A68lTcA9P7pv1ZVRp5kcv2XdKJO2USNrtIH8sv1CP2UtOEnmexP4Q5YlIeRAi936JxHaRxDaJ7IcmaKb2uMU4+fslEgWBhFaZHN/VnJ1KFD8iEd8ikvW7zBInQKrmKXrCTtIOiaQdIkldXpp8qN+9NEkO3k4TdX2QPCKQdCqzahsw3o8VjjSvk+QVOOI4jrgmEJq0v/lezQGP7vpIaHZTvJHMJdwLjnBERJT2kdjup0zte26UZMFLSf27kg6Se58uhztkcn6nO+YRkfIgSM6dAgltEsk9Ppo85yS+a4I0d9AqzVzxkX2nSOIOkcR2K7nPTVODEbqSYoisvIOCl3zk2CeT1CaSPBiijELLnACJqJik0X5Zl1WJrEMhmn5RK0ihmYtesrYLJAgCifu9C2N1wQlQr+v0KZmErhDNrD6Ul8AczjYerE82Hu/bJywcMGPT8/YhNYsIHwyj40oIVna2/ZfAQs9uPFifbDxYOGAG42NTKcM46GOLP4PB+FvDpjAG423hrXD3f+pKMBgMxvvBLAAMBoPBYGxCmALAYDAYDMYmZMuzZ8+YEyCDwWAwGJsM9hYAY9PDvJs3HqxPNh6sTzYe7C0ABoPBYDAYbw1TABgMBoPB2IQwBYDBYDAYjE0IUwAYDAaDwdiEMAWAwWAwGIxNyFIF4EkEfdvMOHynsuTn4lUXTNsPI7FG+DP1jwQC7m5YTEYYDAYYxQ70fR1Gdu5DVLOM9NUUih+gJPW3GGK/Vhpf/DUAy7+2YMuWRh8DPLc/QAXelPky0j8Mo2+vGcbPDDB8ZoKl04PA9RxWqf1K5rKI3NIjyM3nENhlhOfOX1VhxnvxNIxuYx8icwDmC4gcsMC41QzX5SIq90Zg22aEqWGIXwaDwXhHlkcHKt10k9jmXowIqEf7axgJUKf6KET2FoHsp6I0U6oSUZWUR0kKDojE7x6lzMv3ClikRchr89H0qhH/3pzMSYnsF2fXT6hEydEs02ju/e/59pQo/qVI/G43TaRnSXlNRNUSzdwcJXsrr0UXfINSqgk3CYPRhbRVRaHqB2jDfxobI8pZlZQXih45c5IczVYKFbQrmZMiCYeSb9Tn/xQ2Rp8w6mF9svF43z5ZoQAQKTR9UiKhf5Jmq3kKdQmLIX0bUqLJAZ6EL+MrQ5FWZyh+JUl5XQEo6aFPxR1a6FPHyTjNVono9QwF94jkvThJ/kEH2fdLJO52Uuhhlehlknw7BeI4nsTdDgrliKg6S/FTDpL1EKVSj4+iBb2Gf06QnXdS8NooufsdZN0tktQ7StMviPIXHCTyIK5VIvlYg/ouaYZlCsCLKDlbJPJnl6Zxtkg0+lAP2XskSKNDDrJ3ySTtsJMvtqhoKFktpLAWVnXt0K3VtI9E3k4Tjxtcu+sjsdlOocekh24VyH02RN5eO9n3SSTtc2shWR+MkrWVI/AiyftGabq6SpjXdomkdonkwSAldaWvetNNfNcoTZ7zkrPXTnK7RNYTcS0U7utZip90kNwuauGRdzrIn3gDhWoDs2IQrSFDRLQYzrldD+e8302hB3pvlqYpOCCT2CaS2CaS1OWjyUd6iNwTIsknJyl0zEmOHitJ7TJ5r+S1fMUJsvMOmnwSJ99ukfgmjoSdMvUe+H9IauGIaxFJ3j/6QZTgvwNssdl4sD7ZePwFCgARVWcouF8geZ9EQs8E5deadKpxcrcI5E2tsz8pRckpSOT9qaR9f5mh0X08Wc/niShPwT0cCf21e1Upc0oifjCqLZIP/CS2LloAZs7KxO8f1eKXU5Vmf3SQsHtUi8FemiQHxy8qLa/zFNrP6bt+hSZ7+Xe0AFQpeUgg8cjiTky55iR+T5DypMU/5wTnguWketdHUouToiUiehEnd6tI7ppC8GKa/LsFcsYaqwAz30rE9U5SqdHF1xnyt3PkuKLoCgBHfE9ood1mzlqJ3x+iWSLKn7MSX7MALInzPkuhLp7kUxldCVEoeUwivl+/Z8JNXLNM/ru1RW2SHC16W9z1kbDDR9O6Uld9GCL30ITW9n9TVgyiNWWIaOY7WWtzXRBmr7lJbPNSUtGuCUM15bJK+Ss+cp6dpippCgDXvmhdq/7kJaEm1zUF4IV+f95OE3q66ZMiiSem/+JW2FiwxWbjwfpk4/G+fdLYCZCT4XZbUPilCMuAA9JaMQNfKaioRghbuTWPGtQHSaR5B7y9gvZDsxXeAxJyU2nUXAs6Bjz6vThIkgiUSlCWFzSfQypRgO2rEVh5La14yAd7OYX473qaJgmuIRmc/re0nUep9MYn56vAwf6lB7gTRaoCAGXEb6XR4XZDqqXo8cDZqv/d5YSdyyCdA9T7caSanRgeFLWLLXZ4D4hI305BbXAnpaKAazFCaFSNJh7GFkCZW2wZ2+Biu8m9dph+zyC71uM+TyH1UILnqBU8AICH46ADpgcppF/p9W+1w9XF6/W1QGopoVwCsJWHaS6DxI00CmUV3B4/ojEf5H9aXMnVZGg+h9SdAmxDXki6yIuDHtjVJFIPAX6rEeqjOCJ3cii/4iAdmkD8O7teDsB31smIJEF8VUL51ad5RAaDsblprAD8Ecbw+Sp8F31Qzg0j/GTxUuW6ByaTSfvYx1FoNoLnSiiWGi1ldfnmylB5E/i6hcLIGwGlgtI8AHDgm+uUiKbVFAoFpYqK9JkOmLebtc+uYaRRQeVFLa8BXH32JgDzK+u34lnWfAKA6/TALaQQuVUGnseReGiDu7aoAzC2mLB4WwO45gqUV6r27E8j8EjmhTr3XSqCe6Wg9Mc4urfpddjmQqQMGFuMUMslNPS5nK9AmdPS6LUC31KnKvBG8PMVKGstKpUKFBjB83W/tZi0fDXFgTOivgm5Wr/tDiJ10wvu/hhcsgmmvS4Ebn8I98wNxqoypKBU4WBqqWu8JiN4vgKlokI8EUfqGxEzP3ghbzPB4hhB7PdF2TM0c1gq2WuPGwaDwfirWLlvU3MYOxSE+nUaoRMici/scBwdh/2uH1ITwA+GUehRoQLgOB48V0FfJ+C/GkW537t016rmMP5NFOLpEBwtArhKCZX5xbsqc4q2o3yr3aMJphYejm/yiA81UBLWeFNhOSueZb0MTTK8bgkdt+JIv0pgptOLaOviZWWupJUFAPMKKhUeRp4DDwHcDh/iD4Mrd8rzKuI5D9R5AE0c+BYAnztg+m8U0T988O9Ymly9H0VizgZ/bXcOFZW5ClCrfUVBpYmHca2H4XkYoaAyB6BF/22uhEqTANO6jQAIXT6EunwIQUXx9ghcXw1D3JuEt3X9vH9/jDDxKjL1bT6voFIxwdjCAeBgPRSE9VAQUMtIn3XCdWgc8sPRT1lpBoPBWMEyC0AF6TMeTBiDmDwhAeAgfx/G8OsQPGez2l6F48ELAgRBAM9zAAS4zwZgeTACx9EI0k8rwLyK8m8JBJwuhP4wQRQArqsP9koKkSl9ha5kEblZgK3f0djUXU8TwKkKKiqAJgmOL0RkroaR03e5lV/DGP4qjNybbKaaVCgVPeGKZ1kfccgL28NxDP+Yh33IuURpUO9HEX2q12kqgTRssMsA1+WCYy6B8B392efLSJzxYOROWV/0tToILTw4ANz+EYQGywgOehC+V9SUJrWCwu0xuI5qCpW3bfG+mVsRFFQAUJG9mUJprx3WZm3XrlaUla8NtjrgtBYQvZLVrs2XkbqSgtLTB1vz2s9fvOpB99EYirrVRtwlwtikbp59bJMMR7+EzI1amwPFGxEkmx1w7q0gcdwGz/8K+lgRYJE0q5DKXt9jMBgbjCUKQPmWD4dvSRi/5IVY26k2yRi9PALjZS8C91c5WN7pR/JBBA41gmGrCVsMRkiDIRT3hJD+yQ+ZA9DiRiTmQfWcHZZdFlisPhR6o4geExuXuaR8BxxtKXi3WzB8R4V8Ko7w7jS8smZO7ziSAj/g0O6zJjzs/Q5ULthg/mJ9k39DWl3w9CgozLvg7V16Q1NPB8pnutGxywzpdBGOiyG4WwC0OBG+4UX1gl0/ArAjXLbB07ma6iPAeSmD+FdGpE53Q/xsCwxbJbgu5CGfzyD5rVxnRuZg7+Qw/oUNHdtFeB50IHTBCxGA2OWC7VEAsuRB7Hl9+SJ8l6Jw/OGDTbLAssuO4Csvoj+611XGxIFhONUJ9NWOXwZSkM5PbJLdv4Z8JorwjhRcsgUWyYy+60YEb4Rgb+bhOO6F8bYLFlFrH/slDoEf/oE+EgwG428PCwf81qjIftMBb1ME+fPWhV/Tx00Y5hLIX7CukfcDM59DQLajeE5BtP/j3fafBgtzuvFgfbLxYH2y8XjfPmH7krdE/XUcgdsi/Pc/4kLPYDAYDMYHhsUCeGOKCH9hhmkwCelCZMkZPIPBYDAYfzfYEQBj08NMmxsP1icbD9YnG4/37RNmAWAwGAwGYxOy5dmzZ8wCwGAwGAzGJoMdATA2Pcy0ufFgfbLxYH2y8WBHAAwGg8FgMN4apgAwGAwGg7EJYQoAg8FgMBibEKYAMBgMBoOxCWEKAIPBYDAYm5ClCsCTCPq2mXH4ztKgP8WrLpi2H0ZilVC7iYMGbNmyZeVnVwC5DRgFTf09gcDBblhMRhgMBhjFDvQdH0f6+fp5axRuR5DW20O94YLROvZuwYUYG5PnKYwd7IZFNMG0zQSTyQybM4DEk5VxD4s/dMO01Yy+q8sGyO9j6DBsgdGdWBmRcS4G19YtMHwe1iJYz2cxsr3BGNqyBVsMfYjVCpgvI/3DMPr2mmH8zADDZyZYOj0IXM8tuUfioAFb/mWAwVD3MVnQ/dU40nN6IjUB12cWjPxSl7GSQ+S0CzbJpOUxmmCxexC4VViM+LgsX/lyHwz/MsFzY9nzlyPoM7oQe/VGLc5gMD4ySxWAdi8iF6xIf+1bjB73JIzhMwV4LoXgXDVUHAfhxDSIaOnnUXDDRUFTfx2DvcuHbKsP0VwJ1WoVxXshONQoXJ0uxJ6+SSkFJM6HFxQAbiCC4pQf0l9Yb8bHpIjwQQ+izT4kCyWU/iyh9HgaI0ICnqHxpUrtfA6Ra1UMX3CidD2K4rKSOF6EMRtBfJlyWb4dRY4XsTSeJAf3zerKcVRNws0DQBmJr2xwXVHgOD+NolJF9UUO0a9FZM/Y4fg+WxeWmYNwLIlqtbrwUR5OwP48BM/XsZUKCQBU0hjpsWPsSQcCtwpQqlVUixlEDhmRPm6H5/oqOwAAaDMie8a/6iaBwWBsPFYcAQiDYUwO5OA/HkFRLWD8aBDK8SiCXfw73yR93IyOr8cx0mmG2a1NPuWpAFx7tZCpJrEDru/T+k4oh7G9Znj+E8awsw+2XWZYvhhH+ucIhp196JbNsHw+hmxtBlOLSJzuQ4dkgUWywPL5MGJ/rBadvojImRDKg1EkzzkhC9r0y7fb4bsUR3B7GoFzKagAKtddMHaOYPwbF7o/t6FDsqDvTApllBE56ELo1wIiQx3wXC5Cve2F2FsLL1xB7n+H0b3LDMsuC8y7ujF8OadNzPqzHf4hgpEDfejutMAsuzD+q1bfyi/j8FgtWphd0QzbwfDiczI+HvNFFB5zkHscEGsrdLMI54U08nf8S5Ra9X4ECaMH7iEvXNUoIr8uK4uzwtFZQORWvWpQRPRGEfaet1MZ1ftBjNwREbwVha9LBN8EgBMgDwaRvOJB+b8BhJ+snp9rtcM31IHKozyKDSxzhcsBhFUvorFROHbymnLCi7B+OYH0owwiQ6sHi+ZkH0K9OYycSTVWLhgMxoajgQ8AD/u5KIaVAFxdLoSaAogsiT//DjQBxakZSFdnMRtzg3+VQuCrCLhvMph9PIvSPS8qPxxG6D6AJg5ACemHHPw3k8g8nIS9EIDnnApfLInph3E4X4QQ0o8pcv9xwZuVEc7mkS/MIDlQhH8o2PjooZJF+qERzkH7yudpEuEatKF0P43cPMA1AeovKRR7Ipi+m8HM/QD468MITPHwXgnCwUvw3phB9Ii4pBh1KgDXOQXuO7PIP8ojf8OBwhkPAj+rC8+WvKfCG0ti+sEMoj0FBM8nUEER0TNBlA8mMft4FrOPMxgR0ojfZ1uqj06TDc5BI1Lf9GH4PzGkfi2iMg+AEyAK9ZJTQeJqCtIhD8QmCW63EYkrKSxRP+cNsA86UL4WWZTJ32KIvnDAvfftRlXhXholqxuu9pXXuC4PnEIG6QerL7/q8zRC1zMwWW2QVljmysjcz0Hs98DaoFqcoCscqzFvhP1sCPYHIxiZYioAg/F3oLETICfD7bag8EsRlgFHg8liOSrKP3SvOLs0OHVTYxOAvS54ahNXswOTj4uLO4p2O+ztCorPFyeOjn4XxCYAnAWSyMHS64DEAWiSYBGBUlkB5nNIJQqwfTUCKw8AHMRDPtjLKcR/b1DNioLKPA/j1sZPIQg8uEoFSu2HNgc8PbrlQ3Ciz6og82Dtk/7MVArVHi88bdp3bqcXXmsR6buL+ToGPHqbcpAkESiVoMAIo8ChOBVD4pciKhDgPB9HaGD1XRfjr4KD/cIMMhcd4B5FERjsgMlohu3ACCK/1S1uT6OIPLTD26/JiDjkhTQVQWJuWWldHrjnE4g+0FSD7LUoOLcXHSsWWhWxg8al5/YGA4xfpQAASkUB12JEQ4lo4mFsAZQ5ZaGs8uU+GLcatc9nBhjkERR2hxG/4Gig0CsoKwC/tc7Sp6ZweLvuA7HNBHPn2No+PS0OBM/JSH8TQJqd+zMYG57GCsAfYQyfr8J30Qfl3PASs2Llugcmk0n72Gtm78Y+ANWEG7XpxMjzdZNOGenLI3B1dsBmtcHW6UFkiXMVB55bdjrKGRa/LCgkCkoVFekzHZrZfLsZ5l3DSKOCygsgddy8UNeO01mAN4JvqqD0onFjlMsVqC08jLV78sa6XQ8HvlmbhFdHRWWuBEOLse5ZefAtHCoL+TjwzXXP1sQtpHNfSiO4t4jIiW6IJgu6j7IjgE8HB6nfj9C1JGaKCpRHUQy3ZjDS60VMN8rkrkSQeR6HR9QXWcmHVDmFyI1lngCcFR43j8T1NNRXKUTumOAZkhoswhzc15Ql5/bVahXKFQcAwNhihFouoaFNaL4CZU5LUytLOJKE8kKB8kJB6ScfpCYTHF+7ITc3KsAEwQhUSnWlc3aEsjnkHuaQO29HtVLFaodrNYTBcQR3pTD8fXrdtAwG49OyUgFQcxg7FIT6dQShE0FEDikIHh1HQdf8+cEwCrkccrkcCgnfmzu+1Z+b3gnAc6EE59UMMtkMMvcjcLe9S/VNMLXwcFzI62Zz7VMqzWKiB3Ccn9HrWkD6eyvA2+GwKkhdb3ROWUT8VgamHsfCGa9aUTTTLwCggkpFrZtgG8GBbzGhOqfUTX4VlOYAfuta+XSaJbi/m0Ty4SyUQgSO50F4vk+/cWswPhDlHBK3sksWWq7NCve5ETjUHDIFAGoakRuAP6ssLLLKCwXKT14Ur8UWxksNacgD8V4U0VtRpHe54Wp7+2pJnztgykYR/WPlNfV+FIk5Gxyr+OpwXQEEewoInI41ViDAw95rQ/F2FOmFwcGBbxEgCAIE3tAw10oEuC+MQro1gkCWqQAMxkZmmQJQQfqMBxPGICZPSAA4yN+HMfw6BM9Z3cOY48EL2qTA8+/mGaDOlaDyIiytHAAVxRsRpJ4DlVdvOWE0SXB8ISJzNYycbnKs/BrG8Fdh5FQAzbW68uCbAUCA5+wIhDteuE7HkCvrzndPs4gcdSFQdCF0ps4/4HkK0Sl9unwaRzRrgr1TaxcDKqgoK+tr63fAcC+C6FP9WX+PIJYV4eiV12mUNAL2Poz9os++LRKktjeddBkfFHUGkeNOeP+dRrFmylbLSP8QQbrZCtsuoHI7gjjvgmfn0qxcpxOOShSRB8tko80DrzWLsXNZWIdcjc3468DtH0FosIzgoAfhe7pfglpB4fYYXEejEE+H4G1bLTcP57lRdNwPwH+7sVlJPBSEvyUKz4EAYr+WtfH+qozc7XF4Tsdh2GXRjuXWo9WL0BkTomfCKxQhBoOxcViiAJRv+XD4loTxS97Fgd4kY/TyCIyXvQjc/zD2aH4ggBExBadkQUdnH8ZUL8LfyMifdWBk6uVblSWfiiO8Ow2vrB0BdBxJgR9wQF5FN+H2jCJ9fxzW5xPwyEYY/mWA2OVDosmL+IPJJa86cjvtEB/4YNtrgblzHDgyiWAPBzR1wDHAIXrAAtv32aXl94QQP2NErN8Cyy4LOr5MQ74YRWDPOg/C2eE9ISFzrHacYUNwzovJM/a3ag/GB6DNi+hUEFJ2BN01875oQyArIXgnAndLEdGrKYhO50r/GM4GZ7+K6NXlViYezi/tqM47FnwGVqIi5jZgy7+2LPsYcfgOAAhwXsog/pURqdPdED/bAsNWCa4LecjnM0iu56zb6kXotIDU6UDdLr+OZiuC99IY31PExJcyjAYDDKINnv/NQDydxsw19xsrLuKREALbSitei2QwGBsHFg54FdQbLpgu2pDJsvf7/+mwMKcbD9YnGw/WJxsPFg74L4WdYTIYDAbjnwlTABgMBoPB2IRssH/Uu3HghuJQhj51LRgMBoPB+GtgFgAGg8FgMDYhW549e8acABkMBoPB2GSwtwAYmx7m3bzxYH2y8WB9svFgbwEwGAwGg8F4a5gCwGAwGAzGJoQpAAwGg8FgbEKYAsBgMBgMxiaEKQAMBoPBYGy3zQ+/AAAftElEQVRC6hSAMiJfGGE5nW2QrIKY2wTz0RQqN1wwWsdQ+GhVZDA+BSoKN0ZgMxlgOZP7gGk/AU/D6Db2ITL3qSvCYDA2EnUKgADXIQeUGxGkXi1L9TyO6JQR7qMO8AMRFKdYgBzGPxkV6dM2eG4bYVstrOQ7pWUwGIyNw5IjAL53GJ7mOCLL4oUXrkeQ2emFdw+g3vZC7B3XLACvcogc7YZFNMMsmmHuPIzI7yyADuPvj3ggiszNUdhaPmxa9dcwPHvNMG23wPbFCGL/ccFoD+thcyvI/e8wuneZYdllgXlXN4Yv5xZCUpXvj8FjtcAsWWCROtD3TQLF2sW5NMa+sMC0zYKOThfGrgfQbXQhtlyZh4rc1WF079LCVVvkPgTusKC9DMZmZKkPAGeF96CE9PXoYhzv+RyisQLsRz0Ql2Uu/ODD8CM7ooVZzBZnMLkrg5HTUZQ/Rs0ZjL8MDuIeCW+2n3+LtPM5BI8EUHTGUXycR/qChOSVFNQmwABAnQrAdU6B+84s8o/yyN9woHDGg8DPKlCOweeOwnAmjdlCHvmHYchZLzw/FACoSH9/GBPwI1PMY2YqAO5WBJl5gFsW7UO9PwLPmSKcN2aQf5THzGUb0kcPI/zkLZuIwWD87VnhBCh96YUtF0Hsd+27ej+C2CsXvAPCiszSqTSUe6PQLJ88bD0y8GcRpfm/uNYMxt+R5xlkn3TA86UMDgDX7sXIwKJanZlKodrjhadN+87t9MJrLSJ9twD1QRJp3gFvrz4Om63wHpCQm0qjPF9AOqvANuSB2ASgWYbvWB/4BlXI3E5B6fXBu1NTWbg9PnjlGSSmmNrOYGw2VkYDbHXB2xtA4EoW/gsSUlfj4IYScDSvzKw+SSB4NoL04yrAAagUoc57wQ4BGIwGVCpQmngY61Zm0zYTuF8BQEVlrgRDq7HOmsCDb+FQqSiozJWh8h3g60askTcCSgWleQWVCgdTy2JOziTC1KQsq4B2j8qUF5YHhsWfX3EQrCUAK5V8BoPxz6VBOGAejqMeBIYiSB+3InJPhDdrbZC1gPFDPqS7UkjFrOABqLdcMH3/V1eZwfib0syBm69AeQVAV6hLpZKuMHPgW0yozilQAV0JqKA0B/CiEXyLAK5SQmUeC6NWmVOArTxMTUbwzSqKlcWc6otSA0ucdg9+aBKzP9r/4odlMBgbnYb/B4Db54WnNYnxbyKY6fTC094g0XwFSgUwbhc1U+NcFuPXc1DVCqp/aZUZjE/M8yxi19Nv7+vSZoOtdQap27qHzdMYwrcXHfBs/Q4Y7kUQfap9V3+PIJYV4eiVwXX1wV5JIVIz1VeyiNwswNbvgNAkwbaXQ/Z2QquTWkDkfyksdeXV7zHggHEqjMgT3U43l8bYV8OIMR8ABmPT0fgfATVJ8H7VgcxUEX2HPI0Ng01W+L53QTkrwyLb0H08CflsCJ6mKA4fCKPA/AAYf1fmUzhsMsBgMMBzo4LCf2wwGAwwOsLaAluIwP+15mS3btp6mqwIXPQBF20w7+pA9+k87AdsCyZ/rieE+BkjYv2ah37Hl2nIF6MI7AHQ4kYk5kH1nF3z3rf6UOiNInpMBMDB8X0YjnIAsmiB7Ysg1H4npAb2Pa4rhOj3JsQGLDBLZpitAeS3O+FopOQzGIx/NCwcMGPT8ynDnBb/a0PHfS+KP3kbOu29M78EYOkvI1SahKOBIrDRYaFnNx6sTzYeLBwwg/G3oYyY04SOb9Kaef5VDpGbBUidtvde/Av/7Yapcwy5VwBQQTqWQMlqRcffcPFnMBgfBzY9MBgfDQHOc+PIfD0MaZsKQxMHsTeMyIn3/7+a0pEQAo98cEkTQJMB/C4nIhe9zK+fwWCsCjsCYGx6mGlz48H6ZOPB+mTjwY4AGAwGg8FgvDVbnj17xiwADAaDwWBsMtgRAGPTw0ybDAZjM8KOABgMBoPB2IQwBYDBYDAYjE0IUwAYDAaDwdiEMAWAwWAwGIxNCFMAGAwGg8HYhKyqABR/6IZpqxl9V5eFNHkaRrexD5E5ACgjfTWFYqMCajxPYexgNyyiCaZtJphMZticASRq0cgYjI1GOYI+YzfCz1e5/qqAyPFuWExGGLeaYO48jPAvjWLvLWM+jeHtZoz8rCL3fzpgPJhaO72aw5jVAIMj0jCyX/mGByaDGSM/136pIPvDYdi2G2E0GmHa1Y3h6wUt3PDvY+jY6kFCLSP8uRF9V9+gvh8NFbnLh9EtmbR6S904fDmnh0lWkXAbsMWgBVyqfSyns3rWAmJfd8Oizy0dB8aQrpuyKj+Pw2M1w2g0wmiyoO+bBIq1QGWVLMYP2mA2mWAyWdB9PIJC3bRUvDWCvl0mmEwmmGUXxu7VF7x23kUKGNtrhOfWavPdGn3WsKmKSHzTp8me0Qiz1YPxnxf7snx/DB6rGaatWjsOX12jrHreUj5Wyl59HRvI7apjRkXCbUTHvwtQ7w/DLI0gu5ECyT1PIeDsgGmrVu8OZwCp2rzw2xg6DFuWyKXB6NLXxnX6Yp1+VH+P4LDdAtNWE0zbbfD8kF1sy/eR2+VQI17P0OgeKwWv+UnuCtFs/bXiBNl5B02+IKLSJDnafDT9umEpRDRLE108ScfiNFvVf3o5S/FjEnF7gjSzaj4G4+Px7NmzpT+UJsnB22niz0apqzR9UiKhN0QzChGRQpmzVuLb/ZRZT55fz9DobplGc0Sz560knpheI3GVMt9aSdohEtc7Scryy39GyblTIkkQyf9A+0m56Sah3U2TBW2wlVJ+kputFHxE2rht89H0a4Um+3ly36wuL/GTUb3rI1GwUyirPaWS9pPcLGv1phJN9vLkuLKiBYiIKPOtRPz+Ucq8IKLXJYofkUgYmKQSEdGLKLkFkZyX8lQlIvozTt4dPNl/LBGRQvEvRRK/jGpz08s8TfQLJJ3KaGkfBckqWGn0gXbfUspPsuCkyT9p/bxLyFNwz+rtvWafNWDmO5n4fX6aLmn1mDlnJ77dR9NVIipFySmI5L42S1UiUh6GyC5I5M++QV+/jXw0kL1FGsnt2mNm+ohI9ouzRFk/SXuClN8w68IsTfTwJB3R169qniYHBBKG4tpzpf0k7lhl3K/TF2v2YzVD/h0COS5qclstRsndLpL3J4XeT25X0lABqN71kdQzQbOv8xTcJ9Pow7qLNQXgaZJ8OwXiOJ7E3Q4K5RoU9HqafK0CuRPLhKlaotlSlWoKgvV8vYoxS6H9vCYQ1TxFT9hJahNJaBXJ+uUEZRrPAwzGO7OaAjB6ZZQcu0USWgSSeoM0/YKIqEr5VJSmH9elLwTJyjtocl3ZnKXJQ16aLBIpN33kvpgnIqKZb6UVi3z1gZ/kfaOU/NFJ/AoFYJYmByRyXoqTf6e0qADkkhR9UFpM9jpD/naevD8RkRIn32CIZl4TTZ9yUPABEVGJJno4ks/mG9Z2+oRI8okJCn7pIPs+icTdbprMTlPokIPs+yUSdzppIqeP7ZczNHlEG6tim0jifi9NPnozJaP6KEnRVH5x8XydIf8Ontw/ERHlKbSPXzmHkHYtuIcn57W61qnNTyUiejFD8WvTSzYwyUM8iSczREqUnC3y0oU27SOxXdvQzHwnkzAUr1vQSzTRw5P9UmndvA3reH6SfD0yia08CTudNPFQK3nNPlvZUjR7N0rxXN3zPg5psveCqJpwE79ztG5jVaXpYyKJJ9dSNHUayscshbo4sp6rl4/Gsrdwx4Zyu/aYmTnvJF9CIXo8Se4jUU15u+sjodlN8UaL658TZOedFLzkJ2evneR2kezfJikTW/xuPZmkWquWUqPk3COS2C6S0CaT87tpKjUodiUlysTilKlLrFxxEL8vSHkiop/ci38vY+2+WLsf6e5KWcqf1eXxfeS2AQ0UAIWiQyI5Y1rlZi/aSTqWXCyw3gLwwE9i61oWAE3z49vs5DsfpeTDWVKWpS1dchC/L7TYiIUgWVu0ATzznUxC7wTlq0T0epYmBwQST0w30LIZjHenoQLQzJN8Ikml10T0MkOjezhNKV3OyzzFT8gk9k/SLBFlTknEt/ArP/tWt3gphWlKZusG6Mtp8u+x0ujDKinXVioAs5ccJA1FqfQ6Q6MNJmEiInqt0MwVN0ntXoq/WO3JqzT7IEnThcYjavqESNwOLyVfEBEpFB/iiWtzU/RPLe/0MZGEI0kiIsqfsxK3L0gzVS3t9DGJ+F5tJ15NeElo1CaCgyaKDWr1cFTbtZRoQRmQ+51kbRdIaJXI+mVQ3zk1UACUKDmbG+1MiUiZJt8OfSeVC5LMuyle/+h/1pSHKsWH+BWK0fQxUbParJl3+U3zFNzDEd81qiuQCiWPiMQPRldadd6oz5Yye9FOwn5t/qwtOvU70syCcpmn4H6hoWyubonS5ePx4oOuKXvryO1iuqVjpiEv8jSdmmm8UJcmycHxZL+QX9j1yhxH1rMz2vfiBNmb7RQqEtHLJHkFgdwxvaTHE2TnRfKnieit26RE0UFtt01EpFxzEtduJ2ePRGKrQOJuB/mv6bv2NftiJfX9WPrRTnzPxJJnr950Er8nSPn3kdsGrFQAihNkb/dS8qX+/UWUnG1Oir6ou/7GCgARUZXyP4XI/6WD5DaeuGaRrIN+mqxpPy+i5GyxUrCgfc2fk0kYipLyOk/B3csGd7VKVbb6Mz4wjRWARZkk0naO0rczdYm03RHAkbDfT/Hih6qNQtMn5IXJbMVE+niCHDvdFNcXx0YKwMy3EnFNIK7NTqN3391kNn1SJOFQcrHcszLxg9EFBXz2gp34fn0he12l6svFvCt3QG9G9dEkOXdI5I7VloY8RU/5aPRShkpVIlLyNDkkEt8zQbNUM6WOagpBdZaS31qJ5wTy3V1WsJKhYI9I8smkVt+snyTBS8n6+r2YJAdvpdBjzQxuvbB0ecqckrT2WDPv8ifSFID6IwzlioP4/UuPVt+lz2Zveklud9BEzdKim52dV7RFSMlNknsHR9yyxeSdWVP21pFbrcYfZszo43OhratxcvLSoqX6dZK8rRL5s/r3l9W6TWMDpfFNeF2i5CkriV1ByuhyrqRD5DsZpPgjhYiqVLo7StYWkXzp6lv1xfJ+zJ+3Ej+wTEH8yUv8Dj9lfn4PuW3ACifA3JUIMs/j8IhGGLcaYZR8SJVTiNxY09UPmM8isFdzPDCZzDh8p+aVwEHq9yN0LYmZogLlURTDrRmM9HoRKwNoccDTU0TydgGYzyF6s4S+ISd4lFCqAEa+LlI6x4Hj1q4Gg/FBaDKAb67/zgHz9e5UIvzpKqhaRMJdwkiXB4k1fG3elMrUCEb+8CDyrYwVoj5fwPjxCEznwnCuEedXPpdHtVpF/ooduaM2jNx/d4dbQ/NiLThAG4O1H5oAoAoAUJ8kEDzaDdteG2ydNti/T0Odx5s5oOkUbw/DPhCDdCGN6JCo/yrBfX4CwSNWCBwAXoL3jBdiNoX0HCCfiSK8N4dhqxlm62GktrngaDGCNy6Wq/4egafLi0xPFOkLDvAAwBnBqVWo9Q5nqgoVRvDNHIzNgPpqae2rrxQYeG6dvI2ejANf145oWjmJNeyzP8bRvU2fU7e5EFmQrzLS33ej7zyHwFQSvp16eYIbkZgX3KU+WEQLHOeKsPXL4JqNK2XpbVlH9taU2wU+4JhpMiyuBU0ABw6GhRvXySjKSF8egauzAzarDbZODyJv64BeyWL8gB0jz71I/jQKq97HfJcfExdG4dzJA+Ag9AQw0qMgdSf3hn3RuB+NzQbglbJk7KivFKDZCP7/eg+5bcBSBUBNI3ID8GcVKC/qPj95UbwWQ2Et78wmKwJTBeRyOeRyMwj1ckA5h8StLOr7mGuzwn1uBA41h0wBAHg4hvpQ/imB3K9xpF654O7hABhh4lWU5uq8UStFFJ5uJO9lxuajjOyNGNI1T2BOgPWIFw6kkHoIZE9bNMV5+cc6hty63s0q0reSKBXC6JPMMG83o+N0CpUHAXTsGkbq/00g/qiE9DcdMG83wyw5EX5SRGTIgr7/FlC8H0Os9jZCEwexyw+vtYTUVO4vbA8AKGD8kA/ptiBSDzPIPMgg/b1tYaJTbx/WvaiXfUx9CD/V0hSvetB3VsXwVBLB3roVRi0j93MO5fq2m68CTRwMTQA4Ce6LSeSLs5jNTWOiU0VxXkbHDj37b+NwDURgOptG8pQVC9uJdgkSV0Dhj7pbPcqh2CLB0sJBkkQUC/Ue9EXk/lAhSZZ18r5dy63ZZ+0+xHM5fU6NwCMAQBmJ4w4M/+5E9P4EnO1Ly+O7RhHNzmK2mEfmZgCmchHiXhk8ChjrNDWUTfPX6fUr+sdasvfb2nKrrj1m/krUOwF4LpTgvJpBJptB5n4E7rba1Tdok0oagX4PUnIEmZgXUp2CV3mSRfZJ/XqkQp3HgmKyel8Aa/WjsEOC8XEB+bp1vPCoAE6SIL6P3Dai3hygxNwkNPLCrE6Tr10if7q69Agg6yepxU3xl9SY4iQ5WgRynJum2VqaaommzztIaHUvHitUp8nXbiX3kLRwvkKkm/f2B2nmJRFVZ2lyUCTxGPMBYHxY3uQtgOSR2tmf5pUuDk1S/iURUZVmb3pJ4u0NzL9vxgofgPpra52lLjPD5s9Zid/po3hRGyHVR5PkbFvL3LmOD8DJpWeH+bMy8V/GF77PXrQT3z9Jin5O77iiP8OLDAX7ReLWfEOorhYPR0luc9JkscFFJUneVoHs5zKa/9DLPE0Oigue/vkLdpIGdD+hl3maGBBJOqnPES+nybdD0r2nVxRMySMiiUOTmje1MkPBHoHks/oxTyFEdsFKo2nNvDt700vSwpy1Tt5ShqILzocr3wJQrjkXjgDets9mL9pJ7Appz9uorXZayX+33gO8sZ/Fm7HSB2CBtfxPaLncvsOYWc8HoH58vo6Tm69zjHs9TT79CEC54iB+p58yVf2+13wkt3D6myDrUaLokEhyw7c7dFP9Tu9C35Xu+snaonv6r9MXa/ZjNUOjuwVyXNCOU6qFSXK2SeS7W6X3k9uV1CkA2isPSz0+F2qknQd+GSelXgF4OU3+PTzxgkS+n1Z5zeXhJPn7ZRIXHH9Esg74aTK3NH3mpEjglnk3VvMUPWYnqVUgQRBJHgqxtwAYH5y3UwCIqDRNwSEriQJPPM+TsNtBo4lV3ZnWpdFbADXeRgGg17MU/9ZJcps+1tqs5D63lsez/hZAwzH/FgoAEc3GvGRtE0jabSX74Cglc3HytvMkDkys+1pX5qRIaOKI4+o/PFnPa/VSshPk3S8Sz+vzx6GQ9tofEZGSodCgrDkZChLZT0QXJ9WEm3hgWbkc8QN6eyozNPGlVZubBInsJ+M0W1fX2YSfHDs1JzFxj5tCD+qdDdfIu8SDfW0F4O36LE/BfdzKtmpelIHZmI/s7QLxLQKJe5wUTL/P6X+jtwB03koBoLcfM2u9BfAWCgApGQr2SyS0SSTvt5P30gxlzllJEGTyp9ZZTF5MkoMDYZn8cLUz+NezFD/lILl18Zn8N2cXfWRW7Yv1+7FaiJKvSyShhSeh3UreSzOLSsj7yO0yWDhgxqZnM4cDVqeG4S0HED20hlMB4y0pInwwjI4rIVibPnVd/q6wNvwYsH8FzGBsYkrzNgz3s8X/g1IpwzjoYwvX+8Da8KPALACMTc9mtgAwGIzNC7MAMBgMBoOxCWEKAIPBYDAYm5Atz549Y0cADAaDwWBsMpgPAGPTw3wANh6sTzYerE82Hu/bJ+wIgMFgMBiMTQhTABgMBoPB2IQwBYDBYDAYjE0IUwAYDAaDwdiEMAWAwWAwGIxNSJ0CUEHMacCWLVsafgx7x1D4WLV6nsBh2QTjtm6M/fb+xZUv98GwynNZTmff/wZvQeKgER3f54D5HAK7jPDc+ai3Z7wvtz0wym8S2vcteRpGt7EPkbn3L2pBxhgMBmMN6v7TMg93ogq3/i172gL70wCUm+6FuN4fjYdxxFUPUsUPGAhidxAzD0chb5T/Ld0kI/CgCDSvn5TBYDAYjA/NWx0BqDdcMH4ewPhXHTBvH0ZqHihPBeDaa4Z5uxkmsQOu79Mo6+nTX5vR8U0E48dd6PvcBsv2Dhy+qtsR5otIfNOHju1aXvOuPozcLgL3A7CdTqHyPArv3j6M/wagnMbYgQ5YJAsskgW2r8LIVVav07uwZl2hIve/w7BJZpi3mWCxDyPyu6pfKiD2dTcs2y2wSGZYOj0Y/7mykK9w9TBs282wyDZ0Hw2j8Eq/NJ9DsFOEd0r7e2yvGYd/iGDkQB+6Oy0wyy6M/6rWtVU3zNvMsMjdWjrZhMP33u1ZGetTuT8Gz14zzKIJppps1mhSkPmPCx2SGcatZnR/k9Bk/o9x2Ix9iNW6HypiB4yw/VuTo7VlbCnl24dh2e5C5A8AahGJ033o0OXf8vkwYn+oC/dYVcYYDAZjLVaLE5w5JRE3GF2MQUxE1YSbOF4mX0KPa/wySV5BIHdM//54guy8SP609nX6hEhcu5uietzm6k9eElp9NP2atHjPO3w0/VK/9jBE7qEJmnlNWhzv3UHtb5qliR6epBNJLbb06xLFvxRJPDZN1UZ1akDpkoO4hfIas1Zdq3d9JLbVrlVp5px9oX4z38nE94QWYpDPXnOT2Ob9/9s7v9A2jjSA/wo6WIMORqCDXfBBZVzohhQscYFINA9R8MOtyIEl8mCLHpzV9iH2U60cxHb7ENQ7CHIP7qw8XOMEriiGA9mQYBVaTnnwIRdyWPdQ7EBN1UBAghi0DwYtnGD6sPK/87/o7CNxPT9Y0O7M7Hyr75udnW9n9pMLDSlldVpGRVCOLbqJzUpWRv2aDH68LOV/luXEeSGHHkrpxgzXpH51M3Z6U5ZvmFJcy8uGlLLxYEjqvSlZqEkpZUOWb4al8Opy5KuDr0fx8jx79mz3gRd5OdRtypGv3DjajcUxGRRROV2VUs4NSc1ryqF7K27b+C4royIoJypSytWsDAtL5rfCbzdl/prYiqd+aHuoTsuosOTdF1I2ShMy3GvJbMW1m+VbQSnenZDlhnvO7+9YUu+bcO35MBs7xezRieKVo3Ty+nFcnXTkAdAARIT4ZvhQr8Xd76rMDLb3e6NEextUn7eHQB4Ql5LEu9vlTZPARo36BvALgbFeZm62xGrdQfvVGPkHI3td9M+LzC2ZpK5bCACPTvzDOHw5R7m1j0wH8e0kkZ930dW1Y/NFmHrKkbKWHxVp9m+maQRvLFBdnCBIheKjVSKDKcz2e5LAtSRRZ4HiE3CWSix3WyQvuolaX5KhCweLGBpIYnrcOkwzALUaDWB5sQT9Q8R1AEH496NEX5dXGT9BnMcLFEWc1GUBgHg3S7m6wMibbrqmW4y+Z7q292aEoF6jXnuJEx/WHjbrrkyRuL5E7IsCY30atCoU51aJDKcJCwCNwO9GiNaLFL7t3MYUCoVik467EU0Y+Lb26pQ+zzA1V6bR0sDjUF9zCO7I3+XV/msOQdt12Zeh+HeD7OefkvhkmUZ3lNR4lsxAYHeFtk2jVSH76x5ym9K2mjSd6NaNc5dMT6e40p9lpQV4ImSeFIgBnM9QPmIOwP6yOtjrNXzdvu00j4bwAq0GNVvD8IvtIh4fQtjUbAfbtnG8PsRWnQKfOGhGhYbw7kjzbP52sG0HX+/2v45XxxBdB1+I4ljY63Ucbwhth61oO/Xm9e2yE62DVnRgewBwymSGy9hESembuRrUbIfSeIieP2xnbQKJF3RoYwqFQrHNscaRzqNJkp81yDwuk+p1RyuTFyIvvVpAvzxC9vIIWRyq82kSw6MELiyQ2pnJL/BpEVKP/7E1AjuU3hEKlSROC7ej9oN9ZKHD0BB+g1q9gUPb49Cyqa65nbIhHMrrNtB+CGg1sG0Dn19DcwTaRgO7RfuftqmtO9DbWf2aV8OxG9uHNurU7CbGsa5LcRDCr6Ot13bozaG+VgXd5FA/U7s1NbfmoTg0Heeg3PuUD5CcLWI9tEgOTxEsjmF6DAy/wPpohcLg3o7drp+EjSkUirPIsb4D4KzXcESAc90a4FCdnaH4HOyNo2961ftJrnz4gGoLQCPwTgCfx2FPSd0iHl5h5k6p3ZE7rN5Pk/xjaf+O3aMh/Dq6rqP7xYmsYIhctfB9nWPmqesRWP1TgtDgNFWCWFdNyrMzrLYFr87OsOC1iF8AEY5g/lAkv+hKan8zTf5J5/WHwiEaX89RsgFslv4yQ/mkl6EpttAux4huzDE9705ntf+ZwQqPUjhqiZ7fwKDK6lrbGNbyzHWib4+B+bZO9NYMabIkP1nC8ZhYvwlQvp+j0vZ42f/KMTqco+KcnI0pFIqzx7EeAMTAJOlAkbh5jtClGJ86KXIfBVm5ZZH+8vBxd2BglLgzTWxzFcBAEfP2NKnuPTkZuZcn8UOayFs99Lx1jsSsQ2wggtjvxAfx70lCXW/wxs92b12Xpo70WGj9GQrjBvmrAQwjQOxhgOz9SYIeCI7nyb1dJBF0VwHEvvCRmc0S9QK9I+Rum5R+a9Jjhkj81SAx0Pm4XR/Mkg0v8/47PYTCSfJ6nJiuXgH83/APkXuQwrkdwTAMzA+WiN65e7QHSsRJj5sU3wtxxUqQ+DNE+w3XG9UJWpCxexmM2SSj83WCNwrk+kqkgm5bCX1QRAxYBDVOzMYUCsXZQ4UDPo04Rd4PpBHzK2QvvmphTj8qzOnrh9LJ64fSyeuHCgd8FvhmknO/jJFru5br83lKngjR869YLoVCoVCcWtQDwGngYprp6xoz/QF6Aj1EPnNI/S2Lpb4iqFAoFIr/EbWa/FQgiN4ssHzzVcuhUCgUip8KygOgUCgUCsUZ5Ede414vqRhVnwAAAABJRU5ErkJggg==;" parent="1" vertex="1">
          <mxGeometry x="253" y="563" width="392.7" height="273.05" as="geometry" />
        </mxCell>
        <mxCell id="rRz7DNHcUPPnFrl2Jx9h-96" value="" style="shape=image;verticalLabelPosition=bottom;labelBackgroundColor=default;verticalAlign=top;aspect=fixed;imageAspect=0;image=data:image/png,iVBORw0KGgoAAAANSUhEUgAAAdsAAAEQCAYAAAD4Vd5DAAAABHNCSVQICAgIfAhkiAAAABl0RVh0U29mdHdhcmUAZ25vbWUtc2NyZWVuc2hvdO8Dvz4AAAAqdEVYdENyZWF0aW9uIFRpbWUAdnIgMDIgYXVnIDIwMjQgMTQ6NTA6MzMgQ0VTVA00ZhwAACAASURBVHic7N1vaBvH/uj/d37owBp8YQUuSIf0khUJdEUClWig0qkfRCYFy6RgiRQikUIjN18au4UTu+WeRM2DHCf9kto5fFu7B9qogRY50CAFGizDCVEeJJUKDVahxSokWOltQLrUIEEMXohhfg+kJP5vt4kbJ/m8QGBpd2dmd2Z3dmZnPZuu5b9Vf3vZjxB/lv/7f/8v//t//+/HnQwhNjQ5Tzaeh8mT/+8Rp0UIIYQQC0hlK4QQQqwzqWyFEEKIdSaVrRBCCLHOpLIVQggh1tmylW1p7ARdr7px2ptoarLj3NFG10dZKrOPINapPInzxUcQEBQvJMhWllpSYyTUxKZNm5b8NO08waNJgdiwZgvEd9iJXlzw90Owfhhh5Hqt/uXWMG32DhJTD51SoELiNRddFy2yh5y4D+cfRaCPViVBh72N4duPNxnz8mA13/Xh/l9h0taC32fz9G1rInregutx3H9Z+jqxaVMT0QtQ+byDpqWWN7UxfGvpqCtXThD1uXHvcOM2vYSPZCg9iuuneCItWdmWzobxv5GCvQlyv84wc6dE7uMQM1+G8R/KsMZivizr6hDx8wUWlv/fr0j61PAyla1OJD2DUgqlFLn3TLS9SWYa32e+P4r50PGLJ4bNQ/xqiUT7wwVT+LKfRL5a/7IlRupGkmjLwyePWpbMjz6CrRqBU0Vyx32PINCn07w8eBRe6mfibv26oKpJgs0ejhYa39UMyc7Gei/2M35vvXufmct0b1kizKk0vZEk9mM5Jn6cYOL7YYyxKF2flx5dusUTZXFlO53hxLEs3pMZzrzlw2gGbDrGrm6SF5IcbXc2VqxR+HcXbTtcuHe4ce1oo+fzRgV6e5g2e5gTX8WJvtaB3+PCHYyTnQKuxQm8m6ZyKY7fFyc7C1SynHjdi9t04zbd+A8MU2jU6Nl3XXgPJxg8FKbjVT/ubV66zhaBCok3wgxcL5LY5yX6OwuxdakH1/NdZKYX/GZ0kakViO9wEv3nIF3BNtp8bty+KIkfGrcHVon0+x14G+l1v9rDyM8Pf+vwLKuMxQnvdOHa5sJpeAkfy3LvHipz0In74AnikQ7aAl7cZhs95+r5XfsqjL21j8HDYdpe9eM13XQcybDo/mu2QH+rQWys8f12hvhrXlyGsx7fP+/FVyP/URS/WU+La0cbfefrcRX/1UH0bJHcqQ68h9LUbiUIb4uSbLRs77VkXGa9JdNxOE3Jqsd9YqeLrk8S9L3eQVurG5cnzOD1B2XGujJKwRMgoEP2fRP/sXrLtvbdYD3MbS5chgv/G8Pka6vEx0rnDUCF4Veb8P5zmb6dZY9NXflSnA6PC+dzTtzBE/XzGuBmmr6gG5fRSGtk8H5arXNh7K/GGTzgxbWth8ysRfFs/frh2ubCtW1+PLXvBom2Ns4v00/0wyy1pfJg2RL1mN0uUrQ8BHbp9e/NPgIejVJRKttn1rX8t2qeq73KaA6pZFWtaCbTrYzNIXWm1Pj+44AKtJiq9+qMUuUzKqjpynd8XM0opdTdCTXwiqYCH08qpZSaOOlT+t5kfZmaVEO7dWW+M6qqSil1t6xS+w1lvH1ZzSilLr9jKG1rRCV/bcTzTUw5Nnery3eVUndTKtLiUUcLK6dVKaVy75lKux+nUupuTvVu11Xoy3s7OqNG3zKU+fecmrk7ro5u15S+e0BN3K0vGz/uU/orA2pSKTV+3KP0V46qXLW+bPLToHK8eFSN3109HUKpX375Zf4Pd0ZVzOFQkZFy/fuNIRXQDdWbrX+9/LZDaY7QgzLwn25ltoRUsqzUzEhIaTZTdWca+VhOqshmQ8UyM0rdHVdHt+sq8o2a/7eaVEO7Hcr3QaN8llMqttWhIl9Xlbraq8yWoBq60QhuJKIcLRGVuqOUUlV1pl2/X45VaUgF9KA681s93pDDVLFvGvtwJ6eOvqwr36kJpdSE6n9JU449Q/fLU+49U+l7k/Uy3yh7wU/L9/fX/Huuns5dugp82ojvblml3gup3nR5lfhWOW/UjJq8OqouF++fDXOscGzKZ1SwWVeed0ZV+W4jzpfunddldWaPrsx3Ltf36c64Ovqypjwn6+mZSUeUpntUd7qR3mpShVp8qr/QSMNvl1X/vpg6c0Mp9VtKRTYbKjIyeX9Z74sOFRqpLsqDmXRMOVp0pS/8OIJqqKSUyvcqszmkUgt39W5O9W7VVOTrBQuqSRVsXnxNKX8WVNqL/Ws/x2dyqne7oSJfTDaO46jq3m6o2DerXFjnWHSeiMfuYfJkccu2WqbabEdvXrmSzo1lmNkdI7ql/l3bHiPmK5H9T+Nu2WYS3udBa/xtbtMpl5e4D72dIZ03iR0KogPYHIQOhmAsTW4WsIHeGiW0uRGPaWJMl6lMLw7qd7H5iEUMsl8l63fT01nSYzqhiK+eZsC/N4ppA9DwtAdw/pQjP1Ugky7iP9CHT68vM97sJlDJkPrpIdP0rGoOcuZGicQ+R/371gCBrVVKtx+UF233nDKwK0RAy5EtNBZuCRLd3WhBOEJ0+Krkrq7wRP52hnTeIPxGo3w6QgwViiQ6dXhlgPFSiu6tjeB2BfDOliit8lzWujpKVg8Sa2/sQ7OP2OsmhbEHrTVv54PyZJoGlMtUAWZzZK4aBHY7FoRqx+7QKI2NkP6uRA0HoVMpBjodq8e34nmjYbwSJPCCxiIrHRsATMKHgjhs9Tj9O7TGee0g9nWZ8VOB+nnc7CHgc1Iu1VtyGoDuJ7SnkV7NgVMvkR1Jk/+5Bi0Bjo6cIbYVrCspMs0hevYa9XVbAsReN8heyCx69KR1nqH8W5Xqwk95dOnu3YfxQxzvwme7zi4ySz2H1Xz0/ztG5Ygbp+HCvi1KbtcA/e36EiuLZ8HiytbuxD5dZql68QGL2lSZphY7D05XHb1Fo1ZrPEuxNaHNPZdtwOwSXa21GtXZAgPt97qTXLj2J5mxqvcr1KZmjfmXhaW7bDOHXDidTpxOJ973Vx9gYu6L4f0+SeJnqI0lGd0cJvrSvaUaesuci59uR5+tUZ2uUq5ZZI94H6R3Rw9ZatR+WzVKsaQK2c/7CLd68fv8+FujJG7Oz2N7i3NOGWhCa65Rna6vo+l2dNu9ZRp6M1RrKzzTq9WoYkefc93TmnU0G1ArkDwWpc3nxd/qx985SM4CVhnYUpuqYOnOOekAu26Hao3y7L10zSnFtjl/X8+S1QMEty4MVSfyWZb+nSUS77RhON20Hax3I68e39rPm/k7ssKxAbA1zb8Rt2n3z+vSlUF6Qn68Pj/+Vj9958vzYtR0J/b7XwIMjCUITqfo3WNgN+pdxRUa+3YrQdR8cE3o+KyENl2lvPoeLMl6FAOTlnpmWz5D0LbEtedmgvD+UXwjJaqlSaq/Zone7CN4vLB6POKpZFv0y4sBAvowI18Vif19wRCinxP0fdpE7HQEvcXJzFQVi8ZdKzXKU6AbduB3PJdo0bFrfmJXlh5okF17SARPjVM8ZmGhoTWv4Q5yS5jIrjjDI1mMn7O4I/1zBk1Z1KZqQCOcWpWaTceuO3G26AQPT5Dat0TLQPxu1sU40dNV+q/kiG3V6iOHd/rnjRavTpUflLXZKrWajl3XYAqsWpVaoxcEatRqFvbt9iViatB17FSpTQGNwU3W7SJlzaByMkrfTzFyl1KYzdTHH5jJVfdBb3Gg1cpz0gHVqSo8p+NcfJbNU7iUQduVWHrAXrNJ5IMzRD4ApvIMvhEiesxkonXl+P7w8KEVjo2x0naVBD2RJMaXWcYbrdfsIRfRFSo5bWuQ3k+D9AK1nxJ0d0bp3Voi0eJAe6Gb1Pf9eBYdu/mtAOtCF8bB1OLbCJuf/vwo3Q4nTrKUbgHb5yyfmqA4ZWA+/2jO4YXXntr5frKODgZ2NW7YdQ/RTpP4l1lKeFY+luKptLhl2xzk6MkgpWNhov/KUJyywKpRHBsk3NlHVnPgtIF/T5CmSwmSt+qbWT8lGMkbBNs9q0aq2RoXSABHkJBvgsSn2cZpZFE823d/QMQqIdFEjVq1cao16+gOBw6Hvmo3eJ2D8P4g5a96iF/1Etk7/xTInU9QtOppyn+dobwzgE83Cb5mkDs7TKHR8q5dH6bnwDAFGSP1h1hTZSzdwL1ZAyxK5xJkbkNteu4AouT9slYbS5PFT+BeUbudITnW6Ky9lSKZdxJoXWGs+eYgIV+R5GeNMlbJ0Lc7QN8li2qtirbZrA8MnK2Q+TTNxKyFdS8pNotqbXFGa7s6CNQyJO6lo5Yn8XUR/54gCzuH5yuR/Y9FILjEeWNliQc6OPFd40xoMTG3ND1kfAAWpWsZsksN6lvh2KxoukZ1Vscw67FbPwyTuFrFmraWbk//MEjHq31kGsnXt3gxdAuw0HaFCU6lGb7YWDhbIX0kSt+973PyYNVu5C1RYu1lhg7HydxsXGFuZhk8eILczm5iL/FoLLj26KaJcTNLes6gytGxcXTTxLlySOIpteSrP8b+FJe/jtE01kfAaGKT3aDjWA7j/SzZxjMZbfcAqSN2RvbU3yPz7s/i+ThJfA2F19gVxv9jHI8ZZeS2QfcXScK3+vBvc+Ha5iZ8zqKj08+qbVObl2CnRvJ19/3Rm7+X3h4jTJFqa5TwvKuURqBVY/A1P95tBtGrXgZOxzAAz3sphl/MEvPUu7i8b2XQO4N4pKH7h+idcfqMDCHTjbe1gxNWjOHDHiaOB+kbq18gnbu9VI604d3hwny/RPDjASKNlpe2PYBxtRv/Tjeu1kF46wz9u1fKDIPuzxIEbvbgdTpx7oxT2ptgeJ9O4N04gUIP7h1e/MFeirsH6G8vM7Svi5HbOoE9QWqn/bheG5z/nnZLhMRIlJmTgfp7lb5uiu1Jkm+v0oa5nSFTCRBc6rzRAsTeMcm9fe+RhZ/+qRhnjgT+eHwA1MgcD9N3YakeqOWPzYq2Rom/3cTwLhden5/wl3b6TsUwLvUR+HCJc/PFKL2tJeKtja5iT4zCrgT9nTq0hBg+F2PmdKCx3wGGK36irQ5ghTxYkoPIF1kGXyzSv9ugqakJ5+4+sluPkv26u/EMfR283E/ypEl2f320uGtHBwm9j/TJIHKZeDZteuan2JstcqK1g9KRCc7saZwGswXingClk1WSex5v8p5Gv3eaquwhJz1amonTi989tc6FcX7sJ5fvfWrem15pfx8Va6yHWCVO8s3V28Hi8ZAp9jaeh8mT9bqve0JYFD+PkyDGaLvcbz65nqb++xqVigXb17c8lmf99OyRilaIP8uz+7+RayNEDSeBLzSOnu1dv+4kIdasyPCrJt3fe4mF1redbuyJ4HsU//lKCLEm0o0s/nTSPSbE6uQ82XgeJk+e3ZatEEII8SfZdC3/rXr+r5sfdzqEEEKIp5YNkK4K8aeS7rGNR/Jk45E82XikG1kIIYTYwKSyFUIIIdaZVLZCCCHEOpPKVgghhFhnUtkKIYQQ62xBZVsh8Zod95JzwdYYiThxHVw8gbMQD8+iNHaCrle9uOxNNDXZce5oI/rPNKUVCpx1Lozdd2L1f0g/WyC+w0704qNMsxBCrM2CytZB+M0g1XMJMtML1rydIjlmJ3JQZq0Qj17p8zD+N0bR9g1z+dcZZu6UKXwew/6fGP7XhikuMy+q1pmgNLaGSQhsHuJXSyTaH3XKhRBidYu6kfX2HqLNKRIX5s8mW/wqQW57jNhLUBmLE95ZnxrLaXgJH8tSgcZsOS66PjxBh+mi47//h/Bzbvq+mxNQbYTwc27i19d3x8QTpJYmfmwc/8dpht701eeStWk4Xo4wdH4Y/49x4udqi8vXJyWsCzGM9sZUa7Ml0ofbcD3vwu1po+uTBH0eJ12XgNkC/a0GsbH63yd2uurLX++grdWNyxNm8Lr02Qgh1sfiZ7aaj9gbJtmvktyf7XK2QHKkSOBgFGM6Q/xAAu1wjskbk5Qvxah90sXAFcCm0WQrM3pVo//7SUb/z38R21Ml/cWDrufaxRTZLVGij2rSZvHk+z5DdjZAdKlZaBwhorsheymHtbB8vTN/7tba+TjdFw0Gvp9kopAiVk6QuMninhibBpQZvWQRGxnl8tVxkruL9J9KU1u4rhBCPAJLDpAy98fwFxKM/FT/bl1JMDIdJtbpgOYgZ26USOxrXBi3BghsrVK6/eAy5d4TxdMMoBHYH4WLSTI1gAqp81m8kchTM/eoeHjWVJWa7sS55PMJDWeLHatWvn/D9qB8zTd+NQu7I4QcADq+93sIrDCbk7cz2pjtScM0DSiXqT7kvgghxFKWHo28OUysvUzyizwWNTJnU2j7YgSbASpkP+8j3OrF7/Pjb42SuDm3+01Db9EffGuNEnFkSJyvwO0U6e/9RPYaC2MUzzCtxYk+Vaa8ZC+uRXmqitbibLRQ55evuevVahb2FvuDn5odOPWm5WJFb55Tu9tkJIIQYv0s8+qPTvBgFM4nyN5MkbhkEDvgA8C6GCd6ukzobI5cPkfuSoLIlvlbz7ts2TzEIia58ymy59OMt0YJy7wHYq6dAQJa44Zsoak0qUsawXb//XK1dLWooTVrWLU5bdPpCuXazKNPrxBC/E7LvmervRwjunmUwcMJxltjRLfWf7emyli6gXuzBliUziXI3Iba9PKDS4x9MfzfD9Lz6QSBfSGWapeIZ5geov+4n/H3g/SczVOaBrCoXB+hr7OX7M5++jtXLzVen5fqpTTZGkCN/CcJcsuMYhZCiD/T8v/UwmYSO+AlN1ai480o94au6J1x+owMIdONt7WDE1aM4cMeJo4H6Ru7s3RYm8NEd1cpzoaJtUt3nVjMeCtF7osw1XMx/M4mNjXZ8byZoBZMkPs6hrHCs9d7HPsGGPCN07XDhdcXJekI0eFYrhtZCCH+PJuu5b9Vf3vZv87RWOQPe4nZEkyc8q1zXGKj+9OmDrMydBl96BcmGHh5/aN7ksl0bhuP5MnGs+Gn2LOuDxK/YNB7SCpasY6+i+N+voPhxoC9yoUkWZufwPbHnC4hxDNvnSvbEsOvuXDuHcU8nSC2ZX1jE8+4l/sYOqSR2G3gMlz4T1vEvhxojKIXQojHZw1Pwh6GQfc3k3SvbyRCNOgE/pFi/B+POx1CCDGfzPojhBBCrLNN1/Lfquf/Ki++CiGEEOvFBsiIN/GnklGWG4/kycYjebLxbPjRyEIIIcSzTCpbIYQQYp1JZSuEEEKsM6lshRBCiHUmla0QQgixzhZUthUSr9lxv59fYtUaIxEnroMZlp/fR4g/4GaCjudddF2szfu5dDaMc1sX6SVm3rvH+ilN/I023E47TU1N2A0vHYcGyd5eIb7ZAvEddqIXV09a9pAT9+GlzgchhFi7BZWtg/CbQarnEmSmF6x5O0VyzE7kYHCZ+USF+IO2xkic9pF9t5uRe5XkzWF6jhSJfjZAyLH0Ztb1EwR2dZPf3E2yUGZmZobSpQGCVpJwa5iRW8vEZ/MQv1oi0b560gKniuSOy//0FkI8nEXdyHp7D9HmFIkL81sZxa8S5LbHiL0ElbE44Z0uXNtcOA0v4WNZKlBvMXhcdH14gg7TRcd//w/h59z0fTcnoNoI4efcxK+v746JJ4tj7zBnOgv0HkpQsooMHuyneihJ/67l5rEtkTgyQGVvktGTITyO+i2gvjVA92cp+rdliZ+s98JY58LYX40zeMCLa1sPGatAf6tBbAzAoni2C/82J64dXtreTTB8wIn3SAGA7Psm/mP1lm32XRfewwkGD4XpeNWPe5uXrrPFdT82Qogn3+JntpqP2Bsm2a+SlO79NlsgOVIkcDCKMZ0hfiCBdjjH5I1Jypdi1D7pYuAKYNNospUZvarR//0ko//nv4jtqZL+4kHXc+1iiuyWKNGX/qQ9FE8IncDJJD3VOOFdYQZscRL/8Czfi1LLk/3eTmhvYPE6NoPwXj/lK1kKs4CmYX2fobQnw+SNIYJz/yP4rQQ9h8fxf1Zk8sdxkrsL9RvNZf5rePFiFueRFKP/yTF+2svosWGyMkG9EGIVSw6QMvfH8BcSjPxU/25dSTAyHSbW6YDmIGdulEjsa/TtbQ0Q2FqldPtBS9i9J4qnGUAjsD8KF5NkagAVUuezeCMRzHXdLfFE0jxEIm6K35VwdwYxV5omo1alNqtjf27pxQ6HjlarUYV6Zaz7Ce1Z3B9t5bOMbwkSba23oB17eokuNyWfDfTWKKHGfzfVTBNjukxl4SMXIYRYYOnRyJvDxNrLJL/IY1EjczaFti/WmKqsQvbzPsKtXvw+P/7WKImbc4dMaegtD7r+tNYoEUeGxPkK3E6R/t5PZK+xrjslnlA/D9Nzaobuj7upnuxh+OaDRbWvojidzvonMEhRt6PbapR/WzqoSqWG1aJjb3zXdOf9v+eq1Wpgd6Lfr9idGM8vPyqhqVlb0JKW4YJCiNUt03bQCR6MEt+XIHvIR+KSQSxfHyRiXYwTPV2l/0qO2Fat/px2p5+5T67mXYxsHmIRE+/5FNnpNOOtMZIy74FYyCpw4s1+rHezDLxjUPgtQPDgIIH/9GLaQN87THG3hQVomo6u1wj6qpz4KkNtV5D5T3ZLpM7ncO7uxbPKJJJasw53alizNM6GMuWKBVvXaT+FEM+kZd+z1V6OEd08yuDhBOOtMaKNi481VcbSDdybNcCidC5B5jbUppe/wzf2xfB/P0jPpxME9oVYbsiLeFbVyB6JMmTv58w7JqDhOTZMz90Bosfz9bajpqM7HDgcDnRdAxxEj/fhuBgj/P4IhUq9/NVu5UkcDBMvhRk4ssTz3AX0nV7Mm6Okf2psf2mYZGEdd1UI8Uxa/p9a2ExiB7zkxkp0vBnl3tMuvTNOn5EhZLrxtnZwwooxfNjDxPEgfWN3lg5rc5jo7irF2TCxdnlxSMxXOd9N13mTwc9iGPdaojYPRz/vw/55jPiV2pLbaS8dJXtlEN/tIaIeO01/acLY1U3aFiN19cyyrwzN80Ivg8ecpPYYuHf6iY55CUsZFUI8Ypuu5b9Vf3vZv87RWOQPe4nZEkyckncWn3Ube+qwGiMhgyHfOLn3np2xBRs7T55Nkicbz4afYs+6Pkj8gkHvIaloxQYznaHLcBE9X/83VdbPSZJ5J37fs1PRCiHW3zpXtiWGX3Ph3DuKeTpBbMv6xibE79YcpP/jCLXjfpyGC3dnEuexJPFXHnfChBBPk1XGaj4sg+5vJule30iEeCiOPf2M7ul/3MkQQjzFZNYfIYQQYp1tupb/Vj3/V3nxVQghhFgvNkBGvIk/lYyy3HgkTzYeyZONZ8OPRhZCCCGeZVLZCiGEEOtMKlshhBBinUllK4QQQqwzqWyFEEKIdbagsq2QeM2O+/38EqvWGIk4cR3MyAye4tGazdO3bRObmppomvOxb/MT/WeGyuxaArHIf9iG6zknroNplp66QAghHo8Fla2D8JtBqucSZKYXrHk7RXLMTuRgcNVpy4T4/TQiX1aZmZm5/ymdi2J9ESX679Iati+RTecwTxWZ/EymcRRCbCyLupH19h6izSkSF+a3DYpfJchtjxF7CSpjccI7Xbi2uXAaXsLHslSgPpG8x0XXhyfoMF10/Pf/EH7OTd93cwKqjRB+zk38+vrumHjy6S91E9sFEz8WG79YFM720LbDjXuHG7eng/jFElAiEQkz9LNF7ngA77tpasuuy+Jy+kkJrBLp9zvwmm7cphv3qz2M/Nzow7k9TJs9zIl/hXEbfuLfLZVaIYRYwbX8t2qhiZM+pe8eUpP3frg7ro5u11Xoy7JSd0ZVzOFQkZFyfdmNIRXQDdWbVUqpCdX/kqYc7QNq/I5SSs2o0TcdynhrVM00gqp+GVL6S/1qYlGs4lnxyy+/zP/hbk71btVU5OuZeT9X8wMquNlRL3dKqZlstzIdQTX0Y329me/7lc8RUEM3lKqXPf1+GKuvO7ecKjV+3KP0V46qXFUppWbU5KdB5XjxqBq/q5Qqn1GBZl35PrisqutxQDaARXkiHjvJk43nYfJkyQFS5v4Y/kKCkZ/q360rCUamw8Q6HdAc5MyNEol9jZm5twYIbK1Suv2gJezeE8XTDKAR2B+Fi0kyNYAKqfNZvJEI5rreQognj0X6gBP7c3bsz9lpatqE8WYG40iaxP56WctdyFBt7ya2vf4gQ3upm5hnnPRYZVFoa1n3fjmdLZBJF/Ef6MOnA2gYb3YTqGRINc4BDYOO1wPSPS2E+EOWnvVnc5hYe5z4F3l6T5tkzqbQ9qUJNgNUyH7ez2A6R3VWA5tF5aaF5/7GGnrLg0uS1hol4giQOF8h1J4i/b2fyKcyV6hYSCP0RZnk3nrlWPinn0AmQOwtX6OCs6hNlamNxXBfbXqw2bSGw1eGeSMJ1rLu3HJapVyzyB7x4jr5YPUZIPwb4ABsdnSpaYUQf9AyU+zpBA9Gie9LkD3kI3HJIJavT/xuXYwTPV2l/0qO2Fat/vxrp5/inK3nDaCyeYhFTLznU2Sn04y3xkjKvAdiFZ6/9xP7Okzfv0NcfsekXjk60fedYfLTwBJbzC+Ba1n3QTl14mzRCR6eILVvieF/ixvOQgjxuyz7nq32cozo5lEGDycYb40R3Vr/3ZoqY+kG7s0aYFE6lyBzG2rTy78QZOyL4f9+kJ5PJwjsk5GiYg2aA8SPhymd7CNxq/6TvzOIfWyYxM1GWZvKcuJADyM3F2/+e9bFZhJ8zSB3dphCYxR+7fowPQeGKch7bkKIR2D5f2phM4kd8JIbK9HxZpTGE1r0zjh9RoaQ6cbb2sEJK8bwYQ8Tx4P0jd1ZOqzNYaK7qxRnw8Ta5cUhsTZ6Zz9Hd44Tf3+ECqDtGiB5zMlIpxuX6cLlizOxLURw6+Jtf8+6AJ73Ugy/mCXmqY+y976VQe8M4pHiKoR4BDZdy3+r/vayf52jscgf9hKzJZg45VvnuMRGJ1OHbTySJxuP5MnG8zB5sswz20fLuj5I8CggqwAAIABJREFU/IJB7xWpaIUQQjx71vl/I5cYfs2Fc+8o5ukEsS3rG5sQQgixEa1zy9ag+5tJutc3EiGEEGJDk1l/hBBCiHW26Vr+W/X8X+XFVyGEEGK92AAZ8Sb+VDLKcuORPNl4JE82nofJE+lGFkIIIdaZVLZCCCHEOpPKVgghhFhnUtkKIYQQ60wqWyGEEGKdLVvZlsZO0PWqG6e9iaYmO84dbXR9lKUy+whincqTOF9cfb01KF5IkF1uCrTZPH3bNrFp0xKfpg5Gaststx5+OoHXHiZtAbeGabN3kJj6E+N/GslxFEI8IZasbEtnw/jfSMHeBLlfZ5i5UyL3cYiZL8P4D2V42DrKujpE/HyBh5+9rEj61PDylS0AGpGvZ1BKzf/MjBJ5XHP9bYmRupEk2vKY4n9ayHEUQjwhFle20xlOHMviPZnhzFs+jGbApmPs6iZ5IcnRdmdjxRqFf3fRtsOFe4cb1442ej5vVKC3h2mzhznxVZzoax34PS7cwTjZKeBanMC7aSqX4vh9cbKzQCXLide9uE03btON/8AwhUaNnn3XhfdwgsFDYTpe9ePe5qXrbBGokHgjzMD1Iol9XqKfl/7YEVgprQBWkZF323AbLpzPu/C/MUy+kbbKlRNEfW5cphu36aXjcJrSvTuIqSwnXnPjMtx4W8PEL5UfxHkrQXhblOQUWOej2ANxEh92EQ624d3mxv9u+v585db1YaI7XTi3ufG/1sfIR2HsgWH+4N5uUBbFs134tzlx7fDS9m6C4QNOvEcKQI2RN1y4jMbneTtNm5oIn7PmHUduDuK3dxD/pIeOV9vwe9x4Xx+8n1dCCPFYXct/q+a52quM5pBKVtWKZjLdytgcUmdKje8/DqhAi6l6r84oVT6jgpqufMfH1YxSSt2dUAOvaCrw8aRSSqmJkz6l703Wl6lJNbRbV+Y7o6qqlFJ3yyq131DG25fVjFLq8juG0rZGVPLXRjzfxJRjc7e6fFcpdTelIi0edbSwTCLv5lTvVk1Fvp5ZfkdWSev4Bx7laB9SEzNKqbuT6kynQxnvXFYz5aQKOUwV+6ZcD+dOTh19WVe+UxNKqRl1+R1DOTrPqMm7jX16y1Rac0ilZpRSpSEV0IPqzG9KqXREac0e1fuf6oP03Nunu+Pq6Iu68p2sp23mxhkVeUFT2u4hVV45eza0X375Zf4PpSEV0D2qN1s/BuVvupVH15Tng/EFW86o8VMB5XixV+XuqPnHsTSkApqmPB/kGvnYKFf/WBiGWMqiPBGPneTJxvMwebK4ZVstU222ozevXEnnxjLM7I4R3VL/rm2PEfOVyP6n8SzWZhLe50Fr/G1u0ymXl2hm3M6QzpvEDgXRAWwOQgdDMJYmNwvYQG+NEmr8R0nNNDGmy1Sm13o7YTHyhp2mpqZ5H/uBzINVlkvrbJHMxRL+fVFMDbAZxEZKTJwKwNVRsnqQWLujHkazj9jrJoWxLJXZItkrZfydYQxbY5/eCOJcnLj6Pm0OEN7V6NNucWO2lKmUgds58je9RPfX06ZtjdHXaax1x58YVj7L+JYg0db6MXDs6SW6fYn1rsWJnYa+r/rxLVU+bSbh132NfDQI7vFSupp9ynoBhBBPosWz/tid2KeLlGvAss/CLGpTZZo22+sXNgB09BaNWq3aCLkJTZuziQ2YXeIpba1GdbbAQLuL4XupmZ1hxgpQmQYH0NSsoc3baOmnvZlDLmIXZgBw7k8zfhJAI/JlleRebcltVk5rlXIN7Pqch7taPS2VqQqW7kWfcwTtuh2qNcqzVWrT2vztdDu6bZnLvmaft3/avTBrNao2HfucYJzPO9GuL78rT6JarQZ255xj6cR4fkF+VdL0vJnEOJmjd/syeWlz4phTZu3NGkxXqTVu2oQQ4nFZ3LJ9MUBAzzLy1RKjhX9O0PfuCMVZDb3FycxUdU61V6M8Bfpz9t+XghYdu+YnfmWSyRuNT6lMuZz83QOYgqfGKRYKFApFsscexUT1dpy6RXlqTou8VqJ4q4be4kCrlesX8obqVBWe03Ha7OjNFtXanO1+m7/umjRraLM1qnNa8eVy+REMLNtYtGYd7tSw7h+fMuXKnL2cLZE42E1uV4LEmyu07GerVOYc8mqtuqASF0KIx2NxZdsc5OjJIKVjYaL/ylCcssCqURwbJNzZR1Zz4LSBf0+QpksJkrfqm1k/JRjJGwTbPatGqtnAqlXro5odQUK+CRKfZhujnC2KZ/uIfphdw6hnjSZq1KqNC3Ozju5w4HDoq3aDr4nNQ3CPSe6LYQrTgFUicbCNjlPjsKuDQC1DYqwxlKmWJ/F1Ef+eIA6bid+nkzufojQLzJYYOZuhvFJcS9nix795nMyFRov41gjDF56+TlF9pxfz5ijpn+r5WLs0TLJwb6lF4aMo8XKUxOnGo4blzBYY/TJfLzdWkZF0EfMVP09fx7sQ4kmz5Ks/xv4Ul7+O0TTWR8BoYpPdoONYDuP9LNlTAXRA2z1A6oidkT1u3DvcePdn8XycJP7S6pEau8L4f4zjMaOM3Dbo/iJJ+FYf/m0uXNvchM9ZdHT6V76wAti8BDs1kq+78R/LL7OSxUikiU1/2bTgY6fr4upp9RxJMrwjS9R04jTaGLZ1kzwZQGuJkBiJMnMygHuHG7evm2J7kuTbBqARPJ4gag3if96F29fDRGsEv405rbc1sPmIf9wNH/vro3TfnyDwup8VOsSfTC/0MnjMSWqPgXunn+iYl3B7Yy9ncwx/nKd2K0l0x4NRyR3/WqLnRfMTcCaJ+ry4zQ5SzjjDh1e/+RNCiPW26Vr+W/W3l/2POx1ijUr/8uO9EqP0TWz1m5ENavVpqmqMhAyGfOPk3ltju/TWMG2eDJEbo8TkvdvfTaZz23gkTzYemWLvqVVhJOTEe7jRpT5dIPF1EbN1Da3+J8l0hi7DRfR8vUve+jlJMu/E75MOYCHE00GGjmxoDkInB8m924P5vEWTTcNoHybxjvm4E/ZoNQfp/zhC7Igf5/vQpDkIHEsSf+VxJ0wIIR4N6UYWfzrpHtt4JE82HsmTjUe6kYUQQogNbNO1/Lfq+b9uftzpEEIIIZ5aNkC6KsSfSrrHhFidnCcbj3QjCyGEEBuYVLZCCCHEOpPKVgghhFhnUtkKIYQQ60wqWyGEEGKdLa5sZ/P0bdvEpnsTrf8vO07TT/hwgnxl7QEXLyTI/o71xTPudoYTb7ThNpw4n3fidLrwh+Kkb65tQkHrhxFGrq8+T1Rdhew/w3gNJ06nE3ewj/StuYGVyBzrwNXkpOvSGoK7EKVp0yY2bdpEUyT96KdAvJ0hHvLifM6O/Tkn3lCczO217Uvt2iBRnwu73Y7d6abjcLo+E9U8NbLvummyR0mvNFFGJcvg626a/leYkem5CyyK5/rwO5twHykst/Xq61pFRt5tw2u6cZtu3IEuhteQp5VzUZxNLvquzQnqpwRdATfO55w4t/mJfpJfcRax0tggXa96cT1Xv+7ZDS8dh4bJT82J5/MOmjY10fbvxTNvWZd6cP1lE95jBbgex/2XenlY/GkiemHVXRJPoWVatvUJ12dmZpi5U6Z4Po5/aphga5SR20tvMV+R9KlhqWzFGpUYfiNKsrmb0WKZ8q9lyjcu0+dIE903SGENMyUVvuwnka+uKbbK5zGiaSf9+TLlcpGEL0f3/kGKALMFBoMdDM968DjWmPzOJDNKkfv7evwv5xLDB6KkW+Lkfq1S/TVLNwli76eprbYvUyN07x3GOjBKuVql+n0/zrEYXZ/PPzFrY3H6LoFzpWTcTBBuP0Fpx8IpCy2y7/uJXrDj96w2H9XK6xY+itL9c5BkYYKJ4gSj+6v074uTXenu5fYI3ScL2Of+s3ArT3xvnHJnitJvZUqXeuDjKH0Xl65uS2fD+N9Ioe0b5nJphpk7VUoX+wlMDRLcHSc/N/4tTkpfjjB/zqkama8ysLlRYF7qZ+KuQimFqiYJNns4Wmh8VzMkO1c5TOLpdC3/rZrnbk71btVU5OuZ+b+rSXVmj66Mt0ZVfUlV5U5FlO8FQxlbDWVsD6jeryeVUmV1Zr+pdJumHC94VOSzSaXUjBr/olsFtpvK3G4q88WgOvrNpBLPpl9++WX+D3cvq+7NDhVJLyhzM2U1WX7wWzlzVIVeqpc3xxaPCn1wWZWVUhOng8rQUdpmU3neTqnqirGX1dBuXQU+Kz/46U5KRVo8qv9HpZSaVOOFauM8cKjYf9a+X7m/G0rbl1IzSqnRN3Vlvpd7sLBwVHlaIip1Vyn165AK6CHV/+VRFdkTVL4XDWW2H1WXf1s6vbmRlMrNSW71i6DSX+5XE6vty2/jKvXlZTX3TBt9U1fG3+ek67dRFXsxoAbS/cp3L31LJmNcjf+qlPqxX3n0kEreubdgRk1+P6FmlFKp/boy/zE+b7Pxf5hKaz/TyJOV1p1RqX268hyfePDTjQHlaw6oobJS6k5ShZoN1Xt1buiT6kynqUKfpVTvdvPBsv90K2Nrt7o8Z18mjnuUo5E389wZVbHNugp+UV64RKm7VVWeW/4+Cyp9T7fqfsFUR/Nz1vstqUJbQ6p7n6E8H8zff1VNqmCzRx0tLA5+NYvOE/HYPUye/I5ntgbhvQGqV7L1lsa1fmKnakQvTjJ5Y5LcEQfJQ3HS0w5iX/QT1E1i58ZJvmVgXekjeqRE6Nw4Ez9OMP65n+zBLoZvrts9hHiS2PyE9trJHO6g56MRMtdL1GYBzYHhaLSApjPEDyTQDueYvDFJ+VKM2iddDFwB8+9Jjvp0/O+PMv5paJUJ5ico3rBjbp3TbNUMjM0lJm5YgIHnxXWeU8mmoVlZRm+FSXwzSu77UWJ3BjlxbnH3JDjw7Qvhu5/cCpmxcZytAczV9qXFQ2h/4EFLtJYlk7cT2GXeDyt9uI/SgSG6d6zSKnV48Cz5j+Y0jJfMZedYNt4YInWso5EnK62r4d/tp5xJkq8BWBQvZqnsDBJwAFqA+NdniG1/sEXp8x4GtTjDbzrnhVm5WaRqmLjnTLNivGBg3Siy6Aj/kCVbCxDtXKIbw6bjcCxIrc1DaK/GyJfZ+48LSucTFFqjBJpnljkKQvzOAVK6w45Wq1EFeGWA8VKK7q31ZY5dAbyzJUpTi7fLXchQbe8mtr1ecLWXuol5xkmPST+zANAInB4n93EQ7cck8b1enHYX/tf7SPzQ6PprDnLmRonEvsZFcWuAwNYqpdtrfU57j4U1raE1zfnJpmHXwJp+5E9bl2czCe/z1CsJm4m5TadcXmVfZitk3g8Rn+ohcczH79qXWp4Tr3eRax9iYE+96quc6yU+1c2Zt5evLB+W/kKA4Mtr64937B9icFuawPNOXM878X4M3ae6MQFsDjztAcx790E3h+n5WKf/dISFoVenZ6DZPm+fNM0O09X6Tdy8lctUm+3ozQ9+Kn7Uhuv5xtiB5110nZ97LJvwvhHFcTFBpgZQZOTLMqH9QXSZQ02s4HcVj9rtMrUWT/3ZTq1A8ng/I/kSMzYNZmsULZ3AoudrFrWpMrWxGO6rc64K0xoOXxkWnSri2aRh7ullYE8vANatPOmPe+luj9FUSBFxVMh+3s9gOkd1VgObReWmhecPxKM1W1hzGyGzFlULtOb1qnKWYGtCmxudrZ6OZdXyDB6IkdB6Gf0mhtkMzK5tX6yfEsT2D1KLJMm+56u3Mm+P0H3KovdCN8aGqCQssu930D/by3g5htlsUbnYR3BvFGc+RWTuZWK2yOChBM6TWUIOYME1x97cBNPVeQPVrOkqNBuLK0S7E/t0kXINaKn/ZL6dYny/hUWZRGeAccuCuVX31iixHQMkL1QI7UiSskIkWjWq5x/VsRBPo7W3bGdLJL/KYbR3YNogfzxK309+hi6Nk7uaI3e+G++SJ62G3uJE35dk8sbkg0+5TO6D33+pFE+hSoH0+Txz+zm0LT4iJ/sIWgVyRbAuxomeLhM6myOXz5G7kiCy5Q/EZXNjbqtS/HlObNNFirdN3ObvqWwtimMJEtcehDMzC5pNW7qVOG0tblWtVS1LfE+UjCdBbqRR0cKa9sX6YZBwZwLn8Syj9ypaoDKWJFcpcGK3C9c2F67d/RRqabpNP/Fr/PlmC2QulvHsjTb2T8PRHsJPluz3C9b9OU3qxzLZw9562s0QwzdLJPa56fhXEccLJvYbRSbm1LbFH4topsmiIWwvBgm25BiZ24XfrKM7HDgcOtqS1zQH4TcD5M6nGBlJo0WieDbEDYvYyNZU2dZuZhk+0EG8HKb/fR8aUK1V0TabGM3Uu7c+TTMxa2FZABpN1KhV66Xd3xnEPjZM4t5rHFNZThzoYUSe2QoAa5zEoRCxD7OU7r1SYlXIfpIg2+zDvwOsqTKWbuDerAEWpXMJMrehdq+71GZRrd27uloUx0ZI/7BUt6yD8P4AE5/211+fma2QPTlAzhMl8sLvSbSGlR+m551+MrctrFtpRi5V8frqz0OdDiflmxON101qZNNZyr/7wABUGDnURcaXZPQD34Ln0avsy3SWvn0JnKczDOyZ34PkeGuUcnnOze+lOB49xHAxR/8rfyihS6r9nCXz3RoeF9kMTBPyFzNUGjclte8y5Gomplnft8JYlmIN2H6UXLn8IO3FNN1bDWLnJhj9uwm+KBE9xeC/C1iA9XOC/nMQ3h9cfCPUHCB+MkjpWAfRT7KUGs+LazezJA53MfCziXfb4tsnvT1Kx41B4hcNovvMRcuFWGTp0cgoNE1pjY++xaOC7wypy3MG7M0UhlTkRUMZ2z3KtzuiBrLj6kynQzm2x1Ty17JKvWUqvcVQvg9y6sFoZEMZLxjK2OpTkZOXVxk1Kp5WS43oq35/RvXu8SijRVd6i650h6F8nb3qTKExGrSaU/17TOXYYirPKwEV+2xc5U76lMPhUb2Zqpr8LKQMXVfGnoHGKF1NeU5OLIqnEZi6fDKkPJt1pbc4lKfzqBr9tbHoaq8ym+vlHh6cB57j44uDuTOuht70KUPXlNZiqMA7KTV5bwTsrynV/YqpzJcCKtgZUf2fHVUBPaJSM0qp8hkV1ANq6NcHQY2+5Zg/evme386ooDb/fNQ0TWmOmBq9u8q+pCNKh/nbaZrSO88sPvduDKw4GnnilE/pmqY0DcW9MJsN1X1pVMUcjbBtKGyNONqHVFktGI18d+V11a+jqn+vT5lbDWW+YCjjpWDjDQe1zGjkhrs5dXTuaGSl1Ewxqbp3GcrRoivHVp+KfTa+eCTyHOX/DKjudo8ydE2h1bcJvj2gRm8sGI3cmbx/7HLvmUrf++D75bcdMhr5KfcwebLpWv5b9beX/Y+7zhfPkD9j6jBrrIdYJU7yTRkTIJ5MMsXexiNT7AmxQHnWT88eqWiFEBuDPNYXTyVjT2TxYBghhHhMpGUrhBBCrDOpbIUQQoh1tula/lv1/F+X/D9sQgghhHgEbICMeBN/KhllufFInmw8kicbj4xGFkIIITYwqWyFEEKIdSaVrRBCCLHOpLIVQggh1plUtkIIIcQ6W7qyvZ3hxBttuI3GBMpOF/5QnPTNP3FybfHsmM3Tt20TmzYt8WnqYOTe5D2rlcufTuBtWiqcJsLnpOwKIR6fJSrbEsNvREk2dzNaLFP+tUz5xmX6HGmi+wYp/NE5OYVYkUbk6xmUUvM/M6NEdFhzubQFGPp1QRhqhtS+P3FieCGEWGBxZTtbonhDw7M7iHHv+tRsEDqdZeJi7/1JkmvfDRJtdeM23bhNP9EPs/W5O2cLxD0uuj48QYfpouO//4fwc276vpsTx1SCjue8xH8ArBLp9zvwmo2wXu1h5Od6K8Q6F8b+apzBA15c23rISEX/7FpjuRRCiI1ocWVr8xPaaydzuIOej0bIXC9RmwU0B4ajcZWbStO9dxgOjTJRnGDiaj/Or6PEztXAptFkKzN6VaP/+0lG/89/EW2vkknn70dRuZAmtzVK9EUofBQmlvcwnJ9gojjOaGeJ3n399ZaKpmF9n6G0J8PkjSGCckF9dq2lXAohxAa1RDeyRuD0OLmPg2g/Jonv9eK0u/C/3kfih/rDM+tKikxziJ69jXlVWgLEXjfIXshw78mYe08UT3M9vOC+DqyLKfKzABVGL+TwRkKYswUy6SL+A3349Pq6xpvdBCoZUj+BBqD7CclUac8Ai5E37DQ1Nc372A9kGstXL5cAzGbpeX7BM9u/uIlffyw7JYQQwLJT7GmYe3oZ2NMLgHUrT/rjXrrbYzQVUgSmKli3MkTN9INNZmfQzCrlxvZ6i/4gtF0RgrM9pL4bwLc5xUjBT+QLA8hSrllkj3hxnXwQ1AwQ/q2xre7E/gh3WGxUGpEvqyT3rtRKXblcRqDxzPYy3fLvvoUQG8jilm2lQPp8nsqcn7QtPiIn+whaBXJF0FscaC90kypOMnmj8SmVKWe6788hOu+SqQWIdkImnaV4Ic3ErhhhB4ATZ4tO8PTEg3BuTFIuTzK0e932WTyJ1lAuhRBio1pc2VrjJA6FiH2YpTR977cK2U8SZJt9+HeAtitMcCrN8MXGpW+2QvpIlL6LlUXB3eOLhNAuJehPl+jYF0QHsJkEXzPInR2m0Iirdn2YngPDFORNDTHXGsqlEEJsVIsr2y0xkmP9mPk+2gw79ufs2A0/8bxJ/8UEkRagJcTwuRgzpwO4trlwbQswXPETbV3h2eqLUcJampFKkMjuB+1ez3sphl/MEvO4cG1z4X0rg94ZxCNjXp4xFiORJjb9ZdOCj52ui6ytXAohxAa16Vr+W/W3l/2POx3iGSJTh208kicbj+TJxiNT7AkhhBAbmFS2QgghxDqTylYIIYRYZ1LZCiGEEOts07X8t+r5v8p/ABBCCCHWiw2QEW/iTyWjLDceyZONR/Jk45HRyEIIIcQGJpWtEEIIsc6kshVCCCHWmVS2QgghxDqTylYIIYRYZ8tWtqWxE3S96sZpb6KpyY5zRxtdH2WpzD5kjBei2D0nKDxsOHOsW1oBpvIkzv/B+dtuDdNm7yAx9QjSIe6zzoWx+07wsLPqFS8kyC4/UZUQQjwyS1a2pbNh/G+kYG+C3K8zzNwpkfs4xMyXYfyHMtT+7FSuYL3Tal0dIn6+gMz4t3FonQlKY72YDxVKkfSpYalshRB/isWV7XSGE8eyeE9mOPOWD6MZsOkYu7pJXkhytN3ZWLFG/qMofrM+NZ5rRxt950v3g6ldOUF0pwuX4cS5o4O+Cw+WYauS+yiM13Rhf85F2+H0/UnBa98NEm114zbduE0/0Q+zy1eYa02rVWTk3Tbc29y4TRfu1iiD1xqh3h6mzR7mxFdxoq914Pe4cAfjZKeAa3EC76apXIrj98XJ3mqs+68wbsNP/LtVwhZrc3MQv72D+Cc9dLzaht/jxvv6IPnGYcwecuF9d5C+VheuyAj/70IMo32Q4tQI4efc9H03J6ypBB3PeYn/AEwXSBxsw224cBkuXK1dJH6ygAqJN8IMXC+S2Ocl+nkJrBLp9zvwmo2y92oPIz/LLZYQ4hG5lv9WzXO1VxnNIZWsqpVd7VVmS1AN3ah/LY9ElKMlolJ3lFK/JVVks6m6/1MPpHq1V3n0gBoqKaXSEaU1myryxYSaUUqpGwMqoHvU0YJS6reUimw2VGRksh7ob5dV74sOFRpZJjFrTOv4Bx6l7x5QEzP175NfRpSxJaZGq0qp8hkV1HTlOz5eT8/dCTXwiqYCH9fTMHHSp/S9yfqy8hkVaNaV74PLqrqWsEtDKqAH1ZnfVjmWz5hffvll/g+lIRXQNOX5INfIg0k1tFtX5j/GlVJKXX7HUPrWiDrTKGszIyGlv9yvJtSMSu13KPO93P2gyp8Flf7ygJpQ9bzTXu5X4zNKKVVVl982ld5+RpWVUupuSkVaGuVOKTV+3KP0V46q3P/P3vuHNpG1/f9vITdM+XZhAhEmDxU6pYITFJyiYHIrfDulNzilN5hQoQkuuNGFNXXBbVdY2/UPP9EHfFJvcNt9wG0UXFJBSYSVRHBp/EM3WXBp9oNLIyiNNytMwMIM6JcMGLi+f8y0TZv0h6vd7d57XhDoZM45c51znTnX+XGll05EVKHZr1USdg/T9JsNbIhNRJ1OGH84TCebj3fRSf3KVtegNzvBN69hpffHMF1KItJuXQqdCjqqJZTmAPN+Ghnej3AnDwDg98eQK6URabXScoKKgSMSOABo9UEWNJQ1wLyfRKbZj4E+0UroUhA+LCJ7O9N4G3c9slYLyNwpwtcfhmQHpBf7QlDMNDKP7DQOCYF+2ZLHIUHazkPTGq9OOYjoOayAX2/ZjPXhkBA47LV1IELt7UDpQRYlwPo/Z3sDCLUvz8RB7e+BeSeJfBUAykjfzqEj6IcEQPo8C/37YcgcAPDwdcvAryVoy8/yqwVkUkX4PhqCl7fKFY9GoJQzSP6ygXVmMBh/GRx13zjdcL4uQjMAuFbJaRSQOBfFZL6EioMDqgaKJg+lChhzZZjNHeBqSud4bvGi2Ymaq4V0xlwZ5vMMQlJq8Wa1Ak7SoVXziHv9iL8AgCb0XJnBxLpk1aEZHNwuvqbWTvC8Ac2wTbijCVytQA4A1RW2EB1O8AtFraNsxvpwuCHU6NDZzAGvdRi2YXTy/JI+Mw/XGYRaHUDyxxi8LUlMFnwIXrUma+azFKLn4sg+rQAcAKMEsxpuMHHToRkmsmc60HZh8dsKgMDL91ZDBoPxF6be2O5WoPDjmPy2iPCpZS4oT+IY+roJ4UtBGOdCGPoljNz3SUjNsM4+pQQAgHcJ4OY0a6B0AICJ8rMSIEgQVhGGdwngdkSQfBSFXC8ZRu4WMVA1AXDgXBxgrkPWixLcvIncnAHANopVHYbhhtPVaPh+G5wbWPZfjKqOsgHMdxDd0AGnG7wD0IFGPdWCUxA6BIRTWYS3pTDTGUFAAIAiRo9GkO3MIDPpBQ/AvBWA+2x3NpF9AAAgAElEQVSjQtxwu3ion80g2c/0xmAw3j/128jNKoYvqCidDSD0rwyKcyZgGijeHUXg0BCynAC3wxoMuRbJckqqlpH5OoWZqgnTBLjOHiivUxi7bbk9GQ+jUL0DSK7xExiuMwB1LoXxO7a7VLWM1JkQhuxrzsVDEAQIAg/esU5ZORlqr4TcjTiK9pKmdCOOdLMK/961G4hzAKahN3bScrxb2YwaqgWkr+etdjaLmEwVIe33QVxHVm/QD+77OKKpEnr6VXuL34BuAM7tonU9l8fotwWYpoEKAIBDEwwYugk4JKj/FJG7No7Ca6tM46dxDHw0jgLboGAwGO+Bhj/9EY8kMXUzjKa7Q1DEJmxxiug5m4N4OovsReu8Uvl0BEphAJ5dHfCpgyh2xxA9qGGs/xgmzSDGJ8MwL/rgdrshHc9D+Xpi4cx2RVx+jN8Io3JJsTyctysYL/sQOrDyeng9sspnEhjfkUFAtjyGe751InojBmWtc2kAYmcAvscjkKUQJrX6++9SNqMGzgfFnUDI2wGP1IOkewTjn8nry7s7hACXwmRZRbDbXpk6vIicDUA/J8Mj+9B1Ig35XAwhRwLHDo+jiA6ohzgkDnvgO5uH/HkS47uzCMuWd33H8Qz4Q6p93stgMBjvxpaH+R/o7/t8f7QcjL8QdWGqno+jS84g+DSN8Gp+AowNg4Vz23wwnWw+WIg9BoPBYDA2MczYMhgMBoOxwazk48lg/H60RjClR/5oKRgMBmPDYCtbBoPBYDA2mC0P8z/Qtv9q+aPlYDAYDAbjPxYHAObxxvhdYV6Wmw+mk80H08nmg3kjMxgMBoOxiWHGlsFgMBiMDYYZWwaDwWAwNhhmbBkMBoPB2GCYsWUwGAwGY4OpN7bP4ujZ1oZjd5bGuSldC8C9/RhS5QalmAWcP+BGx5n80lihv4yiy92Bofv2t2YRqTMB+CQ33NvccLvd8BwI4fzdmkJfZHD+wy54xPk0bfD5R5B6tnL4lfI3PWj62xY0NTUtfJxSF479K984Ws86MH+exORPvzX3IsXbcWTt6pk3AnB6z6P4zqUyGOuljOz/CaBDtN83dQip53+0TAzGX5CH+R9oOdrNIImtQUr8an/xdIxUQaLBrF6XdoGnE6S2SBS5Z6epTFN0n0DeC9NUsZNMfykRv2+Ypn6d/0an6StBEl0KjZWIiGZprJMn6ZMkzc4neTVLyU8k4vZEafpN40drV1Tidtfer5D2IEqKIJB/chWZVyF3SiLl8uxvyrvIDEX3yTRcmBdLJ12vrJrjr8C///3vP1qEvwzaFZWE3RFKa0REOuXOeUnYH6OZZemYTjYfTCebj3fRSUNjS6TT1CmJhN4Jmq3MUKxTIO+5RaO5EtrNIIntQUpqFcp9IZNwcIxmagxgoo8j8VRuWa4KaSXNKvvNFEVaBAqmlj2potGstvLT642tRfq4QPyRNNGbaRreLVL4QpTUHSKpl2eJSKfpr8Ok7BRJ2imRuFOhyBWrjjOXVBJ5ENcikfxJknQi0vMxCu6XSNohkbTDS8ELU7Rgxn9N03CvTGKrQEKrTP5zU6SRRhNHJOIdHAk7ZApemaXKpJ/4fVFroKvMUOKkQlK7RNIOkaT9QYo9sEv8dYwU3k/R68MU7FXJu1sk6eAwTb1cQwF/Etgg8nuh0Vg3T8oVbfGrV0kKumSKPl6akulk88F0svnYAGNL1sp0v0DyPomE7lqjuRo6TZ2USNjjJanVv7gyttFuBknkRVJPjVHi3jRpr+oeSlOnJOJbFYpcTFD60Szp63huY2NbofRRgYSjaSKaoegejoSDMZq2n1nJREhs8dNEyb5+HCPFJdHggwoR6TRxkF9c2b5MUrBFpODk/PUUDe6eXzXP0li3QN4v7cmIlqRwu0DBmzrRG2tgm1/Z1hrb6S9l4rtjNGPPIWavB0lsDVNaJyJtglSOX5zgvJmh2H7uPay0NwdsEPmdeDNFkVaRItna76ZpeDdfN6FlOtl8MJ1sPt5FJys7SHEygkEPij+W4DmkQlpXyAIeykchuH/OQz8Qgrrsv0AKfQlMfx+Fr5pF/LQKcasTbQdCGLlVtM96OSiXppG7rIJ7nMBIXwfczjb4Dg8h/vPbnJ+aKN8fxejdJvQcWozV6+kNQbaDuufuZlDpDiPUald3ZxhhbwnZe/Unqub9JDLNfgz0idYXLgXhwyKytzMwX2SQyosIfCiDAwDBj7FCEfFD/MriVQvI3CnC1x+GZAcnF/tCUMw0Mo/sNA4JgX67TIcEaTsPTXv3M2TGXwkT5msOXFPNVw4OTg4wX6/sA8FgMN4/KxvbJ+MYuFhB5HIE+oUBjD9bvGV8G4LbbTlcuJXRRYcfs4Dzn8ThPhtDT34IkVv13lT8niCGLycxVdBQ0aYx8WETMh/3YODu/MvPQeodROx6GtMlHfrjBAZachg6GMZkeZVn/zIC3we2g9QHTsgnspDOJTHWyy+Uy7vm/zZhzGlocjnBLUoG3sXBMPQ6mY25MszncYSkNrRttz49V0rgXuvQDAM6nOBrbCvXzINbdXKiQzM4uF01mRxO8LwB3bDbwdEEjqvJ4gBQZQMk423gwDWbMCs1X1VN6CbANXMr5mIwGO+fxibBLOD80SjMT7OInRRReKlA/XgUyr1BSA6A7xtHsduECYDjeFgmw0D2dAhx9zByX4bB7SvB91EE8b1JhFsBmGXk70yD61Yhz9sYXoRyPIrIbRHjP5UA2UTqgQlfnxeCnYRr9SJ4YQjpa0PIFYFgg2eXAWBnFLlHw5BXMXJczV+8y43KnG6VY8uvzQG86KzLx7sEcDsiSD6K1pf/YhxO6DDmALjs5ntRhMaJEFdc3Drh5k3k5gzAbj1UdRiGG04XGwQZ7wmHB9J2HaknZaDTfqNeF1F8IaFDYv2Mwfg9abCyNZA9E8KYM4qJkxIADvLZcQy8iSF0zv5pD8eDFwQIggCet17a8q0Ijt2REfs6DAEA3x3DWF8JIx+Po1gF4NCQvRRC4MQ48i/mV2gmSnfHEH/khm+fCJjTiJ/wI/zfWZRezycpI/tVHNlmL3y7Gj/7t+DrVdH0fRyJ5/ZjfoljMi9CPShbXzjMhVUm1xmAOpfC+B17pV4tI3UmhKE7ZaBFhd9bROJK1vqZUTmDoW4FQ99bZrwJBgx92YrUIUPtlZC7EUfRvlW6EUe6WYV/72+uEoOxDAGBIwpmvo4i8wJAtYzshRhycgjBHX+0bAzGX4zlDlLazSCJLfXOTVSMkbLSz3/snwZFMsvuVXI0vKfG0UebothxleRWnngXT7xLIGl/kIZTswuezvqjCRrslUl02WkEkbyHBmmi8PbeyIvMUHQPT8GbtWVUbG9kiaSdEkm7VRqcnFmQY/aKn0SeJ7HX+pmE/sDyRhbbRRJbJVKOjtH0fHVLSRrslUgUBBJaZFK/TJPl/6lR8rhEvEsk75e5xt7IO2xv5M4wTTyyn65NkMorNFajg/RxgaTPl3ty/zlhjh+/JzpNXfCT3GK9b/KhYUovf7eJ6WQzwnSy+XgXnWx5mP+B/r7Pt7ZVZjDeEyx02OaD6WTzwXSy+WAh9hgMBoPB2MQwY8tgMBgMxgbDjC2DwWAwGBsMM7YMBoPBYGwwWx7mf6Bt/9WydkoGg8FgMBi/CQcA5vHG+F1hXpabD6aTzQfTyeaDeSMzGAwGg7GJYcaWwWAwGIwNhhlbBoPBYDA2GGZsGQwGg8HYYJixZTAYDAZjg6k3ts/i6NnWhmN3lgYqL10LwL39GFL1IWoBAKkPm7Bly5b6z64RFKobIfq7Yf6SwsiHXfC4nWhqaoJT7EDPiVFkX6y/jOLtOLJ2e5g3AnB6z6M+9DxjXbzI4PyHXfCIbri3ueF2t8HnH0HqWX0M39JXXXBvbUPPtWWd8Zfz6GjaAmcwBWN5prlJBLZuQdM/xq2QjNU8hrY36K9btmBLUw8m5wuolpH9agA9e9vg/KAJTR+44TkQwsi3hSXPSH3YhC1/s+Mpz3/cHnR9NIrsnJ3ITCHwgQdDP9ZkNAqInw7AJ7mtPE43PEoII7eKWKj5snzlb3rQ9Dc3QjeW1b8cR48zgMnXYDAYm4x6Y9seRvySF9lPI5icNzzPxjFwpojQlRj8Ql0OGw7CySkQ0dLP4wYxYP9gzJ/OQ+mMIN8SQaKgoVKpoPR9DKqZQOBAAJPP11NKEamL4wvGljsUR+nuIKQNlPs/lxLGPwwh0RxBuqhB+1WD9nQKQ0IKof7RpZO1agHx6xUMXPJD+zaB0rKSOF6EMx9HctmkqXw7gQIvYmlQRg7Bm5X6PltJI8gDQBmpj3wIXNWhXpxCSa+g8rKAxKci8mcUqGfziwYRHIRP0qhUKgsf/dEYlBcxhD6drDf+AGBkMdSt4PyzDozcKkKvVFAp5RA/6kT2hILQtyvMbAGg1Yn8mcEVJ78MBmNz0XAbWegbx8ShAgZPxFEyixj9OAr9RALRzhWjoa9J9kQbOj4dxdCBNrQFrcGnfHcEgb1taNveBrfYgcDZrL3qKOD83jaE/mccA/4e+Ha1wfPPUWQfxjHg70GX3AbPP84jPz+CmSWkTvegQ/LAI3ng+ccAJp/Ur4gsSoifiaHcl0D6gh+yYA2/fLuCyJUkotuzGLmQgQnA+DYA54EhjH4WQNc/fOiQPOg5k0EZZcQ/DCD2UxHx/g6EvinBvB2GeHDUXtkaKPzvMXTtaoNnlwdtu7ow8E3BGpjtuh37Ko6hwz3oOuBBmxzA6E+WvMaPowh5PWjb3oY2sQ2+D8cX6/mfSrWE4lMOcrcKcd4aNovwX8pi5s7gksmaeT+OlDOEYH8YgUoC8Z+WlcV5oR4oIn6r1gyXkLhRgtL9dlMh834UQ3dERG8lEOkUwTsAcALkvijSV0Mo/2sE489Wzs+1KIj0d8B4PINSg92d4jcjGDfDSEwOQ93JWxMBXoT3yBiyj3OI9684swUnRxA7WMDQmUxjQ85gMDYVK5zZ8lAuJDCgjyDQGUDMMYL4FzJ+e6h2AA6gdHca0rVZzE4Gwb/OYOSjOLjPcph9Ogvt+zCMr44hdh+AgwOgIfuIw+DNNHKPJqAURxC6YCIymcbUoyT8L2OI2Vvdhf8JIJyXMZ6fwUxxGulDJQz2RxtvXxt5ZB854e9T6uvjEBHo80G7n0WhCnAOwPwxg1J3HFP3cpi+PwL+2wGM3OURvhqFyksI35hG4ri4pBjz7ggCF3QE78xi5vEMZm6oKJ4JYeShuVC39PcmwpNpTD2YRqK7iOjFFAyUkDgTRfnDNGafzmL2aQ5DQhbJ+//hyxeHD/4+JzKf9WDgfyaR+akEowqAEyAKtVoykLqWgXQ0BNEhIRh0InU1gyXTqmoTlD4V5evxRf3/PInESxXBvW/Xg4vfZ6F5gwi019/jOkPwCzlkH6xs6swXWcS+zcHt9UGq290pI3e/ALE3BG8DsTjBNu4rUXVCOReD8mAIQ3eZuWUwNjsrO0hxMoJBD4o/luA5pDYYLJZjovxVV935V5Pf3kJzANgbQGh+4GpWMfG0tDh7b1egtOsovVgcODp6AxAdADgPJJGD56AKiQPgkOARAa2sA9UCMqkifB8NwcsDAAfxaARKOYPkLw3ENHQYVR7OrY1rIQg8OMOAPv9Fq4pQt72iF/zo8erIPVj9ZDZ3N4NKdxihVuua2xlG2FtC9t5ivo5DIbtNOUiSCGgadDjhFDiU7k4i9WMJBgT4LyYRO7TyCuc/Aw7KpWnkLqvgHicw0tcBt7MNvsNDiP9cY0ieJxB/pCDca+lD7A9DuhtHam5ZaZ0hBKspJB5YZjh/PQEuGEZHnVEzMfmhc+k5a1MTnB9lAAC6oYNzOdGw9R08nC5An9MXyip/0wPnVqf1+aAJTfIQirvHkbykNpio6ijrAL+1ZrfIzODYdvvMepsbbQfOr+7v4FIRvSAj+9kIsuyclsHY1KxsbJ+MY+BiBZHLEegXBpZslxnfhuB2u62PMr912vjMtpIKYn44cfJ8zaBTRvabIQQOdMDn9cF3IIT4EmcYDjy37ISNa1q8WDD+OjTDRPZMh7X1ur0NbbsGkIUB4yWQOdG2IGvH6TzAO8E7DGgvG1e7XDZgung455/JO2tWGBz4ZmsQXhkTxpyGJpezpq48eBcHYyEfB765pm4ObiFd8EoW0b0lxE92QXR70PXxX2AbGQDAQeodROx6GtMlHfrjBAZachg6GMakvbAvXI0j9yKJkGgbNCmCTDmD+I1lJ7ecF6Egj9S3WZivM4jfcSPULzUweByC1/Ul56yVSgX6VRUA4HQ5YZY1NNxXqBrQ56w082UJx9PQX+rQX+rQvotAcrihfhqE3NyoADcEJ2BoNaVzCmL5AgqPCihcVFAxKljpMGQeoW8U0V0ZDJzNrpmWwWD8cTQ2tmYB549GYX4aR+xkFPGjOqIfj6Joz7L5vnEUCwUUCgUUU5H1OwXVnr3dGUHokgb/tRxy+Rxy9+MItv6WKrjhdvFQL83YW6/WR9NmMdYNqBenbVmLyJ71ArwC1asj822js64SkrdycHerC+eEpqFbW5oAAAOGYdYMsI3gwLvcqMzpNYOfAW0O4Leuls+mWULwywmkH81CL8ahvogidDa77tb4U1IuIHUrv8Soca1eBC8MQTULyBUBmFnEbwCDeX3BoOkvdejfhVG6PrnQN+eR+kMQv08gcSuB7K4gAq1vL5b0DxXufAKJJ/X3zPsJpOZ8UFfwY+A6RxDtLmLk9GRjYw0eykEfSrcTyC50RA68S4AgCBD4poa56hEQvDQM6dYQRvLM3DIYm5UGxtZA9kwIY84oJk5KADjIZ8cx8CaG0Dnb+5LjwQvWoMDzv+0k15zTYPIiPC0cABOlG3FkXgDG67ccMBwS1H+KyF0bR8HeSjN+GsfAR+MomACa52XlwTcDgIDQuSEId8IInJ5EoWw7Jj3PI/5xACOlAGJnas5zX2SQuGsPl8+TSOTdUA5Y7dIEA4ZeL6+vV0XT93Ekntt1/SWOybwI9aC8RqNkMaL04PyP9ujrkiC1rnfQ/RNjTiN+wo/wf2dRmt8ONcvIfhVHttkL3y7AuB1Hkg8gtHNpVu6AH6qRQPzBMj20hhD25nH+Qh7e/kDjreA14PYPIdZXRrQvhPHv7XNk00Dx9nkEPk5APB1DuHWl3Dz8F4bRcX8Eg7cbb02IR6MYdCUQOjyCyZ/K1rv1uozC7VGETifRtMtjHaOsRUsYsTNuJM6M1006GAzG5qDO2JZvRXDsloTRK+HFF90hY/ibITi/CWPk/vvZ0+QPjWBIzMAvedBxoAfnzTDGP5Mxc07F0N1Xb1WW/HkS47uzCMvWNnLH8Qz4QyrkFeYB3J5hZO+PwvtiDCHZiaa/NUHsjCDlCCP5YGLJz5u4nQrEBxH49nrQdmAUOD6BaDcHODqgHuKQOOyB72x+afndMSTPODHZ64FnlwcdR7KQLycwsmeNinAKwicl5D6Z3xL3IToXxsQZ5a3a409HaxiJu1FI+SF0zW8Riz6M5CVE78QRdJWQuJaB6PfX+w5wPvh7TSSuLd+p4OE/oqBSVRfOeOsxMRlswpa/bVn2ceLYHQAQ4L+SQ/IjJzKnuyB+sAVNWyUELs1AvphDei2nwZYwYqcFZE6P1Kxea2j2Ivp9FqN7Shg7IsPZ1IQm0YfQ/05DPJ3F9PXguicJ4vEYRrZpdT+FYjAYm4MtD/M/0N/3+f5oOTYl5o0A3Jd9yOXZ72ffJyx02OaD6WTzwXSy+WAh9jYUdg7GYDAYjHeDGVsGg8FgMDaYTfaPFDcXXH8Sev8fLQWDwWAw/uywlS2DwWAwGBvMlof5H2jbf7X80XIwGAwGg/EfiwMA83hj/K4wL8vNB9PJ5oPpZPPBvJEZDAaDwdjEMGPLYDAYDMYGw4wtg8FgMBgbDDO2DAaDwWBsMMzYMhgMBoOxwdQb22dx9Gxrw7E7S/9zeulaAO7tx5BqHC8MAGA+SWEk2AWP2wrI7RQ70PPpOPJzK+dZP2Vkr2Xeyz9aN3+exORPKwRU+GkEnr9Zge/rP00I3X4PAqyXahnZrwbQs7fNCkb+gRueAyGMfFtoEB5wBebyiN+yg9ZXCxjZ5UTozkYJ/Cfi+Ti6nD2IzwGoFhE/7IFzaxsC35RgfD8E3zYn3PIQsiyKDoPBeB88zP9Ay9FuBklsDVLiV/uLp2OkChINZvW6tPNUHsdIcQmkfJ6gaa1CRBXSH6cpekgkfvcw5V6tmHV9aBOktkZo6s07lkNEuVMSKZdn106oJ0htlmm48O7PfHs0Sh4Rid8dpLHsLOlviKii0fTNYVJaePJ+maPKOkqppIIk9CUW0lZ0nSrvoQ3fhX//+99/rABERFQh/aVutYs2QWqzl2JF607ulEjC0fS62vc/hc2hE0YtTCebj3fRSUNjS6TT1CmJhN4Jmq3MUKxTIO+56VUGH40mDvEkHElSnTmuTFPyappmbGOrZaMU3CeRuEMiaYdM6qkkzVaI6M00RfeIFL48QYN9Kin7JRJ3+yn2qEL0Kk2RnQJxHE/ibpViBSKqzFLyc5XkHRJJOySSuiOUKNoS/jpGCu+n6PVhCvaq5N0tknRwmKZeEs1cUknkQVyLRPInDeRd0gzLjO3LBPldEg3ml6bxuyQafkSUPi6QdDxKw/0qKZ0ySTsUikwuGnU9H6PgflveHV4KXpha8fmVbIREXqGxpw3u3YuQ2KxQ7KnVbsM7BQqei1H4oELKPomkfUGaKFSIHgyTt4Uj8CLJ+4ZpqjJNwzt5Cn5nF1RK03CvTFK7RFK7RHJflNL2BKtyM0h85zBNXAiT/6BCcrtE3pNJ0oiI3sxS8pRKcrtIYrtI4k6VBlPrmLzY1HXYVfRlCTNDiZOKJecOkaT9QYo9sFtOm6LoIZnEVpHEVpGkzghNPLb6wdRJkeRTExT7xE9qt5ekdpnCV2fsuo+Rwqs08SxJkd0i8Q6OhJ0yHTz8/5Lk4ohziSTvH34vk7s/A2xg33wwnWw+NsDYElFlmqL7BZL3SSR0j9HMaoNOJUlBl0DhzBprAS1BfkGi8Headf0qR8P7ePJenCGiGYru4UjonX9WhXKfS8T3JSyD9GCQxJbFle30OZn4/cOU0620s1+rJOwepuk3ZK1UOH5xgvBmhmL7OXs1q9PEQf43rmwrlD4qkHh8cdWjX/cTvydKM0Q09YlAnOBf2BGo3IuQ5PJTQiOil0kKtogUnDe+L6docLdA/snG5nb6C4m4gxOkNbr5JkeD7RypV3Xb2HLEd8cW2m36nJf4/TGaJaKZC17i51e2b2qN7SzFOnmSP8/ZBl+n9CcS8b32M1NB4pplGrw3b9QmSHXZbXEvQsKOCE3ZE6jKoxgF+8estl8HdR12VX0RTX8pW/WzG332epDE1jCldeue0D8/aarQzNUI+c9NUYUsY8u1L+7QVL4LkzDfh+aN7Uv7+bxCY3a6qVMiiSen1leZ/xDYwL75YDrZfLyLTlZ2kOJkBIMeFH8swXNIrQ/aXctrHYbphLB11VDaMB+kkeVVhA/aIbGbvQgfllC4m8X8UXDHoZD9LA6SJAKaBn15QdUCMqkifB8NwctbacWjESjlDJK/2GkcEgL9dnBvhwRpOw9Ne9fA9xyUIyHgTgIZAwDKSN7KoiMYXIh3y3WH4Lf/+yXX6YfC5ZAtAOb9JDLNfgz0idZNl4LwYRHZ25mGQfx0QwfncjYOHu7g4XQB+txiy/j6FttNPqjA/UsO+dWq+yKDzCMJoY+9sEKr81A/VOF+kEH2tS1/i4JApx143eWB5NJQ1gBs5eGeyyF1I4ti2QS3ZxCJyQjkdwlrsZK+qgVk7hTh6w9DsruX2BeCYqaReQTwW50wHycRv1NA+TUH6egYkl8qdjkAf6BGH5IE8bWG8ut3kJPBYDB+Aysb2yfjGLhYQeRyBPqFAYw/W7xlfBuC2+22Psoois1O8JyGkrZ67FdjrgyTd4OvGZSdvBPQDWhVAODAN9cYbMdKxluHZpjInulA2/Y267NrAFkYMF7O520CV5vdAaBaL19dXVatAcAdCCEoZBC/VQZeJJF65ENw3oACcLrcWHxsE7hmA/pr06r78zhCUtuCzD1XSuBe69CejKJrmy3DtgDiZcDpcsIsa2joj1Y1oM9ZaWypwLtqzDLvBF81oK9mVAwDOpzg+ZrvXG4r37yR5pyobUJuXm+7o8jcDIO7fx4B2Q333gBGbr+j69qK+tKhGRzcrhpBHU7wvAHdMCGeTCLzmYjpr8KQt7nhUYcw+cuinpuaOSztRSw+MYPB+P1pvBYxCzh/NArz0yxiJ0UUXipQPx6Fcm8QkgPg+8ZR7DZhAuA4HjxnoOcAMHgtgXJveOlqzCxg9LMExNMxqC4BnKHBqC4+WZ/TrZXSW62K3HC7eKifzSDZ38Agr+IxvZy6uqyVwSEjHJTQcSuJ7OsUpg+EkaiJ46DPaVZZAFDVYRg8nDwHHgK4HREkH0XrV4BVE8lCCGYVgIMD7wLwDxXufyWQeBLB4I6lyc37CaTmfBicX3XChDFnAPPSGzoMBw/napXheTihw5gD4LK/m9NgOAS412wEQOiMINYZQQwmSreHEPhoAOLeNMLvPaaFE27eRK62flUdhuGG08UB4OA9GoX3aBQwy8ie8yNwdBTyo+H3LQiDwWD8ZhqsbA1kz4Qw5oxi4qQEgIN8dhwDb2IInctb6wKOBy8IEAQBPM8BEBA8NwLPgyGoH8eRfW4AVRPln1MY8QcQe+KGKABcZw8UI4P4XdsaGnnEbxbh61Ubb5fW4gA4U4dhAnBIUP8pIndtHAV79Wb8NI6Bj8ZRWM/CxWFCN+yEdXVZG7E/DN+jUQx8PQOl37/EQJv3E0g8t2W6m0IWPigywHUGoM6lMH7Hrnu1jNSZEIbulG0Da8kguHhwALj9Q4j1lRHtC2H8+5I1QTENFG+fR+Bja/ISbo1L+hUAABzdSURBVF18bu5WHEUTAEzkb2ag7VXgbbZWo6ah1/9UqEWF31tE4mreulctI3M1A727B77m1etfuhZC18eTKNm7EeIuEU6HuTFrRocMtVdC7sZ8/YDSjTjSzSr8ew2kTvgQ+t+i3S8FeCRrZ8FkP9lhMBibiDpjW74VwbFbEkavhCHOr8AcMoa/GYLzmzBG7q9wELhzEOkHcahmHANeN7Y0OSH1xVDaE0P2u0HIHABXEPHJECoXFHh2eeDxRlA8mEDiE7FxmUvKV6G2ZhDe7sHAHRPy50mM784iLFtbsh3HM+APqdZzVoWH0qvCuORD2z/X3jZuSEsAoW4dxWoA4YNLH+ju7kD5TBc6drVBOl2CejmGoAuAy4/xG2FULin2NrKC8bIPoQMrTTME+K/kkPzIiczpLogfbEHTVgmBSzOQL+aQ/kKu2R7loBzgMPpPHzq2iwg96EDsUhgiALEzAN/jEchSCJMvassXEbmSgPokAp/kgWeXgujrMBJfB9ec+IiHBuA3x9Azv4V/KAPp4tgGrGot5DMJjO/IICB74JHa0POtE9EbMSjNPNQTYThvB+ARLVmUKxxGvnrH82MGg8F4z2x5mP+B/r7P90fL8SfDRP6zDoQdccxc9C58mz3hxgCXwswl7yp53zPVAkZkBaULOhK9v99j3wUWOmzzwXSy+WA62Xy8i07Y/P83YP40ipHbIgbv/45GlcFgMBh/Wtj/Rn4rShj/ZxvcfWlIl+JLzkwZDAaDwVgJtrJ9K0REvptFZIW7ytcaZn5XeQA4ZEQf1/0SmcFgMBibCLayZTAYDAZjg9nyMP8DbfuvDXIjZTAYDAaDYW0jM483xu8J87JkMBh/Ndg2MoPBYDAYGwwztgwGg8FgbDDM2DIYDAaDscEwY8tgMBgMxgbDjC2DwWAwGBvMqsa29FUX3Fvb0HNtWcy65+PocvYgPgcAZWSvZbBqNNMXGZz/sAse0Q33Njfc7jb4/CNIPWOxRRkAynH0OLsw/mKF+6+LiJ/ogsfthHOrG20HjmH8xxUCYtRSzWJgexuGHpoo/J8OOD/MrJ7eLOC8twlNarw+ShKA8o0Q3E1tGHo4/42B/FfH4NvuhNPphHtXFwa+tSMQ/XIeHVtDSJlljP/DiZ5r65D3d8NE4Ztj6JLcltxSF459U7CjNplIBZuwpakJTTUfz+m8nbWIyU+74LHf447D55GtGR6Mh6MIedvgdDrhdHvQ81nKjg4FwMhj9EMf2txuuN0edJ1YjOQEAKVbQ+jZZcV1bpMDOP99bcGr512kiPN7nQjdWmlsWUVnDZuqhNRnPVbfczrR5g1h9OGiLsv3zyPkbYN7q9WOA9dWKauWt+wf9X2vVsYG/XbFd8ZEKuhEx38XYd4fQJs0hPxmipD1IoMRfwfcWy25O/wjyMyPCz+fR0fTliX9sskZsO3QGrpYQ4/mL3EcUzxwb3XDvd2H0Ff5xbZ8l35by8P8D9SQN9M0vMdL0euDJHfGaLb2XmmMFF6liZdEpE2Q2hqhqTeNiyGapbFOnqRPkjRbsb96NUvJTyTi9kRpesV8jP9U/v3vfy/9QpsglVdo7NdGqSs0dUoi4WCMpnUiIp1y57zEtw9Sbq2+82aahnfLNFwgmr3oJfHk1CqJK5T7wkvSDpG4gxOkL7/9a4L8OyWSBJEGH1hf6TeDJLQHaaJodWwtM0hys5eij8l6R1ojNPVGp4lenoI3K8tL/MOo3IuQKCgUy1u11LODJDfLltyk0cRBntSrdS1ARES5LyTi9w9T7iURvdEoeVwi4dAEaURELxMUFETyX5mhChHRr0kK7+BJ+VojIp2SR0QSjySsceDVDI31CiR9nrPSPo6SV/DS8APruVpmkGTBTxO/0tp5lzBD0T0rt/eqOmvA9Jcy8fsGaUqz5Ji+oBDfHqGpChFpCfILIgWvz1KFiPRHMVIEiQbz69D12/SPBn1vkUb9dvV3Zuq4SMrlWaL8IEl7ojSzacbgWRrr5kk6btuKygxNHBJI6E9a9coOkrhjhfd+DV2sqsdKjgZ3CKRetvptpZSgYLtI4e90erd+u5QVjW3lXoSk7jGafTND0X0yDT+quTlvbJ+nKbJTII7jSdytUqzQoKA3UxRpESiYWtaZKhrNahWaN8bei7XmfJZi+3mrQ1RmKHFSIalVJKFFJO+RMco1HgcYfxJWMrbDV4dJ3S2S4BJIOhilqZdERBWaySRo6mlN+mKUvLxKE2v2g1maOBqmiRKRfjNCwcszREQ0/YVUZ1ArDwZJ3jdM6a/9xNcZ21maOCSR/0qSBndKi8a2kKbEA20x2ZscDbbzFP6OiPQkRfpiNP2GaOpzlaIPiIg0GuvmSD4301DaqZMiySfHKHpEJWWfROLuIE3kpyh2VCVlv0TiTj+NFez36NU0TRy33guxVSRxf5gmHq/PoFcepymRmVk0VG9yNLiDp+B3REQzFNvH17+vZN2L7uHJf72mdebHAo2IXk5T8vrUkol5+ihP4qkckZ4gv0teatSyERLbrYn69JcyCf3JGuOp0Vg3T8oVbc28DWW8OEGRbpnEFp6EnX4ae2SVvKrO6luKZu8lKFmoqe/TmNX3XhJVUkHidw7XLBgqNPWJSOKp1SZ1Ng37xyzFOjnyXqjtH4373sITG/bb1d+Z6Yt+iqR0oqcTFDyesCZK9yIkNAcp2ciQ/TpGCu+n6JVB8h9USG4XSfkiTbnJxWvvqTTNt6qWGSb/HpHEdpGEVpn8X06R1qDYejTKTSYpV5NYv6oSvy9KM0RE3wUX/17G6rpYXY90r74vzZyz++O79NtlrGBsdUr0i+SftISbvayQ9El6scDale2DQRJbVlvZWrMsvlWhyMUEpR/Nkr4srXZFJX5fbLERi1HyuqwXePpLmYSDYzRTIaI3szRxSCDx5FSDGS3jz0JDY9vMk3wyTdobInqVo+E9nDXZWs6rGUqelEnsnaBZIsp9LhHv4us/+1beNdGLU5TO17wMr6ZocI+Xhh9VSL9eb2xnr6gk9SdIe5Oj4QYDHhERvdFp+mqQpPYwJV+uVPMKzT5I01Sxce+dOikStyNM6ZdERDol+3niWoOU+NXKO/WJSMLxNBERzVzwErcvStMVK+3UJxLxB60VZiUVJqFRmwgqjZUaSPVo2JqNa7RgeOVeP3nbBRJaJPIeidorggbGVk+Qv7nRiouI9CmK7LBXCIUoyXyQkrVV/3XeUFco2c/XTUKmPhGt3YhV8y5/6AxF93DEdw7bkzWd0sdF4vsS9bsV69LZUmYvKyTst8aq+QG+dqWVW5jIzVB0v9Cwb668w2L3j6eLFV21763RbxfTLX1nGvJyhqYy042NojZBKseTcmlmYTUncxx5z01b16UxUpoVipWI6FWawoJAwUm7pKdjpPAiDWaJ6K3bRKNEn7WKJCLSr/uJa1fI3y2R2CKQuFulwev2anRVXdRTq0fta4X47rElda/c9BO/J0oz79Jvl9H4zPZ5AvFHCsK9PABA7A9DuhtHau63bMJzUC5NI3dZBfc4gZG+DridbfAdHkL8Z2tXXDgUgvIsidQTK0fxdhKl7hACriIyd0rw9YcgcQAcIsKTJcxcVLBmjHjGnwwJgRMqBAeAZi98uzhoWu05VgmjShO2fNCBSEFB7HIYIgDvxRnoL/X6T354xQDy/A4F6j7BvjKQPTOE3D/HMbKnQa96No6Byzyil4IQ6u8CAApnPGhqcsJ3rgz/1zH4XSvVkYO4X4WyY4Xe6wB4rx+qCwB4iJIIbm8P/C123u0izLIBA4D0eRb698OQOSutr1sGfi1BqwLcoQlojdpESyPSuvSR5i9xhI6kIF2KISwAcPDo6A1B7R1C6rEG7XES4WocgQ/HUYIE9aCI7Ncx65zWLCFzcQzZagVmZVldjDzOHz6G3MExxHp5wNRhck3ganXCceCgw3htQn8NcM1L26WpmUPltblG3sZN6TsyBMVuR59XAjQNteE61q+zRUq3jiFwmcPI/0YgAeC8PVDmJhGzz3yNn+MYu10CqiZMSBh+oDXsm7OXlRWeYPePdrsdVu17a/RbS+KG70xDXBKUg/KKfRwOCWqvZI277RJEToRyULauW0SIvAatDKBZxcTTEuL9dkntCpR2HaUXBvA2bVItI3Paj5G5AcTP2qFMW3wI9yoIXcph9tcSchdl5D7rwdB9cw1dLGuVZXrUX1eAZucSm8JxTuC1DuP/e4d+u4yGxrZwNY7ciyRCohPOrU44pQgy5QziN1Z1gwKqeYzstQ6K3e42HLsz/0AOUu8gYtfTmC7p0B8nMNCSw9DBMCbLAFwqQt0lpG8XgWoBiZsaevr94KFBMwAnzy+tKLO0/3k4msA3115zQLW2w4oYzFZAlRJSQQ1DnSGkVvBDeBuMu0MYehJC/Au5fgJXLWL0RBzuC+PwrzgKAfKFGVQqFcxcVVD42Ieh+7/d8a+p5sXlAPvFtnEAgGXVzGcpRD/ugm+vD74DPihnszCrWJ9zjk3p9gCUQ5OQLmWR6J8fhiUEL44hetwLgQPASwifCUPMZ5CdA+QzCYzvLWDA24Y27zFktgWgupzgnYvlmr/EEeoMI9edQPaSCh4AOCc4swKz1hnHNGHCCb6Zg7MZMJcNUJXXOpp4bo28jWrGga8dAB31A0ZDnT0ZRdc2e/zaFkB8oX+VkT3bhZ6LHEbuphHZaZcnBBGfDIO70gOP6IF6oQRfrwxu2cD9m1ij763abxd4j++Mo2lx3HUAHDg0LTy4po+ijOw3Qwgc6IDP64PvQAjxt3WENfIYPaxg6EUY6e+G4bV1zHcOYuzSMPw7eQAchO4RDHXryNwprFMXjfXobG4CXutL3h3ztQ40O8H/P+/Qb5dRb2zNLOI3gMH8stnHd2GUrk+iuJrnmsOLkbtFFAoFFArTiB3kgHIBqVt51OqYa/UieGEIqllArggAPNT+HpS/S6HwUxKZ1wEEuzkATrh5E9pczQrHKKH4fDN5djI2ljLyNyaRnfdI5AR4j4ehIoPMIyB/2mNNCJd/vOdRWNPL0kT2VhpacRw9Uhvatreh43QGxoMRdOwaQOb/ppB8rCH7WQfatrehTfJj/FkJ8X4Pev5VROn+JCbnvaIdHMTOQYS9GjJ3CxvYHgBQxOjRCLKtUWQe5ZB7kEP2rG9hUDFvH7O9OZd93D0Yf26lKV0LoeeciYG7aUQP1ozmZhmFhwWUa9uuWgEcHJocADgJwctpzJRmMVuYwtgBE6WqjI4ddvafRxE4FIf7XBbpz71YmCa3S5C4IopPah71uICSS4LHxUGSRJSKtZ68JRSemJAkzxp5367lVtVZewTJQsEev+IICQBQRuqEioFf/EjcH4O/fWl5fOcwEvlZzJZmkLs5Ane5BHGvDB5FnD/gbtg32z7Nri3ok9X63s+r91tz9XdmIzHvjCB0SYP/Wg65fA65+3EEW+fvrqNNjCxGekPIyHHkJsOQaiZTxrM88s9qx34TZhULk4CVdQGspkdhhwTn0yJmamxm8XERnCRBfJd+u5zlZ7b6ZJCERh5qlSmKtEs0mK0sPbPND5LkClLyVYONcSKi0gSpLoHUC1M0O5+motHURZWEliAlXtaW76Vgv7SwR09ke5Htj9L0KyKqzNJEn0jiJ+zM9s/MeryR08fnz2os71ixf4JmXhERVWj2ZpgkXqHYU/pN1J3Z1t5b7exr2bnZzAUv8TsjlCxZvbHyeIL8rcvONJewxpntqaVnPTPnZOKPJBeuZy8rxPdOkG6fq6pX7Tq8zFG0VyRu1V8F1EjxaJjkVj9NlBrc1NMUbhFIuZCzfCtezdBEn7jgcTxzSSHpkO1D8WqGxg6JJJ2y38dXUxTZIdlenHUFU/q4SGL/hOXVqU9TtFsg+dy0dbsYI0Xw0nBWpwUdL4wPa+TVcpRYcMyq90bWr/uJ32/9ouJtdTZ7WSGxM2bVt1Fb7fTS4L1aT9TG5+Lro/7MdoHV/AVoeb/9De/MWme2te/nmyQF+RqnoTdTFGmRaDBvOzTtHKRcxX7u9QjJLs72SF8LjRL9IskNvcyJZi56id8ZXtCddm+QvC7b43gNXayqx0qOhncLpF6yzqArxQnyt0oUuVehd+u3S1lmbC3X66XecAsS0dQpkYQjSdJrje2rKRrcwxMvSBT5bgV3+0cTNNgrk7jgqCGS99AgTRSWps+dEgncMs+vygwlPlFIahFIEESS+2PMG/lPztsZWyLSpija7yVR4InneRJ2qzScWtHVY00aeSPP8zbGlt7MUvILP8mtdr9u9VLwwmqel7Y3csP36y2MLRHNTobJ2yqQtNtLSt8wpQtJCrfzJB4aW/OnHLlTIsHBEcfVfnjyXrTk0vNjFN4vEs/b7+rRmPVTHyIiPUexPtlywBIkUk4mFgewVJB4YFm5HPGH7PbUp2nsiNcaBwSJlFNJmq2RdTY1SOpOy4FG3BOk2INaR6xV8i7xpF3d2L6dzmYouo+rb6vmxT4wOxkhpV0g3iWQuMdP0ez6/G4b08gb2eatjC29/TuzmjfyWxhb0nMU7ZVIaJVI3q9Q+Mo05S54SRBkGsysMXC/nCCVA2FZ/+GEMKXfkKW7z1WSWxbrNHhzdsEwr6yLtfVYKSYo0imS4OJJaPdS+Mr0osF/l35bw5aH+R/o7/t8b7tbwGD8Zv7KIfbMuwMIl0eQOLrKITDjLSlh/MNxdFyNwbuCUxxjLVgbbjTs3zUyGL8jWtWHgV5maN8rRhnOvggzEu8Ca8MNh61sGb87f+WVLYPB+GvCVrYMBoPBYGwwzNgyGAwGg7HBOABrW4/B+D1hfY7BYPyVcABg52eM3xV2Zrv5YDrZfDCdbD7eRSdsG5nBYDAYjA2GGVsGg8FgMDYYZmwZDAaDwdhgmLFlMBgMBmODYcaWwWAwGIwNZpmxNTDpb8KWLVsafpr2nkfx95LsRQrHZDec27pw/ud3L678TQ+aVqiX53T+3R/wFqQ+dKLjbAGoFjCyy4nQnd/18X8ubofglNcTLu8teT6OLmcP4nPvXtSCPhkMBmMFlv0nTB7BVAVB+yp/2gPl+Qj0m8F3D4b8tjxKImmGkCm9x3+MvTuK6UfDkDfL//90yBh5UAIaBsBmMBgMxn8Kb72NbN4IwPmPEYx+1IG27QPIVIHy3REE9lpBjN1iBwJnswvB4rOftqHjszhGTwTQ8w8fPNs7cOyavT6ulpD6rAcd2628bbt6MHS7BNwfge90BsaLBMJ7ezD6M4ByFucPd8AjeeCRPPB9NI6CsbJMv4VVZYWJwv8eg09qQ9s2NzzKAOK/2CGDzSImP+2CZ7sHHqkNngMhjD40FvIVrx2Db3sbPLIPXR+Po/javlUtIHpARPiu9ff5vW049lUcQ4d70HXAgzY5gNGfzJq26kLbtjZ45C4rnezGse9/W103G8b98wjtbUOb6IZ7vh/M49CR+58AOqQ2OLe2oeuzlNW/nozC5+zB5EI8aROTh53w/bels9X1uZTy7WPwbA8g/gSAWULqdA867L7m+ccAJp+YC89YUZ8MBoOxEsuDx9eS+1wiri+xJJBvJRUkjpcpkrJjBb5KU1gQKDhpXz8dI4UXaTBrXU6dFIlrD1LCjoVY+S5MQosd5PpehIQdEZqyg8pXHsUo2D9G02/Iio25O2r9bcfZlU6mrXiNbzRKHlkMIl8nUwO0KypxC+U1ZjVZK/ciJLbO36vQ9AVlQb7pL2XiuxcDE89eD5LYGqa0TkSlMVJ4mQYf2MGqCzFSXBzJX04TvZmm4Z08Bb8jsuJwciT0zscjrVDuc4n4vgTpRKRPBkloD1NSIyLSKfeFl/hmgSL3Vq7PZqUunu3LBAVbJIrYgZ/1B4Mk84oV+DkVJK5ZouDVGasfPo2Rwss0XCCiYoy8vEqJhfCRFUr0LcZjXrXv1cRk1rPD5G1XKWbHV54+JxO/f9iOm1yh2a9VEnYPW31nNX3+ianTCeMPh+lk8/EuOnnrlS0HALwP/vkwYc0qJp6WEO+3r9sVKO06Si/s5YYD4A+E4G+x80sSxNcayq8BbOXhnsshdSOLYtkEt2cQiclI/TbviwxSeQnhEyp4AHAI8H/sB+6mkKs2kGklfhmB74MmNDXVfJw+jD7BmrLm7mRQ6Z6/x0H+PI3Sg2HIKCBzpwhffxiSvdcu9oWgmGlkHgFmPovpFhWhfdZNbncIwb0ri9hxKATJYT1DkkRA06ADmH6QBbqD8AsAwMN7egDKZtkOf0fM+2lkeD/CnTwAgN8fQ66URqTVus8JKgaOSJaeW32QBQ1lbR0Fr9b35p9dGEXgRB493yYxuJsDqgVkUkX4PhqClwcADuLRCJRyBslf3l6fDAaDAdSd2a4PjnfDuXBVRvabKEZTOehVDnCYKD8zIdekb2rmlp352ltyu6PI3HQj9s15BM5OQ29RED4TQ/SQuPSBhgG9WkDsYBvG5yWuVlAxlYWBc4lMT0bR1R3DTBWAw4fooyR6AGBnFLk1zmwby2rCmNPgbHEu3nNw4JsBVHVoBge3i1/M4nCC5w1ohgnDMGA2O8EvPJOHk1/pBJwD31xzzzH/twnDMOFsX2x1NAtw800rV+RPhDFXhtncAa5GL1xtGzU7l+iEe4teu2LfAwAzh+hHORhQEBbmU+nQDBPZMx1ou7CYtAIg8BJvqU8Gg8GweOe1kXlnBKFLOqL3cwi3WyuDkb2+dXstC50RxDojiMFE6fYQAh8NQNybRrg2kYuHk/MhfH9qYbWzKu0RJAshmFVYRtEFGGtmWg0OvMsNrazDhL2SrhooPbMMoJs3kZszANgGt6rDMNxwujhwJg/utQ6jCru1DWhzJtD+ds/nmjmYhr741esyNKMC9zvVa3PAuwRwc1pNG5koPysBgoRV9yrs3ltZOKM3UTHNlVI3yC8idCMD9TsVoY9GIWcGITnccLt4qJ/NINlfb0SN8vvQJ4PB+Kvxzr+zNec0mLwITwsHwETpRhyZF4Dxeu1Br3QthK6PJ1GqAgAHcZcIp8NEXU5Bhd87g/jXWdtomiheG0Lov7ONjaiDA+8SIAgCBBf/Xjypfb0qnN+PI/7EWukW/xVAR/8YSpCh9krI3YijaAteuhFHulmFfy/Ae32QnmeQeGBJavw4hsSjt39+h7cD+vcpZA0AMJD/Ko7c+/45zB8E19kD5XUKY7cttzrjYRSqdwDJtX6W43LDjRKKz+yGf5ZA6m3a1uGGtEOAci6OIcQQOpuH6ZCg/lNE7to4CvauifHTOAY+GkfBfH/6ZDAYfy3e2djyh0YwJGbglzz4/9u7Y9eo4SiA49+DCldwSMHhflCHhBaaomAyXSNdIrdccMhl0qJL2sV20nTocZOcyxEd5OIgtYISbzoOHOJ2k1Kn4tTZsX9CNh1OB9H2CLTc2XsfyPYjPHg/+PEeL/nZ6x7P8pDkscXx0zrRp7PrSd3foZF38X5PI/sZZqdLuPjXSrYPUoLvEc6ygbG8StDL8XwH7V8vPs23FvZ8idKVP5/59edjK/FyrU2/qUjv6iil433Uid+2sObAaqYkKxmBNZpG9t4v0O7FuFeBpW2SjsnwoYlh2gSvFYFfvB6t3IuJ147YvGlgr22QVhp4lcvRRubafZIPIXnHQSmFuXWI+2p/fBdDaxA1TbIHNnfqAcFLcGtq1NEoomzx5KCN6m2wMzjB2u2T3BoSWqN9aW9laH4dq8y55VMIMVtKnw+//LhddSYdhygqz9jUI7TBMXF10sEUI1eHTR/JyfSRnEwfuWJvFnxtsXrdI/nVMj0ZpAznHNwbE45LCCHEWHLY/i+qEd1HZd7UdAzdwHmRE76Lqcvfp4QQYupdki81Z4GGu9fnaG/ScQghhChKKlshhBDigv0EHy86gT6K6ykAAAAASUVORK5CYII=;" parent="1" vertex="1">
          <mxGeometry x="652.81" y="589.53" width="384.19" height="220" as="geometry" />
        </mxCell>
      </root>
    </mxGraphModel>
  </diagram>
</mxfile>
